FiraSansMM.ufo
<glyph name="X" format="1">
  <advance width="467"/>
  <unicode hex="0058"/>
  <outline>
    <contour>
      <point x="22" y="0" type="line"/>
      <point x="233" y="369" type="line"/>
      <point x="445" y="0" type="line"/>
      <point x="447" y="0" type="line"/>
      <point x="235" y="370" type="line"/>
      <point x="416" y="680" type="line"/>
      <point x="414" y="680" type="line"/>
      <point x="233" y="371" type="line"/>
      <point x="53" y="680" type="line"/>
      <point x="51" y="680" type="line"/>
      <point x="231" y="370" type="line"/>
      <point x="20" y="0" type="line"/>
    </contour>
    <contour>
      <point x="234" y="680" type="move" name="top"/>
    </contour>
    <contour>
      <point x="234" y="0" type="move" name="bottom"/>
    </contour>
    <contour>
      <point x="454" y="0" type="move" name="bottomright"/>
    </contour>
  </outline>
</glyph>
<glyph name="b" format="1">
  <advance width="567"/>
  <unicode hex="0062"/>
  <outline>
    <contour>
      <point x="300" y="-9" type="curve" smooth="yes"/>
      <point x="420" y="-9"/>
      <point x="482" y="95"/>
      <point x="482" y="264" type="curve" smooth="yes"/>
      <point x="482" y="431"/>
      <point x="420" y="527"/>
      <point x="304" y="527" type="curve" smooth="yes"/>
      <point x="222" y="527"/>
      <point x="170" y="482"/>
      <point x="127" y="421" type="curve"/>
      <point x="127" y="730" type="line"/>
      <point x="125" y="730" type="line"/>
      <point x="125" y="0" type="line"/>
      <point x="127" y="0" type="line"/>
      <point x="127" y="98" type="line"/>
      <point x="167" y="35"/>
      <point x="221" y="-9"/>
    </contour>
    <contour>
      <point x="300" y="-7" type="curve" smooth="yes"/>
      <point x="222" y="-7"/>
      <point x="169" y="36"/>
      <point x="127" y="101" type="curve"/>
      <point x="127" y="418" type="line"/>
      <point x="173" y="483"/>
      <point x="224" y="525"/>
      <point x="304" y="525" type="curve" smooth="yes"/>
      <point x="420" y="525"/>
      <point x="480" y="429"/>
      <point x="480" y="264" type="curve" smooth="yes"/>
      <point x="480" y="97"/>
      <point x="419" y="-7"/>
    </contour>
    <contour>
      <point x="289" y="727" type="move" name="top"/>
    </contour>
    <contour>
      <point x="284" y="0" type="move" name="bottom"/>
    </contour>
  </outline>
</glyph>
<glyph name="d" format="1">
  <advance width="572"/>
  <unicode hex="0064"/>
  <outline>
    <contour>
      <point x="273" y="-9" type="curve" smooth="yes"/>
      <point x="363" y="-9"/>
      <point x="411" y="39"/>
      <point x="445" y="100" type="curve"/>
      <point x="445" y="0" type="line"/>
      <point x="447" y="0" type="line"/>
      <point x="447" y="730" type="line"/>
      <point x="445" y="730" type="line"/>
      <point x="445" y="424" type="line"/>
      <point x="421" y="473"/>
      <point x="367" y="527"/>
      <point x="281" y="527" type="curve" smooth="yes"/>
      <point x="156" y="527"/>
      <point x="85" y="417"/>
      <point x="85" y="257" type="curve" smooth="yes"/>
      <point x="85" y="87"/>
      <point x="159" y="-9"/>
    </contour>
    <contour>
      <point x="273" y="-7" type="curve" smooth="yes"/>
      <point x="160" y="-7"/>
      <point x="87" y="89"/>
      <point x="87" y="257" type="curve" smooth="yes"/>
      <point x="87" y="415"/>
      <point x="158" y="525"/>
      <point x="281" y="525" type="curve" smooth="yes"/>
      <point x="366" y="525"/>
      <point x="419" y="472"/>
      <point x="445" y="421" type="curve"/>
      <point x="445" y="104" type="line"/>
      <point x="410" y="41"/>
      <point x="363" y="-7"/>
    </contour>
    <contour>
      <point x="288" y="0" type="move" name="bottom"/>
    </contour>
    <contour>
      <point x="280" y="727" type="move" name="top"/>
    </contour>
    <contour>
      <point x="497" y="727" type="move" name="topright"/>
    </contour>
    <contour>
      <point x="289" y="259" type="move" name="center"/>
    </contour>
  </outline>
</glyph>
<glyph name="q" format="1">
  <advance width="567"/>
  <unicode hex="0071"/>
  <outline>
    <contour>
      <point x="440" y="425" type="line"/>
      <point x="415" y="473"/>
      <point x="362" y="527"/>
      <point x="276" y="527" type="curve" smooth="yes"/>
      <point x="151" y="527"/>
      <point x="80" y="417"/>
      <point x="80" y="257" type="curve" smooth="yes"/>
      <point x="80" y="88"/>
      <point x="154" y="-9"/>
      <point x="267" y="-9" type="curve" smooth="yes"/>
      <point x="359" y="-9"/>
      <point x="407" y="40"/>
      <point x="440" y="100" type="curve"/>
      <point x="440" y="-190" type="line"/>
      <point x="442" y="-190" type="line"/>
      <point x="442" y="517" type="line"/>
      <point x="440" y="517" type="line"/>
    </contour>
    <contour>
      <point x="267" y="-7" type="curve" smooth="yes"/>
      <point x="155" y="-7"/>
      <point x="82" y="89"/>
      <point x="82" y="257" type="curve" smooth="yes"/>
      <point x="82" y="415"/>
      <point x="153" y="525"/>
      <point x="276" y="525" type="curve" smooth="yes"/>
      <point x="361" y="525"/>
      <point x="414" y="472"/>
      <point x="440" y="421" type="curve"/>
      <point x="440" y="104" type="line"/>
      <point x="405" y="41"/>
      <point x="358" y="-7"/>
    </contour>
    <contour>
      <point x="284" y="517" type="move" name="top"/>
    </contour>
    <contour>
      <point x="284" y="-188" type="move" name="bottom"/>
    </contour>
  </outline>
</glyph>
<glyph name="r" format="1">
  <advance width="361"/>
  <unicode hex="0072"/>
  <outline>
    <contour>
      <point x="290" y="527" type="curve" smooth="yes"/>
      <point x="209" y="527"/>
      <point x="160" y="485"/>
      <point x="127" y="375" type="curve"/>
      <point x="127" y="517" type="line"/>
      <point x="125" y="517" type="line"/>
      <point x="125" y="0" type="line"/>
      <point x="127" y="0" type="line"/>
      <point x="127" y="368" type="line"/>
      <point x="161" y="483"/>
      <point x="209" y="525"/>
      <point x="290" y="525" type="curve" smooth="yes"/>
      <point x="310" y="525"/>
      <point x="323" y="523"/>
      <point x="336" y="520" type="curve"/>
      <point x="336" y="522" type="line"/>
      <point x="323" y="525"/>
      <point x="310" y="527"/>
    </contour>
    <contour>
      <point x="230" y="517" type="move" name="top"/>
    </contour>
    <contour>
      <point x="126" y="0" type="move" name="bottom"/>
    </contour>
  </outline>
</glyph>
<glyph name="currency" format="1">
  <advance width="560"/>
  <unicode hex="00A4"/>
  <outline>
    <contour>
      <point x="170" y="211" type="line"/>
      <point x="199" y="185"/>
      <point x="237" y="170"/>
      <point x="279" y="170" type="curve" smooth="yes"/>
      <point x="322" y="170"/>
      <point x="360" y="185"/>
      <point x="389" y="212" type="curve"/>
      <point x="468" y="135" type="line"/>
      <point x="470" y="136" type="line"/>
      <point x="391" y="213" type="line"/>
      <point x="424" y="243"/>
      <point x="444" y="287"/>
      <point x="444" y="339" type="curve" smooth="yes"/>
      <point x="444" y="388"/>
      <point x="426" y="432"/>
      <point x="396" y="463" type="curve"/>
      <point x="470" y="540" type="line"/>
      <point x="468" y="541" type="line"/>
      <point x="394" y="464" type="line"/>
      <point x="365" y="493"/>
      <point x="325" y="510"/>
      <point x="279" y="510" type="curve" smooth="yes"/>
      <point x="234" y="510"/>
      <point x="194" y="493"/>
      <point x="165" y="465" type="curve"/>
      <point x="92" y="541" type="line"/>
      <point x="90" y="540" type="line"/>
      <point x="164" y="463" type="line"/>
      <point x="133" y="433"/>
      <point x="114" y="389"/>
      <point x="114" y="339" type="curve" smooth="yes"/>
      <point x="114" y="287"/>
      <point x="135" y="242"/>
      <point x="168" y="212" type="curve"/>
      <point x="90" y="136" type="line"/>
      <point x="92" y="135" type="line"/>
    </contour>
    <contour>
      <point x="279" y="172" type="curve" smooth="yes"/>
      <point x="190" y="172"/>
      <point x="116" y="240"/>
      <point x="116" y="339" type="curve" smooth="yes"/>
      <point x="116" y="435"/>
      <point x="185" y="508"/>
      <point x="279" y="508" type="curve" smooth="yes"/>
      <point x="375" y="508"/>
      <point x="442" y="434"/>
      <point x="442" y="339" type="curve" smooth="yes"/>
      <point x="442" y="240"/>
      <point x="369" y="172"/>
    </contour>
  </outline>
</glyph>
<glyph name="ordfeminine" format="1">
  <advance width="500"/>
  <unicode hex="00AA"/>
  <outline>
    <contour>
      <point x="218" y="278" type="curve" smooth="yes"/>
      <point x="286" y="278"/>
      <point x="328" y="308"/>
      <point x="356" y="363" type="curve"/>
      <point x="356" y="310"/>
      <point x="365" y="289"/>
      <point x="400" y="278" type="curve"/>
      <point x="401" y="280" type="line"/>
      <point x="366" y="290"/>
      <point x="358" y="313"/>
      <point x="358" y="368" type="curve" smooth="yes"/>
      <point x="358" y="564" type="line" smooth="yes"/>
      <point x="358" y="636"/>
      <point x="329" y="680"/>
      <point x="245" y="680" type="curve" smooth="yes"/>
      <point x="208" y="680"/>
      <point x="171" y="672"/>
      <point x="127" y="655" type="curve"/>
      <point x="128" y="653" type="line"/>
      <point x="172" y="670"/>
      <point x="209" y="678"/>
      <point x="245" y="678" type="curve" smooth="yes"/>
      <point x="328" y="678"/>
      <point x="356" y="634"/>
      <point x="356" y="564" type="curve" smooth="yes"/>
      <point x="356" y="513" type="line"/>
      <point x="257" y="513" type="line" smooth="yes"/>
      <point x="159" y="513"/>
      <point x="98" y="470"/>
      <point x="98" y="394" type="curve" smooth="yes"/>
      <point x="98" y="327"/>
      <point x="140" y="278"/>
    </contour>
    <contour>
      <point x="407" y="0" type="line"/>
      <point x="407" y="2" type="line"/>
      <point x="99" y="2" type="line"/>
      <point x="99" y="0" type="line"/>
    </contour>
    <contour>
      <point x="218" y="280" type="curve" smooth="yes"/>
      <point x="142" y="280"/>
      <point x="100" y="328"/>
      <point x="100" y="394" type="curve" smooth="yes"/>
      <point x="100" y="468"/>
      <point x="160" y="511"/>
      <point x="257" y="511" type="curve" smooth="yes"/>
      <point x="356" y="511" type="line"/>
      <point x="356" y="367" type="line"/>
      <point x="327" y="311"/>
      <point x="287" y="280"/>
    </contour>
  </outline>
</glyph>
<glyph name="Eth" format="1">
  <advance width="607"/>
  <unicode hex="00D0"/>
  <outline>
    <contour>
      <point x="124" y="680" type="line"/>
      <point x="124" y="354" type="line"/>
      <point x="30" y="354" type="line"/>
      <point x="30" y="352" type="line"/>
      <point x="124" y="352" type="line"/>
      <point x="124" y="0" type="line"/>
      <point x="235" y="0" type="line" smooth="yes"/>
      <point x="374" y="0"/>
      <point x="522" y="69"/>
      <point x="522" y="348" type="curve" smooth="yes"/>
      <point x="522" y="626"/>
      <point x="372" y="680"/>
      <point x="228" y="680" type="curve" smooth="yes"/>
    </contour>
    <contour>
      <point x="126" y="2" type="line"/>
      <point x="126" y="352" type="line"/>
      <point x="322" y="352" type="line"/>
      <point x="322" y="354" type="line"/>
      <point x="126" y="354" type="line"/>
      <point x="126" y="678" type="line"/>
      <point x="228" y="678" type="line" smooth="yes"/>
      <point x="371" y="678"/>
      <point x="520" y="624"/>
      <point x="520" y="348" type="curve" smooth="yes"/>
      <point x="520" y="71"/>
      <point x="374" y="2"/>
      <point x="235" y="2" type="curve" smooth="yes"/>
    </contour>
    <contour>
      <point x="303" y="340" type="move" name="center"/>
    </contour>
    <contour>
      <point x="304" y="0" type="move" name="bottom"/>
    </contour>
    <contour>
      <point x="283" y="680" type="move" name="top"/>
    </contour>
  </outline>
</glyph>
<glyph name="thorn" format="1">
  <advance width="567"/>
  <unicode hex="00FE"/>
  <outline>
    <contour>
      <point x="306" y="527" type="curve" smooth="yes"/>
      <point x="223" y="527"/>
      <point x="170" y="482"/>
      <point x="127" y="421" type="curve"/>
      <point x="127" y="730" type="line"/>
      <point x="125" y="730" type="line"/>
      <point x="125" y="-190" type="line"/>
      <point x="127" y="-190" type="line"/>
      <point x="127" y="98" type="line"/>
      <point x="167" y="35"/>
      <point x="223" y="-9"/>
      <point x="302" y="-9" type="curve" smooth="yes"/>
      <point x="420" y="-9"/>
      <point x="482" y="95"/>
      <point x="482" y="264" type="curve" smooth="yes"/>
      <point x="482" y="431"/>
      <point x="420" y="527"/>
    </contour>
    <contour>
      <point x="302" y="-7" type="curve" smooth="yes"/>
      <point x="224" y="-7"/>
      <point x="169" y="36"/>
      <point x="127" y="101" type="curve"/>
      <point x="127" y="418" type="line"/>
      <point x="173" y="483"/>
      <point x="225" y="525"/>
      <point x="306" y="525" type="curve" smooth="yes"/>
      <point x="420" y="525"/>
      <point x="480" y="429"/>
      <point x="480" y="264" type="curve" smooth="yes"/>
      <point x="480" y="97"/>
      <point x="419" y="-7"/>
    </contour>
    <contour>
      <point x="284" y="727" type="move" name="top"/>
    </contour>
    <contour>
      <point x="284" y="-188" type="move" name="bottom"/>
    </contour>
  </outline>
</glyph>
<glyph name="Hbar" format="1">
  <advance width="668"/>
  <unicode hex="0126"/>
  <outline>
    <contour>
      <point x="532" y="528" type="line"/>
      <point x="532" y="680" type="line"/>
      <point x="530" y="680" type="line"/>
      <point x="530" y="528" type="line"/>
      <point x="140" y="528" type="line"/>
      <point x="140" y="680" type="line"/>
      <point x="138" y="680" type="line"/>
      <point x="138" y="528" type="line"/>
      <point x="85" y="528" type="line"/>
      <point x="85" y="526" type="line"/>
      <point x="138" y="526" type="line"/>
      <point x="138" y="0" type="line"/>
      <point x="140" y="0" type="line"/>
      <point x="140" y="360" type="line"/>
      <point x="530" y="360" type="line"/>
      <point x="530" y="0" type="line"/>
      <point x="532" y="0" type="line"/>
      <point x="532" y="526" type="line"/>
      <point x="583" y="526" type="line"/>
      <point x="583" y="528" type="line"/>
    </contour>
    <contour>
      <point x="140" y="362" type="line"/>
      <point x="140" y="526" type="line"/>
      <point x="530" y="526" type="line"/>
      <point x="530" y="362" type="line"/>
    </contour>
    <contour>
      <point x="335" y="0" type="move" name="bottom"/>
    </contour>
    <contour>
      <point x="334" y="680" type="move" name="top"/>
    </contour>
    <contour>
      <point x="88" y="680" type="move" name="topleft"/>
    </contour>
    <contour>
      <point x="542" y="0" type="move" name="bottomright"/>
    </contour>
    <contour>
      <point x="334" y="340" type="move" name="center"/>
    </contour>
  </outline>
</glyph>
<glyph name="hbar" format="1">
  <advance width="585"/>
  <unicode hex="0127"/>
  <outline>
    <contour>
      <point x="132" y="0" type="line"/>
      <point x="132" y="387" type="line"/>
      <point x="180" y="473"/>
      <point x="244" y="525"/>
      <point x="331" y="525" type="curve" smooth="yes"/>
      <point x="424" y="525"/>
      <point x="463" y="464"/>
      <point x="463" y="368" type="curve" smooth="yes"/>
      <point x="463" y="0" type="line"/>
      <point x="465" y="0" type="line"/>
      <point x="465" y="368" type="line" smooth="yes"/>
      <point x="465" y="465"/>
      <point x="425" y="527"/>
      <point x="331" y="527" type="curve" smooth="yes"/>
      <point x="244" y="527"/>
      <point x="180" y="476"/>
      <point x="132" y="391" type="curve"/>
      <point x="132" y="638" type="line"/>
      <point x="323" y="638" type="line"/>
      <point x="323" y="640" type="line"/>
      <point x="132" y="640" type="line"/>
      <point x="132" y="730" type="line"/>
      <point x="130" y="730" type="line"/>
      <point x="130" y="640" type="line"/>
      <point x="55" y="640" type="line"/>
      <point x="55" y="638" type="line"/>
      <point x="130" y="638" type="line"/>
      <point x="130" y="0" type="line"/>
    </contour>
    <contour>
      <point x="298" y="260" type="move" name="center"/>
    </contour>
    <contour>
      <point x="298" y="0" type="move" name="bottom"/>
    </contour>
    <contour>
      <point x="298" y="727" type="move" name="top"/>
    </contour>
  </outline>
</glyph>
<glyph name="lslash" format="1">
  <advance width="288"/>
  <unicode hex="0142"/>
  <outline>
    <contour>
      <point x="185" y="-9" type="curve" smooth="yes"/>
      <point x="200" y="-9"/>
      <point x="214" y="-6"/>
      <point x="226" y="-1" type="curve"/>
      <point x="226" y="1" type="line"/>
      <point x="214" y="-4"/>
      <point x="200" y="-7"/>
      <point x="185" y="-7" type="curve" smooth="yes"/>
      <point x="146" y="-7"/>
      <point x="128" y="21"/>
      <point x="128" y="64" type="curve" smooth="yes"/>
      <point x="128" y="362" type="line"/>
      <point x="238" y="432" type="line"/>
      <point x="237" y="434" type="line"/>
      <point x="128" y="365" type="line"/>
      <point x="128" y="730" type="line"/>
      <point x="126" y="730" type="line"/>
      <point x="126" y="364" type="line"/>
      <point x="55" y="319" type="line"/>
      <point x="56" y="317" type="line"/>
      <point x="126" y="361" type="line"/>
      <point x="126" y="64" type="line" smooth="yes"/>
      <point x="126" y="19"/>
      <point x="145" y="-9"/>
    </contour>
    <contour>
      <point x="180" y="0" type="move" name="bottom"/>
    </contour>
    <contour>
      <point x="127" y="730" type="move" name="top"/>
    </contour>
    <contour>
      <point x="188" y="727" type="move" name="topright"/>
    </contour>
    <contour>
      <point x="262" y="375" type="move" name="center"/>
    </contour>
  </outline>
</glyph>
<glyph name="OE" format="1">
  <advance width="838"/>
  <unicode hex="0152"/>
  <outline>
    <contour>
      <point x="324" y="-9" type="curve" smooth="yes"/>
      <point x="351" y="-9"/>
      <point x="373" y="-5"/>
      <point x="393" y="0" type="curve"/>
      <point x="788" y="0" type="line"/>
      <point x="788" y="2" type="line"/>
      <point x="399" y="2" type="line"/>
      <point x="510" y="37"/>
      <point x="572" y="158"/>
      <point x="572" y="360" type="curve"/>
      <point x="735" y="360" type="line"/>
      <point x="735" y="362" type="line"/>
      <point x="572" y="362" type="line"/>
      <point x="572" y="524"/>
      <point x="511" y="642"/>
      <point x="401" y="678" type="curve"/>
      <point x="778" y="678" type="line"/>
      <point x="778" y="680" type="line"/>
      <point x="395" y="680" type="line"/>
      <point x="377" y="686"/>
      <point x="351" y="690"/>
      <point x="324" y="690" type="curve" smooth="yes"/>
      <point x="182" y="690"/>
      <point x="85" y="557"/>
      <point x="85" y="338" type="curve" smooth="yes"/>
      <point x="85" y="119"/>
      <point x="178" y="-9"/>
    </contour>
    <contour>
      <point x="324" y="-7" type="curve" smooth="yes"/>
      <point x="179" y="-7"/>
      <point x="87" y="121"/>
      <point x="87" y="338" type="curve" smooth="yes"/>
      <point x="87" y="555"/>
      <point x="183" y="688"/>
      <point x="324" y="688" type="curve" smooth="yes"/>
      <point x="478" y="688"/>
      <point x="570" y="561"/>
      <point x="570" y="361" type="curve" smooth="yes"/>
      <point x="570" y="122"/>
      <point x="484" y="-7"/>
    </contour>
    <contour>
      <point x="419" y="680" type="move" name="top"/>
    </contour>
    <contour>
      <point x="419" y="0" type="move" name="bottom"/>
    </contour>
  </outline>
</glyph>
<glyph name="Tbar" format="1">
  <advance width="455"/>
  <unicode hex="0166"/>
  <outline>
    <contour>
      <point x="237" y="0" type="line"/>
      <point x="237" y="374" type="line"/>
      <point x="360" y="374" type="line"/>
      <point x="360" y="376" type="line"/>
      <point x="237" y="376" type="line"/>
      <point x="237" y="678" type="line"/>
      <point x="452" y="678" type="line"/>
      <point x="452" y="680" type="line"/>
      <point x="20" y="680" type="line"/>
      <point x="20" y="678" type="line"/>
      <point x="235" y="678" type="line"/>
      <point x="235" y="376" type="line"/>
      <point x="112" y="376" type="line"/>
      <point x="112" y="374" type="line"/>
      <point x="235" y="374" type="line"/>
      <point x="235" y="0" type="line"/>
    </contour>
    <contour>
      <point x="236" y="0" type="move" name="bottom"/>
    </contour>
    <contour>
      <point x="236" y="680" type="move" name="top"/>
    </contour>
    <contour>
      <point x="247" y="0" type="move" name="bottomright"/>
    </contour>
    <contour>
      <point x="236" y="340" type="move" name="center"/>
    </contour>
  </outline>
</glyph>
<glyph name="uni0180" format="1">
  <advance width="572"/>
  <unicode hex="0180"/>
  <outline>
    <contour>
      <point x="305" y="-9" type="curve" smooth="yes"/>
      <point x="425" y="-9"/>
      <point x="487" y="95"/>
      <point x="487" y="264" type="curve" smooth="yes"/>
      <point x="487" y="431"/>
      <point x="425" y="527"/>
      <point x="309" y="527" type="curve" smooth="yes"/>
      <point x="227" y="527"/>
      <point x="175" y="482"/>
      <point x="132" y="421" type="curve"/>
      <point x="132" y="638" type="line"/>
      <point x="323" y="638" type="line"/>
      <point x="323" y="640" type="line"/>
      <point x="132" y="640" type="line"/>
      <point x="132" y="730" type="line"/>
      <point x="130" y="730" type="line"/>
      <point x="130" y="640" type="line"/>
      <point x="55" y="640" type="line"/>
      <point x="55" y="638" type="line"/>
      <point x="130" y="638" type="line"/>
      <point x="130" y="0" type="line"/>
      <point x="132" y="0" type="line"/>
      <point x="132" y="98" type="line"/>
      <point x="172" y="35"/>
      <point x="226" y="-9"/>
    </contour>
    <contour>
      <point x="305" y="-7" type="curve" smooth="yes"/>
      <point x="227" y="-7"/>
      <point x="174" y="36"/>
      <point x="132" y="101" type="curve"/>
      <point x="132" y="418" type="line"/>
      <point x="178" y="483"/>
      <point x="229" y="525"/>
      <point x="309" y="525" type="curve" smooth="yes"/>
      <point x="425" y="525"/>
      <point x="485" y="429"/>
      <point x="485" y="264" type="curve" smooth="yes"/>
      <point x="485" y="97"/>
      <point x="424" y="-7"/>
    </contour>
    <contour>
      <point x="294" y="727" type="move" name="top"/>
    </contour>
    <contour>
      <point x="289" y="0" type="move" name="bottom"/>
    </contour>
  </outline>
</glyph>
<glyph name="uni018C" format="1">
  <advance width="572"/>
  <unicode hex="018C"/>
  <outline>
    <contour>
      <point x="273" y="-9" type="curve" smooth="yes"/>
      <point x="363" y="-9"/>
      <point x="410" y="39"/>
      <point x="445" y="100" type="curve"/>
      <point x="445" y="0" type="line"/>
      <point x="447" y="0" type="line"/>
      <point x="447" y="727" type="line"/>
      <point x="205" y="727" type="line"/>
      <point x="205" y="725" type="line"/>
      <point x="445" y="725" type="line"/>
      <point x="445" y="424" type="line"/>
      <point x="421" y="473"/>
      <point x="367" y="527"/>
      <point x="281" y="527" type="curve" smooth="yes"/>
      <point x="156" y="527"/>
      <point x="85" y="417"/>
      <point x="85" y="257" type="curve" smooth="yes"/>
      <point x="85" y="87"/>
      <point x="159" y="-9"/>
    </contour>
    <contour>
      <point x="273" y="-7" type="curve" smooth="yes"/>
      <point x="160" y="-7"/>
      <point x="87" y="89"/>
      <point x="87" y="257" type="curve" smooth="yes"/>
      <point x="87" y="415"/>
      <point x="158" y="525"/>
      <point x="281" y="525" type="curve" smooth="yes"/>
      <point x="366" y="525"/>
      <point x="419" y="472"/>
      <point x="445" y="421" type="curve"/>
      <point x="445" y="104" type="line"/>
      <point x="410" y="41"/>
      <point x="363" y="-7"/>
    </contour>
    <contour>
      <point x="286" y="727" type="move" name="top"/>
    </contour>
    <contour>
      <point x="286" y="0" type="move" name="bottom"/>
    </contour>
  </outline>
</glyph>
<glyph name="uni0196" format="1">
  <advance width="323"/>
  <unicode hex="0196"/>
  <outline>
    <contour>
      <point x="282" y="21" type="line"/>
      <point x="263" y="5"/>
      <point x="241" y="-7"/>
      <point x="204" y="-7" type="curve" smooth="yes"/>
      <point x="155" y="-7"/>
      <point x="122" y="25"/>
      <point x="122" y="86" type="curve" smooth="yes"/>
      <point x="122" y="680" type="line"/>
      <point x="120" y="680" type="line"/>
      <point x="120" y="86" type="line" smooth="yes"/>
      <point x="120" y="24"/>
      <point x="154" y="-9"/>
      <point x="204" y="-9" type="curve" smooth="yes"/>
      <point x="242" y="-9"/>
      <point x="265" y="4"/>
      <point x="283" y="19" type="curve"/>
    </contour>
    <contour>
      <point x="121" y="680" type="move" name="top"/>
    </contour>
    <contour>
      <point x="192" y="0" type="move" name="bottom"/>
    </contour>
  </outline>
</glyph>
<glyph name="uni0199" format="1">
  <advance width="448"/>
  <unicode hex="0199"/>
  <outline>
    <contour>
      <point x="127" y="0" type="line"/>
      <point x="127" y="618" type="line" smooth="yes"/>
      <point x="127" y="693"/>
      <point x="173" y="731"/>
      <point x="236" y="731" type="curve" smooth="yes"/>
      <point x="280" y="731"/>
      <point x="316" y="717"/>
      <point x="346" y="698" type="curve"/>
      <point x="347" y="700" type="line"/>
      <point x="317" y="719"/>
      <point x="280" y="733"/>
      <point x="236" y="733" type="curve" smooth="yes"/>
      <point x="172" y="733"/>
      <point x="125" y="694"/>
      <point x="125" y="618" type="curve" smooth="yes"/>
      <point x="125" y="0" type="line"/>
    </contour>
    <contour>
      <point x="423" y="0" type="line"/>
      <point x="136" y="283" type="line"/>
      <point x="396" y="517" type="line"/>
      <point x="393" y="517" type="line"/>
      <point x="133" y="283" type="line"/>
      <point x="420" y="0" type="line"/>
    </contour>
  </outline>
</glyph>
<glyph name="uni019C" format="1">
  <advance width="918"/>
  <unicode hex="019C"/>
  <outline>
    <contour>
      <point x="266" y="-10" type="curve" smooth="yes"/>
      <point x="351" y="-10"/>
      <point x="405" y="41"/>
      <point x="456" y="128" type="curve"/>
      <point x="468" y="36"/>
      <point x="523" y="-10"/>
      <point x="599" y="-10" type="curve" smooth="yes"/>
      <point x="684" y="-10"/>
      <point x="738" y="41"/>
      <point x="786" y="126" type="curve"/>
      <point x="786" y="0" type="line"/>
      <point x="788" y="0" type="line"/>
      <point x="788" y="680" type="line"/>
      <point x="786" y="680" type="line"/>
      <point x="786" y="130" type="line"/>
      <point x="738" y="44"/>
      <point x="684" y="-8"/>
      <point x="599" y="-8" type="curve" smooth="yes"/>
      <point x="513" y="-8"/>
      <point x="455" y="51"/>
      <point x="455" y="169" type="curve" smooth="yes"/>
      <point x="455" y="680" type="line"/>
      <point x="453" y="680" type="line"/>
      <point x="453" y="169" type="line" smooth="yes"/>
      <point x="453" y="156"/>
      <point x="454" y="143"/>
      <point x="455" y="132" type="curve"/>
      <point x="404" y="43"/>
      <point x="351" y="-8"/>
      <point x="266" y="-8" type="curve" smooth="yes"/>
      <point x="180" y="-8"/>
      <point x="122" y="51"/>
      <point x="122" y="169" type="curve" smooth="yes"/>
      <point x="122" y="680" type="line"/>
      <point x="120" y="680" type="line"/>
      <point x="120" y="169" type="line" smooth="yes"/>
      <point x="120" y="50"/>
      <point x="179" y="-10"/>
    </contour>
    <contour>
      <point x="459" y="680" type="move" name="top"/>
    </contour>
    <contour>
      <point x="459" y="0" type="move" name="bottom"/>
    </contour>
  </outline>
</glyph>
<glyph name="uni019D" format="1">
  <advance width="654"/>
  <unicode hex="019D"/>
  <outline>
    <contour>
      <point x="48" y="-192" type="curve" smooth="yes"/>
      <point x="98" y="-192"/>
      <point x="132" y="-159"/>
      <point x="132" y="-97" type="curve" smooth="yes"/>
      <point x="132" y="575" type="line"/>
      <point x="132" y="609"/>
      <point x="132" y="644"/>
      <point x="132" y="678" type="curve"/>
      <point x="521" y="0" type="line"/>
      <point x="524" y="0" type="line"/>
      <point x="524" y="680" type="line"/>
      <point x="522" y="680" type="line"/>
      <point x="522" y="136" type="line"/>
      <point x="522" y="91"/>
      <point x="522" y="47"/>
      <point x="522" y="2" type="curve"/>
      <point x="133" y="680" type="line"/>
      <point x="130" y="680" type="line"/>
      <point x="130" y="-97" type="line" smooth="yes"/>
      <point x="130" y="-158"/>
      <point x="97" y="-190"/>
      <point x="48" y="-190" type="curve" smooth="yes"/>
      <point x="11" y="-190"/>
      <point x="-11" y="-178"/>
      <point x="-30" y="-162" type="curve"/>
      <point x="-31" y="-164" type="line"/>
      <point x="-13" y="-179"/>
      <point x="10" y="-192"/>
    </contour>
    <contour>
      <point x="331" y="680" type="move" name="top"/>
    </contour>
    <contour>
      <point x="321" y="0" type="move" name="bottom"/>
    </contour>
  </outline>
</glyph>
<glyph name="uni01A2" format="1">
  <advance width="873"/>
  <unicode hex="01A2"/>
  <outline>
    <contour>
      <point x="743" y="-188" type="line"/>
      <point x="743" y="575" type="line" smooth="yes"/>
      <point x="743" y="647"/>
      <point x="709" y="690"/>
      <point x="639" y="690" type="curve" smooth="yes"/>
      <point x="581" y="690"/>
      <point x="539" y="673"/>
      <point x="488" y="644" type="curve"/>
      <point x="448" y="674"/>
      <point x="400" y="690"/>
      <point x="343" y="690" type="curve" smooth="yes"/>
      <point x="188" y="690"/>
      <point x="85" y="557"/>
      <point x="85" y="338" type="curve" smooth="yes"/>
      <point x="85" y="119"/>
      <point x="184" y="-9"/>
      <point x="343" y="-9" type="curve" smooth="yes"/>
      <point x="510" y="-9"/>
      <point x="602" y="120"/>
      <point x="602" y="340" type="curve" smooth="yes"/>
      <point x="602" y="484"/>
      <point x="561" y="587"/>
      <point x="489" y="643" type="curve"/>
      <point x="540" y="671"/>
      <point x="582" y="688"/>
      <point x="639" y="688" type="curve" smooth="yes"/>
      <point x="708" y="688"/>
      <point x="741" y="646"/>
      <point x="741" y="575" type="curve" smooth="yes"/>
      <point x="741" y="-188" type="line"/>
    </contour>
    <contour>
      <point x="343" y="-7" type="curve" smooth="yes"/>
      <point x="185" y="-7"/>
      <point x="87" y="121"/>
      <point x="87" y="338" type="curve" smooth="yes"/>
      <point x="87" y="555"/>
      <point x="189" y="688"/>
      <point x="343" y="688" type="curve" smooth="yes"/>
      <point x="503" y="688"/>
      <point x="600" y="561"/>
      <point x="600" y="340" type="curve" smooth="yes"/>
      <point x="600" y="122"/>
      <point x="509" y="-7"/>
    </contour>
    <contour>
      <point x="437" y="680" type="move" name="top"/>
    </contour>
    <contour>
      <point x="437" y="-188" type="move" name="bottom"/>
    </contour>
  </outline>
</glyph>
<glyph name="uni01A6" format="1">
  <advance width="561"/>
  <unicode hex="01A6"/>
  <outline>
    <contour>
      <point x="506" y="-140" type="line"/>
      <point x="314" y="194" type="line"/>
      <point x="394" y="197"/>
      <point x="482" y="243"/>
      <point x="482" y="366" type="curve" smooth="yes"/>
      <point x="482" y="472"/>
      <point x="427" y="540"/>
      <point x="267" y="540" type="curve" smooth="yes"/>
      <point x="132" y="540" type="line"/>
      <point x="132" y="680" type="line"/>
      <point x="130" y="680" type="line"/>
      <point x="130" y="0" type="line"/>
      <point x="132" y="0" type="line"/>
      <point x="132" y="194" type="line"/>
      <point x="312" y="194" type="line"/>
      <point x="503" y="-140" type="line"/>
    </contour>
    <contour>
      <point x="132" y="538" type="line"/>
      <point x="267" y="538" type="line" smooth="yes"/>
      <point x="426" y="538"/>
      <point x="480" y="471"/>
      <point x="480" y="366" type="curve" smooth="yes"/>
      <point x="480" y="243"/>
      <point x="392" y="196"/>
      <point x="306" y="196" type="curve" smooth="yes"/>
      <point x="132" y="196" type="line"/>
    </contour>
    <contour>
      <point x="281" y="680" type="move" name="top"/>
    </contour>
    <contour>
      <point x="281" y="-188" type="move" name="bottom"/>
    </contour>
  </outline>
</glyph>
<glyph name="uni01AA" format="1">
  <advance width="256"/>
  <unicode hex="01AA"/>
  <outline>
    <contour>
      <point x="211" y="-192" type="curve" smooth="yes"/>
      <point x="249" y="-192"/>
      <point x="272" y="-179"/>
      <point x="290" y="-164" type="curve"/>
      <point x="289" y="-162" type="line"/>
      <point x="270" y="-178"/>
      <point x="248" y="-190"/>
      <point x="211" y="-190" type="curve" smooth="yes"/>
      <point x="162" y="-190"/>
      <point x="129" y="-158"/>
      <point x="129" y="-97" type="curve" smooth="yes"/>
      <point x="129" y="646" type="line" smooth="yes"/>
      <point x="129" y="700"/>
      <point x="100" y="733"/>
      <point x="53" y="733" type="curve" smooth="yes"/>
      <point x="1" y="733"/>
      <point x="-34" y="689"/>
      <point x="-34" y="626" type="curve" smooth="yes"/>
      <point x="-34" y="559"/>
      <point x="0" y="526"/>
      <point x="50" y="526" type="curve" smooth="yes"/>
      <point x="83" y="526"/>
      <point x="110" y="539"/>
      <point x="127" y="553" type="curve"/>
      <point x="127" y="-97" type="line" smooth="yes"/>
      <point x="127" y="-159"/>
      <point x="161" y="-192"/>
    </contour>
    <contour>
      <point x="50" y="528" type="curve" smooth="yes"/>
      <point x="1" y="528"/>
      <point x="-32" y="560"/>
      <point x="-32" y="626" type="curve" smooth="yes"/>
      <point x="-32" y="688"/>
      <point x="2" y="731"/>
      <point x="53" y="731" type="curve" smooth="yes"/>
      <point x="99" y="731"/>
      <point x="127" y="699"/>
      <point x="127" y="646" type="curve" smooth="yes"/>
      <point x="127" y="555" type="line"/>
      <point x="108" y="540"/>
      <point x="82" y="528"/>
    </contour>
    <contour>
      <point x="128" y="727" type="move" name="top"/>
    </contour>
    <contour>
      <point x="128" y="-188" type="move" name="bottom"/>
    </contour>
  </outline>
</glyph>
<glyph name="uni01F7" format="1">
  <advance width="552"/>
  <unicode hex="01F7"/>
  <outline>
    <contour>
      <point x="132" y="0" type="line"/>
      <point x="132" y="231" type="line"/>
      <point x="249" y="271" type="line" smooth="yes"/>
      <point x="388" y="318"/>
      <point x="487" y="376"/>
      <point x="487" y="515" type="curve" smooth="yes"/>
      <point x="487" y="622"/>
      <point x="418" y="690"/>
      <point x="317" y="690" type="curve" smooth="yes"/>
      <point x="229" y="690"/>
      <point x="173" y="647"/>
      <point x="132" y="601" type="curve"/>
      <point x="132" y="680" type="line"/>
      <point x="130" y="680" type="line"/>
      <point x="130" y="0" type="line"/>
    </contour>
    <contour>
      <point x="132" y="598" type="line"/>
      <point x="175" y="646"/>
      <point x="230" y="688"/>
      <point x="317" y="688" type="curve" smooth="yes"/>
      <point x="417" y="688"/>
      <point x="485" y="621"/>
      <point x="485" y="515" type="curve" smooth="yes"/>
      <point x="485" y="377"/>
      <point x="386" y="319"/>
      <point x="249" y="273" type="curve" smooth="yes"/>
      <point x="132" y="233" type="line"/>
    </contour>
    <contour>
      <point x="276" y="680" type="move" name="top"/>
    </contour>
    <contour>
      <point x="276" y="0" type="move" name="bottom"/>
    </contour>
  </outline>
</glyph>
<glyph name="uni0220" format="1">
  <advance width="640"/>
  <unicode hex="0220"/>
  <outline>
    <contour>
      <point x="515" y="-188" type="line"/>
      <point x="515" y="511" type="line" smooth="yes"/>
      <point x="515" y="630"/>
      <point x="456" y="690"/>
      <point x="361" y="690" type="curve" smooth="yes"/>
      <point x="263" y="690"/>
      <point x="200" y="639"/>
      <point x="132" y="553" type="curve"/>
      <point x="132" y="680" type="line"/>
      <point x="130" y="680" type="line"/>
      <point x="130" y="0" type="line"/>
      <point x="132" y="0" type="line"/>
      <point x="132" y="550" type="line"/>
      <point x="200" y="636"/>
      <point x="264" y="688"/>
      <point x="361" y="688" type="curve" smooth="yes"/>
      <point x="455" y="688"/>
      <point x="513" y="629"/>
      <point x="513" y="511" type="curve" smooth="yes"/>
      <point x="513" y="-188" type="line"/>
    </contour>
    <contour>
      <point x="320" y="680" type="move" name="top"/>
    </contour>
    <contour>
      <point x="320" y="-188" type="move" name="bottom"/>
    </contour>
  </outline>
</glyph>
<glyph name="uni0222" format="1">
  <advance width="627"/>
  <unicode hex="0222"/>
  <outline>
    <contour>
      <point x="313" y="-9" type="curve" smooth="yes"/>
      <point x="460" y="-9"/>
      <point x="542" y="85"/>
      <point x="542" y="189" type="curve" smooth="yes"/>
      <point x="542" y="291"/>
      <point x="469" y="375"/>
      <point x="340" y="385" type="curve"/>
      <point x="458" y="395"/>
      <point x="491" y="472"/>
      <point x="491" y="559" type="curve" smooth="yes"/>
      <point x="491" y="680" type="line"/>
      <point x="489" y="680" type="line"/>
      <point x="489" y="559" type="line" smooth="yes"/>
      <point x="489" y="469"/>
      <point x="452" y="386"/>
      <point x="314" y="386" type="curve" smooth="yes"/>
      <point x="175" y="386"/>
      <point x="139" y="467"/>
      <point x="139" y="559" type="curve" smooth="yes"/>
      <point x="139" y="680" type="line"/>
      <point x="137" y="680" type="line"/>
      <point x="137" y="559" type="line" smooth="yes"/>
      <point x="137" y="474"/>
      <point x="169" y="395"/>
      <point x="288" y="385" type="curve"/>
      <point x="163" y="375"/>
      <point x="85" y="286"/>
      <point x="85" y="185" type="curve" smooth="yes"/>
      <point x="85" y="84"/>
      <point x="169" y="-9"/>
    </contour>
    <contour>
      <point x="313" y="-7" type="curve" smooth="yes"/>
      <point x="170" y="-7"/>
      <point x="87" y="86"/>
      <point x="87" y="185" type="curve" smooth="yes"/>
      <point x="87" y="290"/>
      <point x="174" y="384"/>
      <point x="313" y="384" type="curve" smooth="yes"/>
      <point x="458" y="384"/>
      <point x="540" y="296"/>
      <point x="540" y="189" type="curve" smooth="yes"/>
      <point x="540" y="87"/>
      <point x="459" y="-7"/>
    </contour>
    <contour>
      <point x="314" y="680" type="move" name="top"/>
    </contour>
    <contour>
      <point x="314" y="0" type="move" name="bottom"/>
    </contour>
  </outline>
</glyph>
<glyph name="uni0223" format="1">
  <advance width="551"/>
  <unicode hex="0223"/>
  <outline>
    <contour>
      <point x="298" y="411" type="curve"/>
      <point x="397" y="420"/>
      <point x="432" y="489"/>
      <point x="432" y="585" type="curve" smooth="yes"/>
      <point x="432" y="727" type="line"/>
      <point x="430" y="727" type="line"/>
      <point x="430" y="585" type="line" smooth="yes"/>
      <point x="430" y="483"/>
      <point x="391" y="412"/>
      <point x="276" y="412" type="curve" smooth="yes"/>
      <point x="160" y="412"/>
      <point x="122" y="483"/>
      <point x="122" y="585" type="curve" smooth="yes"/>
      <point x="122" y="727" type="line"/>
      <point x="120" y="727" type="line"/>
      <point x="120" y="585" type="line" smooth="yes"/>
      <point x="120" y="489"/>
      <point x="153" y="420"/>
      <point x="253" y="411" type="curve"/>
      <point x="149" y="400"/>
      <point x="80" y="313"/>
      <point x="80" y="198" type="curve" smooth="yes"/>
      <point x="80" y="87"/>
      <point x="154" y="-9"/>
      <point x="275" y="-9" type="curve" smooth="yes"/>
      <point x="399" y="-9"/>
      <point x="471" y="88"/>
      <point x="471" y="202" type="curve" smooth="yes"/>
      <point x="471" y="319"/>
      <point x="407" y="401"/>
    </contour>
    <contour>
      <point x="275" y="-7" type="curve" smooth="yes"/>
      <point x="155" y="-7"/>
      <point x="82" y="89"/>
      <point x="82" y="198" type="curve" smooth="yes"/>
      <point x="82" y="319"/>
      <point x="159" y="410"/>
      <point x="275" y="410" type="curve" smooth="yes"/>
      <point x="397" y="410"/>
      <point x="469" y="325"/>
      <point x="469" y="202" type="curve" smooth="yes"/>
      <point x="469" y="90"/>
      <point x="398" y="-7"/>
    </contour>
    <contour>
      <point x="276" y="727" type="move" name="top"/>
    </contour>
    <contour>
      <point x="276" y="0" type="move" name="bottom"/>
    </contour>
  </outline>
</glyph>
<glyph name="uni0238" format="1">
  <advance width="847"/>
  <unicode hex="0238"/>
  <outline>
    <contour>
      <point x="263" y="-9" type="curve" smooth="yes"/>
      <point x="343" y="-9"/>
      <point x="390" y="38"/>
      <point x="425" y="100" type="curve"/>
      <point x="425" y="0" type="line"/>
      <point x="427" y="0" type="line"/>
      <point x="427" y="100" type="line"/>
      <point x="467" y="35"/>
      <point x="521" y="-9"/>
      <point x="590" y="-9" type="curve" smooth="yes"/>
      <point x="700" y="-9"/>
      <point x="762" y="95"/>
      <point x="762" y="264" type="curve" smooth="yes"/>
      <point x="762" y="431"/>
      <point x="700" y="527"/>
      <point x="592" y="527" type="curve" smooth="yes"/>
      <point x="519" y="527"/>
      <point x="456" y="472"/>
      <point x="427" y="422" type="curve"/>
      <point x="427" y="730" type="line"/>
      <point x="425" y="730" type="line"/>
      <point x="425" y="422" type="line"/>
      <point x="398" y="473"/>
      <point x="344" y="527"/>
      <point x="271" y="527" type="curve" smooth="yes"/>
      <point x="156" y="527"/>
      <point x="85" y="417"/>
      <point x="85" y="257" type="curve" smooth="yes"/>
      <point x="85" y="87"/>
      <point x="159" y="-9"/>
    </contour>
    <contour>
      <point x="263" y="-7" type="curve" smooth="yes"/>
      <point x="160" y="-7"/>
      <point x="87" y="89"/>
      <point x="87" y="257" type="curve" smooth="yes"/>
      <point x="87" y="415"/>
      <point x="158" y="525"/>
      <point x="271" y="525" type="curve" smooth="yes"/>
      <point x="343" y="525"/>
      <point x="396" y="472"/>
      <point x="425" y="419" type="curve"/>
      <point x="425" y="104" type="line"/>
      <point x="390" y="41"/>
      <point x="343" y="-7"/>
    </contour>
    <contour>
      <point x="590" y="-7" type="curve" smooth="yes"/>
      <point x="522" y="-7"/>
      <point x="467" y="37"/>
      <point x="427" y="104" type="curve"/>
      <point x="427" y="419" type="line"/>
      <point x="459" y="473"/>
      <point x="521" y="525"/>
      <point x="592" y="525" type="curve" smooth="yes"/>
      <point x="700" y="525"/>
      <point x="760" y="429"/>
      <point x="760" y="264" type="curve" smooth="yes"/>
      <point x="760" y="97"/>
      <point x="699" y="-7"/>
    </contour>
    <contour>
      <point x="424" y="727" type="move" name="top"/>
    </contour>
    <contour>
      <point x="424" y="0" type="move" name="bottom"/>
    </contour>
  </outline>
</glyph>
<glyph name="uni0239" format="1">
  <advance width="842"/>
  <unicode hex="0239"/>
  <outline>
    <contour>
      <point x="590" y="527" type="curve" smooth="yes"/>
      <point x="518" y="527"/>
      <point x="465" y="482"/>
      <point x="422" y="421" type="curve"/>
      <point x="422" y="517" type="line"/>
      <point x="420" y="517" type="line"/>
      <point x="420" y="423" type="line"/>
      <point x="386" y="482"/>
      <point x="344" y="527"/>
      <point x="268" y="527" type="curve" smooth="yes"/>
      <point x="151" y="527"/>
      <point x="80" y="417"/>
      <point x="80" y="257" type="curve" smooth="yes"/>
      <point x="80" y="88"/>
      <point x="154" y="-9"/>
      <point x="257" y="-9" type="curve" smooth="yes"/>
      <point x="339" y="-9"/>
      <point x="387" y="40"/>
      <point x="420" y="100" type="curve"/>
      <point x="420" y="-190" type="line"/>
      <point x="422" y="-190" type="line"/>
      <point x="422" y="100" type="line"/>
      <point x="462" y="35"/>
      <point x="518" y="-9"/>
      <point x="587" y="-9" type="curve" smooth="yes"/>
      <point x="695" y="-9"/>
      <point x="757" y="95"/>
      <point x="757" y="264" type="curve" smooth="yes"/>
      <point x="757" y="431"/>
      <point x="695" y="527"/>
    </contour>
    <contour>
      <point x="257" y="-7" type="curve" smooth="yes"/>
      <point x="155" y="-7"/>
      <point x="82" y="89"/>
      <point x="82" y="257" type="curve" smooth="yes"/>
      <point x="82" y="415"/>
      <point x="153" y="525"/>
      <point x="268" y="525" type="curve" smooth="yes"/>
      <point x="343" y="525"/>
      <point x="385" y="481"/>
      <point x="420" y="419" type="curve"/>
      <point x="420" y="104" type="line"/>
      <point x="385" y="41"/>
      <point x="338" y="-7"/>
    </contour>
    <contour>
      <point x="587" y="-7" type="curve" smooth="yes"/>
      <point x="519" y="-7"/>
      <point x="463" y="36"/>
      <point x="422" y="104" type="curve"/>
      <point x="422" y="418" type="line"/>
      <point x="468" y="483"/>
      <point x="520" y="525"/>
      <point x="590" y="525" type="curve" smooth="yes"/>
      <point x="695" y="525"/>
      <point x="755" y="429"/>
      <point x="755" y="264" type="curve" smooth="yes"/>
      <point x="755" y="97"/>
      <point x="694" y="-7"/>
    </contour>
    <contour>
      <point x="421" y="517" type="move" name="top"/>
    </contour>
    <contour>
      <point x="421" y="-188" type="move" name="bottom"/>
    </contour>
  </outline>
</glyph>
<glyph name="uni023A" format="1">
  <advance width="556"/>
  <unicode hex="023A"/>
  <outline>
    <contour>
      <point x="179" y="-57" type="line"/>
      <point x="250" y="213" type="line"/>
      <point x="443" y="213" type="line"/>
      <point x="519" y="0" type="line"/>
      <point x="521" y="0" type="line"/>
      <point x="332" y="528" type="line"/>
      <point x="385" y="728" type="line"/>
      <point x="383" y="728" type="line"/>
      <point x="331" y="531" type="line"/>
      <point x="278" y="680" type="line"/>
      <point x="276" y="680" type="line"/>
      <point x="35" y="0" type="line"/>
      <point x="37" y="0" type="line"/>
      <point x="112" y="213" type="line"/>
      <point x="248" y="213" type="line"/>
      <point x="177" y="-57" type="line"/>
    </contour>
    <contour>
      <point x="277" y="678" type="line"/>
      <point x="331" y="528" type="line"/>
      <point x="248" y="215" type="line"/>
      <point x="113" y="215" type="line"/>
    </contour>
    <contour>
      <point x="332" y="525" type="line"/>
      <point x="442" y="215" type="line"/>
      <point x="250" y="215" type="line"/>
    </contour>
    <contour>
      <point x="278" y="680" type="move" name="top"/>
    </contour>
    <contour>
      <point x="278" y="0" type="move" name="bottom"/>
    </contour>
  </outline>
</glyph>
<glyph name="uni023B" format="1">
  <advance width="529"/>
  <unicode hex="023B"/>
  <outline>
    <contour>
      <point x="502" y="52" type="line"/>
      <point x="470" y="25"/>
      <point x="422" y="-7"/>
      <point x="341" y="-7" type="curve" smooth="yes"/>
      <point x="300" y="-7"/>
      <point x="262" y="2"/>
      <point x="229" y="20" type="curve"/>
      <point x="403" y="681" type="line"/>
      <point x="441" y="671"/>
      <point x="469" y="652"/>
      <point x="493" y="631" type="curve"/>
      <point x="494" y="633" type="line"/>
      <point x="470" y="654"/>
      <point x="442" y="673"/>
      <point x="403" y="683" type="curve"/>
      <point x="415" y="728" type="line"/>
      <point x="413" y="728" type="line"/>
      <point x="401" y="683" type="line"/>
      <point x="384" y="688"/>
      <point x="364" y="690"/>
      <point x="342" y="690" type="curve" smooth="yes"/>
      <point x="191" y="690"/>
      <point x="85" y="577"/>
      <point x="85" y="339" type="curve" smooth="yes"/>
      <point x="85" y="176"/>
      <point x="139" y="67"/>
      <point x="227" y="19" type="curve"/>
      <point x="207" y="-57" type="line"/>
      <point x="209" y="-57" type="line"/>
      <point x="229" y="18" type="line"/>
      <point x="262" y="0"/>
      <point x="300" y="-9"/>
      <point x="341" y="-9" type="curve" smooth="yes"/>
      <point x="423" y="-9"/>
      <point x="471" y="23"/>
      <point x="503" y="50" type="curve"/>
    </contour>
    <contour>
      <point x="87" y="339" type="curve" smooth="yes"/>
      <point x="87" y="575"/>
      <point x="193" y="688"/>
      <point x="342" y="688" type="curve" smooth="yes"/>
      <point x="364" y="688"/>
      <point x="384" y="686"/>
      <point x="401" y="681" type="curve"/>
      <point x="227" y="21" type="line"/>
      <point x="141" y="69"/>
      <point x="87" y="177"/>
    </contour>
    <contour>
      <point x="323" y="341" type="move" name="center"/>
    </contour>
    <contour>
      <point x="265" y="0" type="move" name="bottom"/>
    </contour>
    <contour>
      <point x="265" y="680" type="move" name="top"/>
    </contour>
  </outline>
</glyph>
<glyph name="uni0243" format="1">
  <advance width="575"/>
  <unicode hex="0243"/>
  <outline>
    <contour>
      <point x="281" y="0" type="line" smooth="yes"/>
      <point x="411" y="0"/>
      <point x="510" y="46"/>
      <point x="510" y="183" type="curve" smooth="yes"/>
      <point x="510" y="294"/>
      <point x="426" y="355"/>
      <point x="330" y="360" type="curve"/>
      <point x="408" y="370"/>
      <point x="472" y="428"/>
      <point x="472" y="513" type="curve" smooth="yes"/>
      <point x="472" y="619"/>
      <point x="397" y="680"/>
      <point x="258" y="680" type="curve" smooth="yes"/>
      <point x="124" y="680" type="line"/>
      <point x="124" y="194" type="line"/>
      <point x="30" y="194" type="line"/>
      <point x="30" y="192" type="line"/>
      <point x="124" y="192" type="line"/>
      <point x="124" y="0" type="line"/>
    </contour>
    <contour>
      <point x="126" y="192" type="line"/>
      <point x="322" y="192" type="line"/>
      <point x="322" y="194" type="line"/>
      <point x="126" y="194" type="line"/>
      <point x="126" y="359" type="line"/>
      <point x="311" y="359" type="line" smooth="yes"/>
      <point x="424" y="359"/>
      <point x="508" y="292"/>
      <point x="508" y="183" type="curve" smooth="yes"/>
      <point x="508" y="46"/>
      <point x="409" y="2"/>
      <point x="282" y="2" type="curve" smooth="yes"/>
      <point x="126" y="2" type="line"/>
    </contour>
    <contour>
      <point x="126" y="678" type="line"/>
      <point x="259" y="678" type="line" smooth="yes"/>
      <point x="397" y="678"/>
      <point x="470" y="617"/>
      <point x="470" y="513" type="curve" smooth="yes"/>
      <point x="470" y="429"/>
      <point x="402" y="361"/>
      <point x="306" y="361" type="curve" smooth="yes"/>
      <point x="126" y="361" type="line"/>
    </contour>
    <contour>
      <point x="275" y="680" type="move" name="top"/>
    </contour>
    <contour>
      <point x="304" y="0" type="move" name="bottom"/>
    </contour>
  </outline>
</glyph>
<glyph name="uni0244" format="1">
  <advance width="670"/>
  <unicode hex="0244"/>
  <outline>
    <contour>
      <point x="335" y="-9" type="curve" smooth="yes"/>
      <point x="479" y="-9"/>
      <point x="532" y="83"/>
      <point x="532" y="206" type="curve" smooth="yes"/>
      <point x="532" y="526" type="line"/>
      <point x="585" y="526" type="line"/>
      <point x="585" y="528" type="line"/>
      <point x="532" y="528" type="line"/>
      <point x="532" y="680" type="line"/>
      <point x="530" y="680" type="line"/>
      <point x="530" y="528" type="line"/>
      <point x="140" y="528" type="line"/>
      <point x="140" y="680" type="line"/>
      <point x="138" y="680" type="line"/>
      <point x="138" y="528" type="line"/>
      <point x="85" y="528" type="line"/>
      <point x="85" y="526" type="line"/>
      <point x="138" y="526" type="line"/>
      <point x="138" y="206" type="line" smooth="yes"/>
      <point x="138" y="83"/>
      <point x="189" y="-9"/>
    </contour>
    <contour>
      <point x="335" y="-7" type="curve" smooth="yes"/>
      <point x="191" y="-7"/>
      <point x="140" y="84"/>
      <point x="140" y="206" type="curve" smooth="yes"/>
      <point x="140" y="526" type="line"/>
      <point x="530" y="526" type="line"/>
      <point x="530" y="206" type="line" smooth="yes"/>
      <point x="530" y="84"/>
      <point x="478" y="-7"/>
    </contour>
    <contour>
      <point x="415" y="0" type="move" name="ogonek"/>
    </contour>
    <contour>
      <point x="335" y="680" type="move" name="top"/>
    </contour>
    <contour>
      <point x="542" y="680" type="move" name="topright"/>
    </contour>
    <contour>
      <point x="335" y="0" type="move" name="bottom"/>
    </contour>
  </outline>
</glyph>
<glyph name="uni024A" format="1">
  <advance width="639"/>
  <unicode hex="024A"/>
  <outline>
    <contour>
      <point x="669" y="-162" type="line"/>
      <point x="650" y="-178"/>
      <point x="628" y="-190"/>
      <point x="591" y="-190" type="curve" smooth="yes"/>
      <point x="542" y="-190"/>
      <point x="509" y="-158"/>
      <point x="509" y="-97" type="curve" smooth="yes"/>
      <point x="509" y="680" type="line"/>
      <point x="507" y="680" type="line"/>
      <point x="507" y="601" type="line"/>
      <point x="472" y="650"/>
      <point x="413" y="690"/>
      <point x="331" y="690" type="curve" smooth="yes"/>
      <point x="188" y="690"/>
      <point x="85" y="557"/>
      <point x="85" y="328" type="curve" smooth="yes"/>
      <point x="85" y="112"/>
      <point x="184" y="-9"/>
      <point x="323" y="-9" type="curve" smooth="yes"/>
      <point x="406" y="-9"/>
      <point x="465" y="27"/>
      <point x="507" y="95" type="curve"/>
      <point x="507" y="-97" type="line" smooth="yes"/>
      <point x="507" y="-159"/>
      <point x="541" y="-192"/>
      <point x="591" y="-192" type="curve" smooth="yes"/>
      <point x="629" y="-192"/>
      <point x="652" y="-179"/>
      <point x="670" y="-164" type="curve"/>
    </contour>
    <contour>
      <point x="323" y="-7" type="curve" smooth="yes"/>
      <point x="185" y="-7"/>
      <point x="87" y="114"/>
      <point x="87" y="328" type="curve" smooth="yes"/>
      <point x="87" y="555"/>
      <point x="189" y="688"/>
      <point x="331" y="688" type="curve" smooth="yes"/>
      <point x="413" y="688"/>
      <point x="471" y="648"/>
      <point x="507" y="598" type="curve"/>
      <point x="507" y="98" type="line"/>
      <point x="464" y="29"/>
      <point x="406" y="-7"/>
    </contour>
    <contour>
      <point x="320" y="680" type="move" name="top"/>
    </contour>
    <contour>
      <point x="320" y="-188" type="move" name="bottom"/>
    </contour>
  </outline>
</glyph>
<glyph name="uni024B" format="1">
  <advance width="567"/>
  <unicode hex="024B"/>
  <outline>
    <contour>
      <point x="499" y="-192" type="curve" smooth="yes"/>
      <point x="514" y="-192"/>
      <point x="528" y="-189"/>
      <point x="540" y="-184" type="curve"/>
      <point x="540" y="-182" type="line"/>
      <point x="528" y="-187"/>
      <point x="514" y="-190"/>
      <point x="499" y="-190" type="curve" smooth="yes"/>
      <point x="460" y="-190"/>
      <point x="442" y="-162"/>
      <point x="442" y="-119" type="curve" smooth="yes"/>
      <point x="442" y="517" type="line"/>
      <point x="440" y="517" type="line"/>
      <point x="440" y="425" type="line"/>
      <point x="415" y="473"/>
      <point x="362" y="527"/>
      <point x="276" y="527" type="curve" smooth="yes"/>
      <point x="151" y="527"/>
      <point x="80" y="417"/>
      <point x="80" y="257" type="curve" smooth="yes"/>
      <point x="80" y="87"/>
      <point x="154" y="-9"/>
      <point x="267" y="-9" type="curve" smooth="yes"/>
      <point x="358" y="-9"/>
      <point x="405" y="39"/>
      <point x="440" y="100" type="curve"/>
      <point x="440" y="-119" type="line" smooth="yes"/>
      <point x="440" y="-164"/>
      <point x="459" y="-192"/>
    </contour>
    <contour>
      <point x="267" y="-7" type="curve" smooth="yes"/>
      <point x="155" y="-7"/>
      <point x="82" y="89"/>
      <point x="82" y="257" type="curve" smooth="yes"/>
      <point x="82" y="415"/>
      <point x="153" y="525"/>
      <point x="276" y="525" type="curve" smooth="yes"/>
      <point x="361" y="525"/>
      <point x="414" y="472"/>
      <point x="440" y="421" type="curve"/>
      <point x="440" y="104" type="line"/>
      <point x="405" y="41"/>
      <point x="358" y="-7"/>
    </contour>
    <contour>
      <point x="284" y="517" type="move" name="top"/>
    </contour>
    <contour>
      <point x="284" y="-188" type="move" name="bottom"/>
    </contour>
  </outline>
</glyph>
<glyph name="uni024C" format="1">
  <advance width="555"/>
  <unicode hex="024C"/>
  <outline>
    <contour>
      <point x="126" y="0" type="line"/>
      <point x="126" y="334" type="line"/>
      <point x="306" y="334" type="line"/>
      <point x="497" y="0" type="line"/>
      <point x="500" y="0" type="line"/>
      <point x="308" y="334" type="line"/>
      <point x="388" y="337"/>
      <point x="476" y="383"/>
      <point x="476" y="506" type="curve" smooth="yes"/>
      <point x="476" y="612"/>
      <point x="421" y="680"/>
      <point x="261" y="680" type="curve" smooth="yes"/>
      <point x="124" y="680" type="line"/>
      <point x="124" y="336" type="line"/>
      <point x="30" y="336" type="line"/>
      <point x="30" y="334" type="line"/>
      <point x="124" y="334" type="line"/>
      <point x="124" y="0" type="line"/>
    </contour>
    <contour>
      <point x="126" y="678" type="line"/>
      <point x="261" y="678" type="line" smooth="yes"/>
      <point x="420" y="678"/>
      <point x="474" y="611"/>
      <point x="474" y="506" type="curve" smooth="yes"/>
      <point x="474" y="383"/>
      <point x="386" y="336"/>
      <point x="300" y="336" type="curve" smooth="yes"/>
      <point x="126" y="336" type="line"/>
    </contour>
    <contour>
      <point x="275" y="680" type="move" name="top"/>
    </contour>
    <contour>
      <point x="295" y="0" type="move" name="bottom"/>
    </contour>
  </outline>
</glyph>
<glyph name="uni024F" format="1">
  <advance width="424"/>
  <unicode hex="024F"/>
  <outline>
    <contour>
      <point x="399" y="380" type="line"/>
      <point x="399" y="382" type="line"/>
      <point x="353" y="382" type="line"/>
      <point x="76" y="382" type="line"/>
      <point x="29" y="382" type="line"/>
      <point x="29" y="380" type="line"/>
    </contour>
    <contour>
      <point x="397" y="517" type="line"/>
      <point x="219" y="0" type="line"/>
      <point x="27" y="517" type="line"/>
      <point x="25" y="517" type="line"/>
      <point x="217" y="0" type="line"/>
      <point x="219" y="0" type="line"/>
      <point x="180" y="-112"/>
      <point x="158" y="-157"/>
      <point x="56" y="-187" type="curve"/>
      <point x="56" y="-189" type="line"/>
      <point x="160" y="-159"/>
      <point x="182" y="-112"/>
      <point x="221" y="0" type="curve" smooth="yes"/>
      <point x="399" y="517" type="line"/>
    </contour>
    <contour>
      <point x="212" y="517" type="move" name="top"/>
    </contour>
    <contour>
      <point x="221" y="-188" type="move" name="bottom"/>
    </contour>
  </outline>
</glyph>
<glyph name="uni0251" format="1">
  <advance width="572"/>
  <unicode hex="0251"/>
  <outline>
    <contour>
      <point x="269" y="-9" type="curve" smooth="yes"/>
      <point x="356" y="-9"/>
      <point x="405" y="39"/>
      <point x="440" y="100" type="curve"/>
      <point x="440" y="39"/>
      <point x="449" y="17"/>
      <point x="496" y="-4" type="curve"/>
      <point x="497" y="-2" type="line"/>
      <point x="453" y="16"/>
      <point x="442" y="40"/>
      <point x="442" y="96" type="curve" smooth="yes"/>
      <point x="442" y="517" type="line"/>
      <point x="440" y="517" type="line"/>
      <point x="440" y="424" type="line"/>
      <point x="416" y="473"/>
      <point x="362" y="527"/>
      <point x="278" y="527" type="curve" smooth="yes"/>
      <point x="156" y="527"/>
      <point x="80" y="417"/>
      <point x="80" y="257" type="curve" smooth="yes"/>
      <point x="80" y="87"/>
      <point x="152" y="-9"/>
    </contour>
    <contour>
      <point x="269" y="-7" type="curve" smooth="yes"/>
      <point x="153" y="-7"/>
      <point x="82" y="89"/>
      <point x="82" y="257" type="curve" smooth="yes"/>
      <point x="82" y="415"/>
      <point x="158" y="525"/>
      <point x="278" y="525" type="curve" smooth="yes"/>
      <point x="361" y="525"/>
      <point x="414" y="472"/>
      <point x="440" y="421" type="curve"/>
      <point x="440" y="104" type="line"/>
      <point x="405" y="41"/>
      <point x="356" y="-7"/>
    </contour>
    <contour>
      <point x="286" y="517" type="move" name="top"/>
    </contour>
    <contour>
      <point x="286" y="0" type="move" name="bottom"/>
    </contour>
  </outline>
</glyph>
<glyph name="uni0253" format="1">
  <advance width="567"/>
  <unicode hex="0253"/>
  <outline>
    <contour>
      <point x="302" y="-9" type="curve" smooth="yes"/>
      <point x="420" y="-9"/>
      <point x="482" y="95"/>
      <point x="482" y="264" type="curve" smooth="yes"/>
      <point x="482" y="431"/>
      <point x="420" y="527"/>
      <point x="306" y="527" type="curve" smooth="yes"/>
      <point x="223" y="527"/>
      <point x="170" y="482"/>
      <point x="127" y="421" type="curve"/>
      <point x="127" y="618" type="line" smooth="yes"/>
      <point x="127" y="693"/>
      <point x="173" y="731"/>
      <point x="236" y="731" type="curve" smooth="yes"/>
      <point x="280" y="731"/>
      <point x="316" y="717"/>
      <point x="346" y="698" type="curve"/>
      <point x="347" y="700" type="line"/>
      <point x="317" y="719"/>
      <point x="280" y="733"/>
      <point x="236" y="733" type="curve" smooth="yes"/>
      <point x="172" y="733"/>
      <point x="125" y="694"/>
      <point x="125" y="618" type="curve" smooth="yes"/>
      <point x="125" y="0" type="line"/>
      <point x="127" y="0" type="line"/>
      <point x="127" y="98" type="line"/>
      <point x="167" y="35"/>
      <point x="223" y="-9"/>
    </contour>
    <contour>
      <point x="302" y="-7" type="curve" smooth="yes"/>
      <point x="224" y="-7"/>
      <point x="169" y="36"/>
      <point x="127" y="101" type="curve"/>
      <point x="127" y="418" type="line"/>
      <point x="173" y="483"/>
      <point x="225" y="525"/>
      <point x="306" y="525" type="curve" smooth="yes"/>
      <point x="420" y="525"/>
      <point x="480" y="429"/>
      <point x="480" y="264" type="curve" smooth="yes"/>
      <point x="480" y="97"/>
      <point x="419" y="-7"/>
    </contour>
    <contour>
      <point x="284" y="727" type="move" name="top"/>
    </contour>
    <contour>
      <point x="284" y="0" type="move" name="bottom"/>
    </contour>
  </outline>
</glyph>
<glyph name="uni0256" format="1">
  <advance width="572"/>
  <unicode hex="0256"/>
  <outline>
    <contour>
      <point x="529" y="-192" type="curve" smooth="yes"/>
      <point x="567" y="-192"/>
      <point x="590" y="-179"/>
      <point x="608" y="-164" type="curve"/>
      <point x="607" y="-162" type="line"/>
      <point x="588" y="-178"/>
      <point x="566" y="-190"/>
      <point x="529" y="-190" type="curve" smooth="yes"/>
      <point x="480" y="-190"/>
      <point x="447" y="-158"/>
      <point x="447" y="-97" type="curve" smooth="yes"/>
      <point x="447" y="730" type="line"/>
      <point x="445" y="730" type="line"/>
      <point x="445" y="424" type="line"/>
      <point x="421" y="473"/>
      <point x="367" y="527"/>
      <point x="281" y="527" type="curve" smooth="yes"/>
      <point x="156" y="527"/>
      <point x="85" y="417"/>
      <point x="85" y="257" type="curve" smooth="yes"/>
      <point x="85" y="87"/>
      <point x="159" y="-9"/>
      <point x="273" y="-9" type="curve" smooth="yes"/>
      <point x="363" y="-9"/>
      <point x="410" y="39"/>
      <point x="445" y="100" type="curve"/>
      <point x="445" y="-97" type="line" smooth="yes"/>
      <point x="445" y="-159"/>
      <point x="479" y="-192"/>
    </contour>
    <contour>
      <point x="273" y="-7" type="curve" smooth="yes"/>
      <point x="160" y="-7"/>
      <point x="87" y="89"/>
      <point x="87" y="257" type="curve" smooth="yes"/>
      <point x="87" y="415"/>
      <point x="158" y="525"/>
      <point x="281" y="525" type="curve" smooth="yes"/>
      <point x="366" y="525"/>
      <point x="419" y="472"/>
      <point x="445" y="421" type="curve"/>
      <point x="445" y="104" type="line"/>
      <point x="410" y="41"/>
      <point x="363" y="-7"/>
    </contour>
    <contour>
      <point x="445" y="727" type="move" name="top"/>
    </contour>
    <contour>
      <point x="286" y="-188" type="move" name="bottom"/>
    </contour>
  </outline>
</glyph>
<glyph name="uni0257" format="1">
  <advance width="572"/>
  <unicode hex="0257"/>
  <outline>
    <contour>
      <point x="273" y="-9" type="curve" smooth="yes"/>
      <point x="363" y="-9"/>
      <point x="410" y="39"/>
      <point x="445" y="100" type="curve"/>
      <point x="445" y="0" type="line"/>
      <point x="447" y="0" type="line"/>
      <point x="447" y="638" type="line" smooth="yes"/>
      <point x="447" y="699"/>
      <point x="480" y="731"/>
      <point x="529" y="731" type="curve" smooth="yes"/>
      <point x="566" y="731"/>
      <point x="588" y="719"/>
      <point x="607" y="703" type="curve"/>
      <point x="608" y="705" type="line"/>
      <point x="590" y="720"/>
      <point x="567" y="733"/>
      <point x="529" y="733" type="curve" smooth="yes"/>
      <point x="479" y="733"/>
      <point x="445" y="700"/>
      <point x="445" y="638" type="curve" smooth="yes"/>
      <point x="445" y="424" type="line"/>
      <point x="421" y="473"/>
      <point x="367" y="527"/>
      <point x="281" y="527" type="curve" smooth="yes"/>
      <point x="156" y="527"/>
      <point x="85" y="417"/>
      <point x="85" y="257" type="curve" smooth="yes"/>
      <point x="85" y="87"/>
      <point x="159" y="-9"/>
    </contour>
    <contour>
      <point x="273" y="-7" type="curve" smooth="yes"/>
      <point x="160" y="-7"/>
      <point x="87" y="89"/>
      <point x="87" y="257" type="curve" smooth="yes"/>
      <point x="87" y="415"/>
      <point x="158" y="525"/>
      <point x="281" y="525" type="curve" smooth="yes"/>
      <point x="366" y="525"/>
      <point x="419" y="472"/>
      <point x="445" y="421" type="curve"/>
      <point x="445" y="104" type="line"/>
      <point x="410" y="41"/>
      <point x="363" y="-7"/>
    </contour>
    <contour>
      <point x="286" y="727" type="move" name="top"/>
    </contour>
    <contour>
      <point x="286" y="0" type="move" name="bottom"/>
    </contour>
  </outline>
</glyph>
<glyph name="uni025F" format="1">
  <advance width="280"/>
  <unicode hex="025F"/>
  <outline>
    <contour>
      <point x="47" y="-191" type="line"/>
      <point x="116" y="-154"/>
      <point x="145" y="-118"/>
      <point x="145" y="1" type="curve" smooth="yes"/>
      <point x="145" y="243" type="line"/>
      <point x="255" y="243" type="line"/>
      <point x="255" y="245" type="line"/>
      <point x="145" y="245" type="line"/>
      <point x="145" y="517" type="line"/>
      <point x="143" y="517" type="line"/>
      <point x="143" y="245" type="line"/>
      <point x="25" y="245" type="line"/>
      <point x="25" y="243" type="line"/>
      <point x="143" y="243" type="line"/>
      <point x="143" y="1" type="line" smooth="yes"/>
      <point x="143" y="-117"/>
      <point x="114" y="-153"/>
      <point x="46" y="-189" type="curve"/>
    </contour>
    <contour>
      <point x="144" y="517" type="move" name="top"/>
    </contour>
    <contour>
      <point x="144" y="-188" type="move" name="bottom"/>
    </contour>
  </outline>
</glyph>
<glyph name="uni0260" format="1">
  <advance width="572"/>
  <unicode hex="0260"/>
  <outline>
    <contour>
      <point x="278" y="-192" type="curve" smooth="yes"/>
      <point x="410" y="-192"/>
      <point x="447" y="-124"/>
      <point x="447" y="-7" type="curve" smooth="yes"/>
      <point x="447" y="638" type="line" smooth="yes"/>
      <point x="447" y="699"/>
      <point x="480" y="731"/>
      <point x="529" y="731" type="curve" smooth="yes"/>
      <point x="566" y="731"/>
      <point x="588" y="719"/>
      <point x="607" y="703" type="curve"/>
      <point x="608" y="705" type="line"/>
      <point x="590" y="720"/>
      <point x="567" y="733"/>
      <point x="529" y="733" type="curve" smooth="yes"/>
      <point x="479" y="733"/>
      <point x="445" y="700"/>
      <point x="445" y="638" type="curve" smooth="yes"/>
      <point x="445" y="424" type="line"/>
      <point x="421" y="473"/>
      <point x="367" y="527"/>
      <point x="281" y="527" type="curve" smooth="yes"/>
      <point x="156" y="527"/>
      <point x="85" y="417"/>
      <point x="85" y="267" type="curve" smooth="yes"/>
      <point x="85" y="107"/>
      <point x="159" y="11"/>
      <point x="273" y="11" type="curve" smooth="yes"/>
      <point x="363" y="11"/>
      <point x="410" y="59"/>
      <point x="445" y="120" type="curve"/>
      <point x="445" y="-7" type="line" smooth="yes"/>
      <point x="445" y="-123"/>
      <point x="409" y="-190"/>
      <point x="278" y="-190" type="curve" smooth="yes"/>
      <point x="220" y="-190"/>
      <point x="184" y="-177"/>
      <point x="153" y="-161" type="curve"/>
      <point x="152" y="-163" type="line"/>
      <point x="182" y="-178"/>
      <point x="219" y="-192"/>
    </contour>
    <contour>
      <point x="273" y="13" type="curve" smooth="yes"/>
      <point x="160" y="13"/>
      <point x="87" y="109"/>
      <point x="87" y="267" type="curve" smooth="yes"/>
      <point x="87" y="415"/>
      <point x="158" y="525"/>
      <point x="281" y="525" type="curve" smooth="yes"/>
      <point x="366" y="525"/>
      <point x="419" y="472"/>
      <point x="445" y="421" type="curve"/>
      <point x="445" y="124" type="line"/>
      <point x="410" y="61"/>
      <point x="363" y="13"/>
    </contour>
    <contour>
      <point x="272" y="727" type="move" name="top"/>
    </contour>
    <contour>
      <point x="286" y="-188" type="move" name="bottom"/>
    </contour>
  </outline>
</glyph>
<glyph name="uni0266" format="1">
  <advance width="580"/>
  <unicode hex="0266"/>
  <outline>
    <contour>
      <point x="127" y="0" type="line"/>
      <point x="127" y="387" type="line"/>
      <point x="175" y="473"/>
      <point x="239" y="525"/>
      <point x="326" y="525" type="curve" smooth="yes"/>
      <point x="419" y="525"/>
      <point x="458" y="464"/>
      <point x="458" y="368" type="curve" smooth="yes"/>
      <point x="458" y="0" type="line"/>
      <point x="460" y="0" type="line"/>
      <point x="460" y="368" type="line" smooth="yes"/>
      <point x="460" y="465"/>
      <point x="420" y="527"/>
      <point x="326" y="527" type="curve" smooth="yes"/>
      <point x="239" y="527"/>
      <point x="175" y="476"/>
      <point x="127" y="391" type="curve"/>
      <point x="127" y="618" type="line" smooth="yes"/>
      <point x="127" y="693"/>
      <point x="173" y="731"/>
      <point x="236" y="731" type="curve" smooth="yes"/>
      <point x="280" y="731"/>
      <point x="316" y="717"/>
      <point x="346" y="698" type="curve"/>
      <point x="347" y="700" type="line"/>
      <point x="317" y="719"/>
      <point x="280" y="733"/>
      <point x="236" y="733" type="curve" smooth="yes"/>
      <point x="172" y="733"/>
      <point x="125" y="694"/>
      <point x="125" y="618" type="curve" smooth="yes"/>
      <point x="125" y="0" type="line"/>
    </contour>
    <contour>
      <point x="290" y="727" type="move" name="top"/>
    </contour>
    <contour>
      <point x="290" y="0" type="move" name="bottom"/>
    </contour>
  </outline>
</glyph>
<glyph name="uni026C" format="1">
  <advance width="296"/>
  <unicode hex="026C"/>
  <outline>
    <contour>
      <point x="200" y="-9" type="curve" smooth="yes"/>
      <point x="215" y="-9"/>
      <point x="229" y="-6"/>
      <point x="241" y="-1" type="curve"/>
      <point x="241" y="1" type="line"/>
      <point x="229" y="-4"/>
      <point x="215" y="-7"/>
      <point x="200" y="-7" type="curve" smooth="yes"/>
      <point x="161" y="-7"/>
      <point x="143" y="21"/>
      <point x="143" y="64" type="curve" smooth="yes"/>
      <point x="143" y="290" type="line"/>
      <point x="177" y="291"/>
      <point x="196" y="293"/>
      <point x="223" y="298" type="curve"/>
      <point x="223" y="300" type="line"/>
      <point x="196" y="295"/>
      <point x="177" y="293"/>
      <point x="143" y="292" type="curve"/>
      <point x="143" y="730" type="line"/>
      <point x="141" y="730" type="line"/>
      <point x="141" y="433" type="line"/>
      <point x="133" y="434"/>
      <point x="125" y="435"/>
      <point x="114" y="435" type="curve" smooth="yes"/>
      <point x="68" y="435"/>
      <point x="35" y="411"/>
      <point x="35" y="365" type="curve" smooth="yes"/>
      <point x="35" y="315"/>
      <point x="73" y="290"/>
      <point x="141" y="290" type="curve"/>
      <point x="141" y="64" type="line" smooth="yes"/>
      <point x="141" y="19"/>
      <point x="160" y="-9"/>
    </contour>
    <contour>
      <point x="141" y="292" type="line"/>
      <point x="74" y="292"/>
      <point x="37" y="316"/>
      <point x="37" y="365" type="curve" smooth="yes"/>
      <point x="37" y="410"/>
      <point x="69" y="433"/>
      <point x="114" y="433" type="curve" smooth="yes"/>
      <point x="125" y="433"/>
      <point x="133" y="432"/>
      <point x="141" y="431" type="curve"/>
    </contour>
    <contour>
      <point x="195" y="0" type="move" name="bottom"/>
    </contour>
    <contour>
      <point x="142" y="730" type="move" name="top"/>
    </contour>
    <contour>
      <point x="203" y="727" type="move" name="topright"/>
    </contour>
    <contour>
      <point x="277" y="375" type="move" name="center"/>
    </contour>
  </outline>
</glyph>
<glyph name="uni026D" format="1">
  <advance width="252"/>
  <unicode hex="026D"/>
  <outline>
    <contour>
      <point x="209" y="-192" type="curve" smooth="yes"/>
      <point x="247" y="-192"/>
      <point x="270" y="-179"/>
      <point x="288" y="-164" type="curve"/>
      <point x="287" y="-162" type="line"/>
      <point x="268" y="-178"/>
      <point x="246" y="-190"/>
      <point x="209" y="-190" type="curve" smooth="yes"/>
      <point x="160" y="-190"/>
      <point x="127" y="-158"/>
      <point x="127" y="-97" type="curve" smooth="yes"/>
      <point x="127" y="730" type="line"/>
      <point x="125" y="730" type="line"/>
      <point x="125" y="-97" type="line" smooth="yes"/>
      <point x="125" y="-159"/>
      <point x="159" y="-192"/>
    </contour>
    <contour>
      <point x="126" y="727" type="move" name="top"/>
    </contour>
    <contour>
      <point x="209" y="-188" type="move" name="bottom"/>
    </contour>
  </outline>
</glyph>
<glyph name="uni026E" format="1">
  <advance width="583"/>
  <unicode hex="026E"/>
  <outline>
    <contour>
      <point x="354" y="-192" type="curve" smooth="yes"/>
      <point x="473" y="-192"/>
      <point x="543" y="-115"/>
      <point x="543" y="1" type="curve" smooth="yes"/>
      <point x="543" y="125"/>
      <point x="470" y="190"/>
      <point x="331" y="190" type="curve" smooth="yes"/>
      <point x="284" y="190" type="line"/>
      <point x="510" y="515" type="line"/>
      <point x="510" y="517" type="line"/>
      <point x="122" y="517" type="line"/>
      <point x="122" y="730" type="line"/>
      <point x="120" y="730" type="line"/>
      <point x="120" y="64" type="line" smooth="yes"/>
      <point x="120" y="19"/>
      <point x="139" y="-9"/>
      <point x="179" y="-9" type="curve" smooth="yes"/>
      <point x="194" y="-9"/>
      <point x="208" y="-6"/>
      <point x="220" y="-1" type="curve"/>
      <point x="220" y="1" type="line"/>
      <point x="208" y="-4"/>
      <point x="194" y="-7"/>
      <point x="179" y="-7" type="curve" smooth="yes"/>
      <point x="140" y="-7"/>
      <point x="122" y="21"/>
      <point x="122" y="64" type="curve" smooth="yes"/>
      <point x="122" y="515" type="line"/>
      <point x="507" y="515" type="line"/>
      <point x="281" y="190" type="line"/>
      <point x="281" y="188" type="line"/>
      <point x="331" y="188" type="line" smooth="yes"/>
      <point x="469" y="188"/>
      <point x="541" y="124"/>
      <point x="541" y="1" type="curve" smooth="yes"/>
      <point x="541" y="-113"/>
      <point x="472" y="-190"/>
      <point x="354" y="-190" type="curve" smooth="yes"/>
      <point x="280" y="-190"/>
      <point x="231" y="-165"/>
      <point x="192" y="-125" type="curve"/>
      <point x="190" y="-126" type="line"/>
      <point x="230" y="-167"/>
      <point x="280" y="-192"/>
    </contour>
    <contour>
      <point x="354" y="-188" type="move" name="bottom"/>
    </contour>
    <contour>
      <point x="303" y="727" type="move" name="top"/>
    </contour>
    <contour>
      <point x="182" y="727" type="move" name="topright"/>
    </contour>
    <contour>
      <point x="256" y="375" type="move" name="center"/>
    </contour>
  </outline>
</glyph>
<glyph name="uni0270" format="1">
  <advance width="845"/>
  <unicode hex="0270"/>
  <outline>
    <contour>
      <point x="718" y="130" type="line"/>
      <point x="676" y="44"/>
      <point x="621" y="-8"/>
      <point x="544" y="-8" type="curve" smooth="yes"/>
      <point x="460" y="-8"/>
      <point x="421" y="53"/>
      <point x="421" y="139" type="curve" smooth="yes"/>
      <point x="421" y="517" type="line"/>
      <point x="419" y="517" type="line"/>
      <point x="419" y="130" type="line"/>
      <point x="377" y="44"/>
      <point x="322" y="-8"/>
      <point x="245" y="-8" type="curve" smooth="yes"/>
      <point x="161" y="-8"/>
      <point x="122" y="53"/>
      <point x="122" y="149" type="curve" smooth="yes"/>
      <point x="122" y="517" type="line"/>
      <point x="120" y="517" type="line"/>
      <point x="120" y="149" type="line" smooth="yes"/>
      <point x="120" y="52"/>
      <point x="160" y="-10"/>
      <point x="245" y="-10" type="curve" smooth="yes"/>
      <point x="322" y="-10"/>
      <point x="377" y="41"/>
      <point x="419" y="126" type="curve"/>
      <point x="423" y="43"/>
      <point x="466" y="-10"/>
      <point x="544" y="-10" type="curve" smooth="yes"/>
      <point x="621" y="-10"/>
      <point x="676" y="41"/>
      <point x="718" y="126" type="curve"/>
      <point x="718" y="-190" type="line"/>
      <point x="720" y="-190" type="line"/>
      <point x="720" y="517" type="line"/>
      <point x="718" y="517" type="line"/>
    </contour>
    <contour>
      <point x="419" y="517" type="move" name="top"/>
    </contour>
    <contour>
      <point x="424" y="-188" type="move" name="bottom"/>
    </contour>
  </outline>
</glyph>
<glyph name="uni0276" format="1">
  <advance width="734"/>
  <unicode hex="0276"/>
  <outline>
    <contour>
      <point x="279" y="-9" type="curve" smooth="yes"/>
      <point x="305" y="-9"/>
      <point x="324" y="-5"/>
      <point x="339" y="0" type="curve"/>
      <point x="669" y="0" type="line"/>
      <point x="669" y="2" type="line"/>
      <point x="344" y="2" type="line"/>
      <point x="427" y="32"/>
      <point x="482" y="127"/>
      <point x="482" y="275" type="curve"/>
      <point x="623" y="275" type="line"/>
      <point x="623" y="277" type="line"/>
      <point x="482" y="277" type="line"/>
      <point x="482" y="391"/>
      <point x="431" y="483"/>
      <point x="348" y="515" type="curve"/>
      <point x="660" y="515" type="line"/>
      <point x="660" y="517" type="line"/>
      <point x="342" y="517" type="line"/>
      <point x="325" y="523"/>
      <point x="307" y="527"/>
      <point x="281" y="527" type="curve" smooth="yes"/>
      <point x="160" y="527"/>
      <point x="80" y="431"/>
      <point x="80" y="258" type="curve" smooth="yes"/>
      <point x="80" y="91"/>
      <point x="155" y="-9"/>
    </contour>
    <contour>
      <point x="279" y="-7" type="curve" smooth="yes"/>
      <point x="156" y="-7"/>
      <point x="82" y="93"/>
      <point x="82" y="258" type="curve" smooth="yes"/>
      <point x="82" y="429"/>
      <point x="161" y="525"/>
      <point x="281" y="525" type="curve" smooth="yes"/>
      <point x="400" y="525"/>
      <point x="480" y="418"/>
      <point x="480" y="276" type="curve" smooth="yes"/>
      <point x="480" y="99"/>
      <point x="402" y="-7"/>
    </contour>
    <contour>
      <point x="397" y="517" type="move" name="top"/>
    </contour>
    <contour>
      <point x="397" y="0" type="move" name="bottom"/>
    </contour>
  </outline>
</glyph>
<glyph name="uni027A" format="1">
  <advance width="361"/>
  <unicode hex="027A"/>
  <outline>
    <contour>
      <point x="234" y="149" type="line"/>
      <point x="200" y="34"/>
      <point x="152" y="-8"/>
      <point x="71" y="-8" type="curve" smooth="yes"/>
      <point x="51" y="-8"/>
      <point x="38" y="-6"/>
      <point x="25" y="-3" type="curve"/>
      <point x="25" y="-5" type="line"/>
      <point x="38" y="-8"/>
      <point x="51" y="-10"/>
      <point x="71" y="-10" type="curve" smooth="yes"/>
      <point x="152" y="-10"/>
      <point x="201" y="32"/>
      <point x="234" y="142" type="curve"/>
      <point x="234" y="0" type="line"/>
      <point x="236" y="0" type="line"/>
      <point x="236" y="730" type="line"/>
      <point x="234" y="730" type="line"/>
    </contour>
    <contour>
      <point x="235" y="727" type="move" name="top"/>
    </contour>
    <contour>
      <point x="157" y="0" type="move" name="bottom"/>
    </contour>
  </outline>
</glyph>
<glyph name="uni027B" format="1">
  <advance width="361"/>
  <unicode hex="027B"/>
  <outline>
    <contour>
      <point x="396" y="-162" type="line"/>
      <point x="377" y="-178"/>
      <point x="355" y="-190"/>
      <point x="318" y="-190" type="curve" smooth="yes"/>
      <point x="269" y="-190"/>
      <point x="236" y="-158"/>
      <point x="236" y="-97" type="curve" smooth="yes"/>
      <point x="236" y="517" type="line"/>
      <point x="234" y="517" type="line"/>
      <point x="234" y="149" type="line"/>
      <point x="200" y="34"/>
      <point x="152" y="-8"/>
      <point x="71" y="-8" type="curve" smooth="yes"/>
      <point x="51" y="-8"/>
      <point x="38" y="-6"/>
      <point x="25" y="-3" type="curve"/>
      <point x="25" y="-5" type="line"/>
      <point x="38" y="-8"/>
      <point x="51" y="-10"/>
      <point x="71" y="-10" type="curve" smooth="yes"/>
      <point x="152" y="-10"/>
      <point x="201" y="32"/>
      <point x="234" y="142" type="curve"/>
      <point x="234" y="-97" type="line" smooth="yes"/>
      <point x="234" y="-159"/>
      <point x="268" y="-192"/>
      <point x="318" y="-192" type="curve" smooth="yes"/>
      <point x="356" y="-192"/>
      <point x="379" y="-179"/>
      <point x="397" y="-164" type="curve"/>
    </contour>
    <contour>
      <point x="235" y="517" type="move" name="top"/>
    </contour>
    <contour>
      <point x="218" y="-188" type="move" name="bottom"/>
    </contour>
  </outline>
</glyph>
<glyph name="uni027C" format="1">
  <advance width="361"/>
  <unicode hex="027C"/>
  <outline>
    <contour>
      <point x="290" y="527" type="curve" smooth="yes"/>
      <point x="209" y="527"/>
      <point x="160" y="485"/>
      <point x="127" y="375" type="curve"/>
      <point x="127" y="517" type="line"/>
      <point x="125" y="517" type="line"/>
      <point x="125" y="-190" type="line"/>
      <point x="127" y="-190" type="line"/>
      <point x="127" y="368" type="line"/>
      <point x="161" y="483"/>
      <point x="209" y="525"/>
      <point x="290" y="525" type="curve" smooth="yes"/>
      <point x="310" y="525"/>
      <point x="323" y="523"/>
      <point x="336" y="520" type="curve"/>
      <point x="336" y="522" type="line"/>
      <point x="323" y="525"/>
      <point x="310" y="527"/>
    </contour>
    <contour>
      <point x="230" y="517" type="move" name="top"/>
    </contour>
    <contour>
      <point x="126" y="-188" type="move" name="bottom"/>
    </contour>
  </outline>
</glyph>
<glyph name="uni027E" format="1">
  <advance width="313"/>
  <unicode hex="027E"/>
  <outline>
    <contour>
      <point x="204" y="520" type="curve" smooth="yes"/>
      <point x="154" y="520"/>
      <point x="120" y="487"/>
      <point x="120" y="425" type="curve" smooth="yes"/>
      <point x="120" y="0" type="line"/>
      <point x="122" y="0" type="line"/>
      <point x="122" y="425" type="line" smooth="yes"/>
      <point x="122" y="486"/>
      <point x="155" y="518"/>
      <point x="204" y="518" type="curve" smooth="yes"/>
      <point x="241" y="518"/>
      <point x="263" y="506"/>
      <point x="282" y="490" type="curve"/>
      <point x="283" y="492" type="line"/>
      <point x="265" y="507"/>
      <point x="242" y="520"/>
    </contour>
    <contour>
      <point x="204" y="517" type="move" name="top"/>
    </contour>
    <contour>
      <point x="121" y="0" type="move" name="bottom"/>
    </contour>
  </outline>
</glyph>
<glyph name="uni0280" format="1">
  <advance width="510"/>
  <unicode hex="0280"/>
  <outline>
    <contour>
      <point x="127" y="0" type="line"/>
      <point x="127" y="250" type="line"/>
      <point x="282" y="250" type="line"/>
      <point x="437" y="0" type="line"/>
      <point x="440" y="0" type="line"/>
      <point x="285" y="250" type="line"/>
      <point x="346" y="253"/>
      <point x="420" y="286"/>
      <point x="420" y="382" type="curve" smooth="yes"/>
      <point x="420" y="465"/>
      <point x="372" y="517"/>
      <point x="233" y="517" type="curve" smooth="yes"/>
      <point x="125" y="517" type="line"/>
      <point x="125" y="0" type="line"/>
    </contour>
    <contour>
      <point x="127" y="515" type="line"/>
      <point x="233" y="515" type="line" smooth="yes"/>
      <point x="371" y="515"/>
      <point x="418" y="464"/>
      <point x="418" y="382" type="curve" smooth="yes"/>
      <point x="418" y="287"/>
      <point x="343" y="252"/>
      <point x="277" y="252" type="curve" smooth="yes"/>
      <point x="127" y="252" type="line"/>
    </contour>
    <contour>
      <point x="255" y="517" type="move" name="top"/>
    </contour>
    <contour>
      <point x="255" y="0" type="move" name="bottom"/>
    </contour>
  </outline>
</glyph>
<glyph name="uni0283" format="1">
  <advance width="256"/>
  <unicode hex="0283"/>
  <outline>
    <contour>
      <point x="45" y="-192" type="curve" smooth="yes"/>
      <point x="95" y="-192"/>
      <point x="129" y="-159"/>
      <point x="129" y="-97" type="curve" smooth="yes"/>
      <point x="129" y="638" type="line" smooth="yes"/>
      <point x="129" y="699"/>
      <point x="162" y="731"/>
      <point x="211" y="731" type="curve" smooth="yes"/>
      <point x="248" y="731"/>
      <point x="270" y="719"/>
      <point x="289" y="703" type="curve"/>
      <point x="290" y="705" type="line"/>
      <point x="272" y="720"/>
      <point x="249" y="733"/>
      <point x="211" y="733" type="curve" smooth="yes"/>
      <point x="161" y="733"/>
      <point x="127" y="700"/>
      <point x="127" y="638" type="curve" smooth="yes"/>
      <point x="127" y="-97" type="line" smooth="yes"/>
      <point x="127" y="-158"/>
      <point x="94" y="-190"/>
      <point x="45" y="-190" type="curve" smooth="yes"/>
      <point x="8" y="-190"/>
      <point x="-14" y="-178"/>
      <point x="-33" y="-162" type="curve"/>
      <point x="-34" y="-164" type="line"/>
      <point x="-16" y="-179"/>
      <point x="7" y="-192"/>
    </contour>
    <contour>
      <point x="218" y="727" type="move" name="top"/>
    </contour>
    <contour>
      <point x="45" y="-188" type="move" name="bottom"/>
    </contour>
  </outline>
</glyph>
<glyph name="uni0284" format="1">
  <advance width="280"/>
  <unicode hex="0284"/>
  <outline>
    <contour>
      <point x="47" y="-191" type="line"/>
      <point x="116" y="-154"/>
      <point x="145" y="-118"/>
      <point x="145" y="0" type="curve"/>
      <point x="255" y="0" type="line"/>
      <point x="255" y="2" type="line"/>
      <point x="145" y="2" type="line"/>
      <point x="145" y="638" type="line" smooth="yes"/>
      <point x="145" y="699"/>
      <point x="178" y="731"/>
      <point x="227" y="731" type="curve" smooth="yes"/>
      <point x="264" y="731"/>
      <point x="286" y="719"/>
      <point x="305" y="703" type="curve"/>
      <point x="306" y="705" type="line"/>
      <point x="288" y="720"/>
      <point x="265" y="733"/>
      <point x="227" y="733" type="curve" smooth="yes"/>
      <point x="177" y="733"/>
      <point x="143" y="700"/>
      <point x="143" y="638" type="curve" smooth="yes"/>
      <point x="143" y="2" type="line"/>
      <point x="25" y="2" type="line"/>
      <point x="25" y="0" type="line"/>
      <point x="143" y="0" type="line"/>
      <point x="143" y="-117"/>
      <point x="114" y="-153"/>
      <point x="46" y="-189" type="curve"/>
    </contour>
    <contour>
      <point x="218" y="727" type="move" name="top"/>
    </contour>
    <contour>
      <point x="144" y="-188" type="move" name="bottom"/>
    </contour>
  </outline>
</glyph>
<glyph name="uni0285" format="1">
  <advance width="384"/>
  <unicode hex="0285"/>
  <outline>
    <contour>
      <point x="275" y="-9" type="curve" smooth="yes"/>
      <point x="313" y="-9"/>
      <point x="336" y="4"/>
      <point x="354" y="19" type="curve"/>
      <point x="353" y="21" type="line"/>
      <point x="334" y="5"/>
      <point x="312" y="-7"/>
      <point x="275" y="-7" type="curve" smooth="yes"/>
      <point x="226" y="-7"/>
      <point x="193" y="25"/>
      <point x="193" y="86" type="curve" smooth="yes"/>
      <point x="193" y="432" type="line" smooth="yes"/>
      <point x="193" y="494"/>
      <point x="159" y="527"/>
      <point x="109" y="527" type="curve" smooth="yes"/>
      <point x="71" y="527"/>
      <point x="48" y="514"/>
      <point x="30" y="499" type="curve"/>
      <point x="31" y="497" type="line"/>
      <point x="50" y="513"/>
      <point x="72" y="525"/>
      <point x="109" y="525" type="curve" smooth="yes"/>
      <point x="158" y="525"/>
      <point x="191" y="493"/>
      <point x="191" y="432" type="curve" smooth="yes"/>
      <point x="191" y="86" type="line" smooth="yes"/>
      <point x="191" y="24"/>
      <point x="225" y="-9"/>
    </contour>
    <contour>
      <point x="109" y="517" type="move" name="top"/>
    </contour>
    <contour>
      <point x="275" y="0" type="move" name="bottom"/>
    </contour>
  </outline>
</glyph>
<glyph name="uni0286" format="1">
  <advance width="269"/>
  <unicode hex="0286"/>
  <outline>
    <contour>
      <point x="25" y="-192" type="curve" smooth="yes"/>
      <point x="104" y="-192"/>
      <point x="142" y="-135"/>
      <point x="142" y="-34" type="curve"/>
      <point x="169" y="-42"/>
      <point x="190" y="-50"/>
      <point x="218" y="-64" type="curve"/>
      <point x="218" y="-62" type="line"/>
      <point x="190" y="-48"/>
      <point x="169" y="-40"/>
      <point x="142" y="-32" type="curve"/>
      <point x="142" y="638" type="line" smooth="yes"/>
      <point x="142" y="699"/>
      <point x="175" y="731"/>
      <point x="224" y="731" type="curve" smooth="yes"/>
      <point x="261" y="731"/>
      <point x="283" y="719"/>
      <point x="302" y="703" type="curve"/>
      <point x="303" y="705" type="line"/>
      <point x="285" y="720"/>
      <point x="262" y="733"/>
      <point x="224" y="733" type="curve" smooth="yes"/>
      <point x="174" y="733"/>
      <point x="140" y="700"/>
      <point x="140" y="638" type="curve" smooth="yes"/>
      <point x="140" y="-32" type="line"/>
      <point x="111" y="-24"/>
      <point x="83" y="-19"/>
      <point x="42" y="-19" type="curve" smooth="yes"/>
      <point x="-26" y="-19"/>
      <point x="-70" y="-54"/>
      <point x="-70" y="-111" type="curve" smooth="yes"/>
      <point x="-70" y="-158"/>
      <point x="-34" y="-192"/>
    </contour>
    <contour>
      <point x="25" y="-190" type="curve" smooth="yes"/>
      <point x="-33" y="-190"/>
      <point x="-68" y="-157"/>
      <point x="-68" y="-111" type="curve" smooth="yes"/>
      <point x="-68" y="-56"/>
      <point x="-25" y="-21"/>
      <point x="42" y="-21" type="curve" smooth="yes"/>
      <point x="83" y="-21"/>
      <point x="111" y="-26"/>
      <point x="140" y="-34" type="curve"/>
      <point x="140" y="-134"/>
      <point x="103" y="-190"/>
    </contour>
    <contour>
      <point x="218" y="727" type="move" name="top"/>
    </contour>
    <contour>
      <point x="45" y="-188" type="move" name="bottom"/>
    </contour>
  </outline>
</glyph>
<glyph name="uni0288" format="1">
  <advance width="322"/>
  <unicode hex="0288"/>
  <outline>
    <contour>
      <point x="119" y="0" type="line"/>
      <point x="119" y="651" type="line"/>
      <point x="117" y="651" type="line"/>
      <point x="117" y="0" type="line"/>
    </contour>
    <contour>
      <point x="265" y="515" type="line"/>
      <point x="265" y="517" type="line"/>
      <point x="30" y="517" type="line"/>
      <point x="30" y="515" type="line"/>
    </contour>
    <contour>
      <point x="201" y="-192" type="curve" smooth="yes"/>
      <point x="239" y="-192"/>
      <point x="262" y="-179"/>
      <point x="280" y="-164" type="curve"/>
      <point x="279" y="-162" type="line"/>
      <point x="260" y="-178"/>
      <point x="238" y="-190"/>
      <point x="201" y="-190" type="curve" smooth="yes"/>
      <point x="152" y="-190"/>
      <point x="119" y="-158"/>
      <point x="119" y="-97" type="curve" smooth="yes"/>
      <point x="119" y="1" type="line"/>
      <point x="117" y="1" type="line"/>
      <point x="117" y="-97" type="line" smooth="yes"/>
      <point x="117" y="-159"/>
      <point x="151" y="-192"/>
    </contour>
    <contour>
      <point x="118" y="651" type="move" name="top"/>
    </contour>
    <contour>
      <point x="201" y="-188" type="move" name="bottom"/>
    </contour>
  </outline>
</glyph>
<glyph name="uni0289" format="1">
  <advance width="593"/>
  <unicode hex="0289"/>
  <outline>
    <contour>
      <point x="124" y="380" type="line"/>
      <point x="538" y="380" type="line"/>
      <point x="538" y="382" type="line"/>
      <point x="454" y="382" type="line"/>
      <point x="40" y="382" type="line"/>
      <point x="40" y="380" type="line"/>
    </contour>
    <contour>
      <point x="452" y="517" type="line"/>
      <point x="452" y="120" type="line"/>
      <point x="411" y="45"/>
      <point x="352" y="-7"/>
      <point x="265" y="-7" type="curve" smooth="yes"/>
      <point x="179" y="-7"/>
      <point x="126" y="48"/>
      <point x="126" y="150" type="curve" smooth="yes"/>
      <point x="126" y="517" type="line"/>
      <point x="124" y="517" type="line"/>
      <point x="124" y="150" type="line" smooth="yes"/>
      <point x="124" y="46"/>
      <point x="178" y="-9"/>
      <point x="265" y="-9" type="curve" smooth="yes"/>
      <point x="351" y="-9"/>
      <point x="410" y="40"/>
      <point x="452" y="116" type="curve"/>
      <point x="452" y="0" type="line"/>
      <point x="454" y="0" type="line"/>
      <point x="454" y="517" type="line"/>
    </contour>
    <contour>
      <point x="464" y="0" type="move" name="ogonek"/>
    </contour>
    <contour>
      <point x="297" y="517" type="move" name="top"/>
    </contour>
    <contour>
      <point x="464" y="517" type="move" name="topright"/>
    </contour>
    <contour>
      <point x="297" y="0" type="move" name="bottom"/>
    </contour>
  </outline>
</glyph>
<glyph name="uni0298" format="1">
  <advance width="787"/>
  <unicode hex="0298"/>
  <outline>
    <contour>
      <point x="393" y="-9" type="curve" smooth="yes"/>
      <point x="590" y="-9"/>
      <point x="702" y="122"/>
      <point x="702" y="339" type="curve" smooth="yes"/>
      <point x="702" y="560"/>
      <point x="584" y="689"/>
      <point x="393" y="689" type="curve" smooth="yes"/>
      <point x="208" y="689"/>
      <point x="85" y="554"/>
      <point x="85" y="337" type="curve" smooth="yes"/>
      <point x="85" y="121"/>
      <point x="204" y="-9"/>
    </contour>
    <contour>
      <point x="393" y="-7" type="curve" smooth="yes"/>
      <point x="205" y="-7"/>
      <point x="87" y="123"/>
      <point x="87" y="337" type="curve" smooth="yes"/>
      <point x="87" y="552"/>
      <point x="209" y="687"/>
      <point x="393" y="687" type="curve" smooth="yes"/>
      <point x="583" y="687"/>
      <point x="700" y="558"/>
      <point x="700" y="339" type="curve" smooth="yes"/>
      <point x="700" y="124"/>
      <point x="589" y="-7"/>
    </contour>
    <contour>
      <point x="393" y="330" type="curve"/>
      <point x="397" y="330"/>
      <point x="399" y="333"/>
      <point x="399" y="336" type="curve" smooth="yes"/>
      <point x="399" y="339"/>
      <point x="397" y="342"/>
      <point x="393" y="342" type="curve" smooth="yes"/>
      <point x="389" y="342"/>
      <point x="387" y="339"/>
      <point x="387" y="336" type="curve" smooth="yes"/>
      <point x="387" y="333"/>
      <point x="389" y="330"/>
    </contour>
    <contour>
      <point x="394" y="680" type="move" name="top"/>
    </contour>
    <contour>
      <point x="394" y="0" type="move" name="bottom"/>
    </contour>
    <contour>
      <point x="393" y="153" type="move" name="_top"/>
    </contour>
  </outline>
</glyph>
<glyph name="uni02A0" format="1">
  <advance width="567"/>
  <unicode hex="02A0"/>
  <outline>
    <contour>
      <point x="524" y="733" type="curve" smooth="yes"/>
      <point x="474" y="733"/>
      <point x="440" y="700"/>
      <point x="440" y="638" type="curve" smooth="yes"/>
      <point x="440" y="425" type="line"/>
      <point x="415" y="473"/>
      <point x="362" y="527"/>
      <point x="276" y="527" type="curve" smooth="yes"/>
      <point x="151" y="527"/>
      <point x="80" y="417"/>
      <point x="80" y="257" type="curve" smooth="yes"/>
      <point x="80" y="88"/>
      <point x="154" y="-9"/>
      <point x="267" y="-9" type="curve" smooth="yes"/>
      <point x="359" y="-9"/>
      <point x="407" y="40"/>
      <point x="440" y="100" type="curve"/>
      <point x="440" y="-190" type="line"/>
      <point x="442" y="-190" type="line"/>
      <point x="442" y="638" type="line" smooth="yes"/>
      <point x="442" y="699"/>
      <point x="475" y="731"/>
      <point x="524" y="731" type="curve" smooth="yes"/>
      <point x="561" y="731"/>
      <point x="583" y="719"/>
      <point x="602" y="703" type="curve"/>
      <point x="603" y="705" type="line"/>
      <point x="585" y="720"/>
      <point x="562" y="733"/>
    </contour>
    <contour>
      <point x="267" y="-7" type="curve" smooth="yes"/>
      <point x="155" y="-7"/>
      <point x="82" y="89"/>
      <point x="82" y="257" type="curve" smooth="yes"/>
      <point x="82" y="415"/>
      <point x="153" y="525"/>
      <point x="276" y="525" type="curve" smooth="yes"/>
      <point x="361" y="525"/>
      <point x="414" y="472"/>
      <point x="440" y="421" type="curve"/>
      <point x="440" y="104" type="line"/>
      <point x="405" y="41"/>
      <point x="358" y="-7"/>
    </contour>
    <contour>
      <point x="284" y="727" type="move" name="top"/>
    </contour>
    <contour>
      <point x="284" y="-188" type="move" name="bottom"/>
    </contour>
  </outline>
</glyph>
<glyph name="uni02A5" format="1">
  <advance width="836"/>
  <unicode hex="02A5"/>
  <outline>
    <contour>
      <point x="646" y="-102" type="line"/>
      <point x="644" y="-69"/>
      <point x="645" y="-34"/>
      <point x="646" y="0" type="curve"/>
      <point x="785" y="0"/>
      <point x="841" y="27"/>
      <point x="841" y="101" type="curve" smooth="yes"/>
      <point x="841" y="152"/>
      <point x="805" y="182"/>
      <point x="760" y="182" type="curve" smooth="yes"/>
      <point x="686" y="182"/>
      <point x="647" y="133"/>
      <point x="644" y="2" type="curve"/>
      <point x="448" y="2" type="line"/>
      <point x="800" y="515" type="line"/>
      <point x="800" y="517" type="line"/>
      <point x="447" y="517" type="line"/>
      <point x="447" y="730" type="line"/>
      <point x="445" y="730" type="line"/>
      <point x="445" y="424" type="line"/>
      <point x="421" y="473"/>
      <point x="367" y="527"/>
      <point x="281" y="527" type="curve" smooth="yes"/>
      <point x="156" y="527"/>
      <point x="85" y="417"/>
      <point x="85" y="257" type="curve" smooth="yes"/>
      <point x="85" y="87"/>
      <point x="159" y="-9"/>
      <point x="273" y="-9" type="curve" smooth="yes"/>
      <point x="363" y="-9"/>
      <point x="411" y="39"/>
      <point x="445" y="100" type="curve"/>
      <point x="445" y="0" type="line"/>
      <point x="644" y="0" type="line"/>
      <point x="643" y="-34"/>
      <point x="642" y="-69"/>
      <point x="644" y="-102" type="curve"/>
    </contour>
    <contour>
      <point x="273" y="-7" type="curve" smooth="yes"/>
      <point x="160" y="-7"/>
      <point x="87" y="89"/>
      <point x="87" y="257" type="curve" smooth="yes"/>
      <point x="87" y="415"/>
      <point x="158" y="525"/>
      <point x="281" y="525" type="curve" smooth="yes"/>
      <point x="366" y="525"/>
      <point x="419" y="472"/>
      <point x="445" y="421" type="curve"/>
      <point x="445" y="104" type="line"/>
      <point x="410" y="41"/>
      <point x="363" y="-7"/>
    </contour>
    <contour>
      <point x="447" y="515" type="line"/>
      <point x="797" y="515" type="line"/>
      <point x="447" y="5" type="line"/>
    </contour>
    <contour>
      <point x="646" y="2" type="curve"/>
      <point x="649" y="132"/>
      <point x="688" y="180"/>
      <point x="760" y="180" type="curve" smooth="yes"/>
      <point x="804" y="180"/>
      <point x="839" y="151"/>
      <point x="839" y="101" type="curve" smooth="yes"/>
      <point x="839" y="29"/>
      <point x="785" y="2"/>
    </contour>
    <contour>
      <point x="418" y="-188" type="move" name="bottom"/>
    </contour>
    <contour>
      <point x="418" y="727" type="move" name="top"/>
    </contour>
    <contour>
      <point x="497" y="727" type="move" name="topright"/>
    </contour>
    <contour>
      <point x="289" y="259" type="move" name="center"/>
    </contour>
  </outline>
</glyph>
<glyph name="uni02A7" format="1">
  <advance width="535"/>
  <unicode hex="02A7"/>
  <outline>
    <contour>
      <point x="117" y="651" type="line"/>
      <point x="117" y="133" type="line" smooth="yes"/>
      <point x="117" y="40"/>
      <point x="162" y="-9"/>
      <point x="256" y="-9" type="curve" smooth="yes"/>
      <point x="315" y="-9"/>
      <point x="357" y="4"/>
      <point x="407" y="23" type="curve"/>
      <point x="407" y="25" type="line"/>
      <point x="358" y="6"/>
      <point x="314" y="-7"/>
      <point x="256" y="-7" type="curve" smooth="yes"/>
      <point x="163" y="-7"/>
      <point x="119" y="42"/>
      <point x="119" y="133" type="curve" smooth="yes"/>
      <point x="119" y="651" type="line"/>
    </contour>
    <contour>
      <point x="30" y="517" type="line"/>
      <point x="30" y="515" type="line"/>
      <point x="407" y="515" type="line"/>
      <point x="407" y="517" type="line"/>
    </contour>
    <contour>
      <point x="406" y="517" type="line"/>
      <point x="406" y="0" type="line"/>
      <point x="408" y="0" type="line"/>
      <point x="408" y="517" type="line"/>
    </contour>
    <contour>
      <point x="490" y="733" type="curve" smooth="yes"/>
      <point x="440" y="733"/>
      <point x="406" y="700"/>
      <point x="406" y="638" type="curve" smooth="yes"/>
      <point x="406" y="516" type="line"/>
      <point x="408" y="516" type="line"/>
      <point x="408" y="638" type="line" smooth="yes"/>
      <point x="408" y="699"/>
      <point x="441" y="731"/>
      <point x="490" y="731" type="curve" smooth="yes"/>
      <point x="527" y="731"/>
      <point x="549" y="719"/>
      <point x="568" y="703" type="curve"/>
      <point x="569" y="705" type="line"/>
      <point x="551" y="720"/>
      <point x="528" y="733"/>
    </contour>
    <contour>
      <point x="324" y="-192" type="curve" smooth="yes"/>
      <point x="374" y="-192"/>
      <point x="408" y="-159"/>
      <point x="408" y="-97" type="curve" smooth="yes"/>
      <point x="408" y="1" type="line"/>
      <point x="406" y="1" type="line"/>
      <point x="406" y="-97" type="line" smooth="yes"/>
      <point x="406" y="-158"/>
      <point x="373" y="-190"/>
      <point x="324" y="-190" type="curve" smooth="yes"/>
      <point x="287" y="-190"/>
      <point x="265" y="-178"/>
      <point x="246" y="-162" type="curve"/>
      <point x="245" y="-164" type="line"/>
      <point x="263" y="-179"/>
      <point x="286" y="-192"/>
    </contour>
    <contour>
      <point x="261" y="727" type="move" name="top"/>
    </contour>
    <contour>
      <point x="265" y="-188" type="move" name="bottom"/>
    </contour>
  </outline>
</glyph>
<glyph name="uni02A9" format="1">
  <advance width="869"/>
  <unicode hex="02A9"/>
  <outline>
    <contour>
      <point x="665" y="-192" type="curve" smooth="yes"/>
      <point x="715" y="-192"/>
      <point x="749" y="-159"/>
      <point x="749" y="-97" type="curve" smooth="yes"/>
      <point x="749" y="368" type="line" smooth="yes"/>
      <point x="749" y="467"/>
      <point x="710" y="527"/>
      <point x="615" y="527" type="curve" smooth="yes"/>
      <point x="528" y="527"/>
      <point x="464" y="476"/>
      <point x="416" y="391" type="curve"/>
      <point x="416" y="517" type="line"/>
      <point x="129" y="517" type="line"/>
      <point x="129" y="618" type="line" smooth="yes"/>
      <point x="129" y="693"/>
      <point x="175" y="731"/>
      <point x="238" y="731" type="curve" smooth="yes"/>
      <point x="282" y="731"/>
      <point x="318" y="717"/>
      <point x="348" y="698" type="curve"/>
      <point x="349" y="700" type="line"/>
      <point x="319" y="719"/>
      <point x="282" y="733"/>
      <point x="238" y="733" type="curve" smooth="yes"/>
      <point x="174" y="733"/>
      <point x="127" y="694"/>
      <point x="127" y="618" type="curve" smooth="yes"/>
      <point x="127" y="517" type="line"/>
      <point x="35" y="517" type="line"/>
      <point x="35" y="515" type="line"/>
      <point x="127" y="515" type="line"/>
      <point x="127" y="0" type="line"/>
      <point x="129" y="0" type="line"/>
      <point x="129" y="515" type="line"/>
      <point x="414" y="515" type="line"/>
      <point x="414" y="0" type="line"/>
      <point x="416" y="0" type="line"/>
      <point x="416" y="387" type="line"/>
      <point x="464" y="473"/>
      <point x="528" y="525"/>
      <point x="615" y="525" type="curve" smooth="yes"/>
      <point x="709" y="525"/>
      <point x="747" y="466"/>
      <point x="747" y="368" type="curve" smooth="yes"/>
      <point x="747" y="-97" type="line" smooth="yes"/>
      <point x="747" y="-158"/>
      <point x="714" y="-190"/>
      <point x="665" y="-190" type="curve" smooth="yes"/>
      <point x="628" y="-190"/>
      <point x="606" y="-178"/>
      <point x="587" y="-162" type="curve"/>
      <point x="586" y="-164" type="line"/>
      <point x="604" y="-179"/>
      <point x="627" y="-192"/>
    </contour>
    <contour>
      <point x="410" y="727" type="move" name="top"/>
    </contour>
    <contour>
      <point x="414" y="-188" type="move" name="bottom"/>
    </contour>
    <contour>
      <point x="404" y="517" type="move" name="topleft"/>
    </contour>
  </outline>
</glyph>
<glyph name="uni02AF" format="1">
  <advance width="651"/>
  <unicode hex="02AF"/>
  <outline>
    <contour>
      <point x="325" y="-10" type="curve" smooth="yes"/>
      <point x="413" y="-10"/>
      <point x="477" y="42"/>
      <point x="525" y="128" type="curve"/>
      <point x="524" y="130" type="line"/>
      <point x="476" y="44"/>
      <point x="412" y="-8"/>
      <point x="325" y="-8" type="curve" smooth="yes"/>
      <point x="232" y="-8"/>
      <point x="193" y="53"/>
      <point x="193" y="149" type="curve" smooth="yes"/>
      <point x="193" y="328" type="line"/>
      <point x="191" y="328" type="line"/>
      <point x="191" y="149" type="line" smooth="yes"/>
      <point x="191" y="52"/>
      <point x="231" y="-10"/>
    </contour>
    <contour>
      <point x="526" y="0" type="line"/>
      <point x="526" y="517" type="line"/>
      <point x="524" y="517" type="line"/>
      <point x="524" y="0" type="line"/>
    </contour>
    <contour>
      <point x="109" y="520" type="curve" smooth="yes"/>
      <point x="71" y="520"/>
      <point x="48" y="507"/>
      <point x="30" y="492" type="curve"/>
      <point x="31" y="490" type="line"/>
      <point x="50" y="506"/>
      <point x="72" y="518"/>
      <point x="109" y="518" type="curve" smooth="yes"/>
      <point x="158" y="518"/>
      <point x="191" y="486"/>
      <point x="191" y="425" type="curve" smooth="yes"/>
      <point x="191" y="327" type="line"/>
      <point x="193" y="327" type="line"/>
      <point x="193" y="425" type="line" smooth="yes"/>
      <point x="193" y="487"/>
      <point x="159" y="520"/>
    </contour>
    <contour>
      <point x="608" y="-192" type="curve" smooth="yes"/>
      <point x="646" y="-192"/>
      <point x="669" y="-179"/>
      <point x="687" y="-164" type="curve"/>
      <point x="686" y="-162" type="line"/>
      <point x="667" y="-178"/>
      <point x="645" y="-190"/>
      <point x="608" y="-190" type="curve" smooth="yes"/>
      <point x="559" y="-190"/>
      <point x="526" y="-158"/>
      <point x="526" y="-97" type="curve" smooth="yes"/>
      <point x="526" y="1" type="line"/>
      <point x="524" y="1" type="line"/>
      <point x="524" y="-97" type="line" smooth="yes"/>
      <point x="524" y="-159"/>
      <point x="558" y="-192"/>
    </contour>
    <contour>
      <point x="347" y="517" type="move" name="top"/>
    </contour>
    <contour>
      <point x="336" y="-188" type="move" name="bottom"/>
    </contour>
  </outline>
</glyph>
<glyph name="uni0371" format="1">
  <advance width="481"/>
  <unicode hex="0371"/>
  <outline>
    <contour>
      <point x="126" y="0" type="line"/>
      <point x="126" y="271" type="line"/>
      <point x="431" y="271" type="line"/>
      <point x="431" y="273" type="line"/>
      <point x="126" y="273" type="line"/>
      <point x="126" y="390" type="line" smooth="yes"/>
      <point x="126" y="435"/>
      <point x="120" y="480"/>
      <point x="107" y="517" type="curve"/>
      <point x="105" y="517" type="line"/>
      <point x="118" y="480"/>
      <point x="124" y="434"/>
      <point x="124" y="385" type="curve" smooth="yes"/>
      <point x="124" y="0" type="line"/>
    </contour>
    <contour>
      <point x="241" y="517" type="move" name="top"/>
    </contour>
    <contour>
      <point x="241" y="0" type="move" name="bottom"/>
    </contour>
  </outline>
</glyph>
<glyph name="uni03CF" format="1">
  <advance width="549"/>
  <unicode hex="03CF"/>
  <outline>
    <contour>
      <point x="486" y="0" type="line"/>
      <point x="539" y="0" type="line"/>
      <point x="539" y="2" type="line"/>
      <point x="486" y="2" type="line"/>
    </contour>
    <contour>
      <point x="470" y="680" type="line"/>
      <point x="135" y="366" type="line"/>
      <point x="486" y="0" type="line"/>
      <point x="489" y="0" type="line"/>
      <point x="138" y="366" type="line"/>
      <point x="473" y="680" type="line"/>
    </contour>
    <contour>
      <point x="130" y="680" type="line"/>
      <point x="130" y="1" type="line"/>
      <point x="132" y="1" type="line"/>
      <point x="132" y="680" type="line"/>
    </contour>
    <contour>
      <point x="455" y="-192" type="curve" smooth="yes"/>
      <point x="505" y="-192"/>
      <point x="539" y="-159"/>
      <point x="539" y="-97" type="curve" smooth="yes"/>
      <point x="539" y="1" type="line"/>
      <point x="537" y="1" type="line"/>
      <point x="537" y="-97" type="line" smooth="yes"/>
      <point x="537" y="-158"/>
      <point x="504" y="-190"/>
      <point x="455" y="-190" type="curve" smooth="yes"/>
      <point x="418" y="-190"/>
      <point x="396" y="-178"/>
      <point x="377" y="-162" type="curve"/>
      <point x="376" y="-164" type="line"/>
      <point x="394" y="-179"/>
      <point x="417" y="-192"/>
    </contour>
    <contour>
      <point x="284" y="680" type="move" name="top"/>
    </contour>
    <contour>
      <point x="275" y="-188" type="move" name="bottom"/>
    </contour>
  </outline>
</glyph>
<glyph name="uni03DC" format="1">
  <advance width="541"/>
  <unicode hex="03DC"/>
  <outline>
    <contour>
      <point x="501" y="680" type="line"/>
      <point x="130" y="680" type="line"/>
      <point x="130" y="0" type="line"/>
      <point x="132" y="0" type="line"/>
      <point x="132" y="357" type="line"/>
      <point x="359" y="357" type="line" smooth="yes"/>
      <point x="388" y="357"/>
      <point x="409" y="350"/>
      <point x="427" y="340" type="curve"/>
      <point x="428" y="342" type="line"/>
      <point x="409" y="352"/>
      <point x="389" y="359"/>
      <point x="359" y="359" type="curve" smooth="yes"/>
      <point x="132" y="359" type="line"/>
      <point x="132" y="678" type="line"/>
      <point x="501" y="678" type="line"/>
    </contour>
    <contour>
      <point x="330" y="680" type="move" name="top"/>
    </contour>
    <contour>
      <point x="131" y="0" type="move" name="bottom"/>
    </contour>
    <contour>
      <point x="142" y="0" type="move" name="bottomright"/>
    </contour>
  </outline>
</glyph>
<glyph name="uni03DE" format="1">
  <advance width="439"/>
  <unicode hex="03DE"/>
  <outline>
    <contour>
      <point x="53" y="342" type="line"/>
      <point x="245" y="680" type="line"/>
      <point x="242" y="680" type="line"/>
      <point x="50" y="342" type="line"/>
      <point x="51" y="340" type="line"/>
      <point x="386" y="340" type="line"/>
      <point x="193" y="0" type="line"/>
      <point x="196" y="0" type="line"/>
      <point x="389" y="340" type="line"/>
      <point x="388" y="342" type="line"/>
    </contour>
    <contour>
      <point x="220" y="680" type="move" name="top"/>
    </contour>
    <contour>
      <point x="220" y="0" type="move" name="bottom"/>
    </contour>
  </outline>
</glyph>
<glyph name="uni040A" format="1">
  <advance width="921"/>
  <unicode hex="040A"/>
  <outline>
    <contour>
      <point x="514" y="379" type="line"/>
      <point x="514" y="680" type="line"/>
      <point x="512" y="680" type="line"/>
      <point x="512" y="379" type="line"/>
      <point x="132" y="379" type="line"/>
      <point x="132" y="680" type="line"/>
      <point x="130" y="680" type="line"/>
      <point x="130" y="0" type="line"/>
      <point x="132" y="0" type="line"/>
      <point x="132" y="377" type="line"/>
      <point x="512" y="377" type="line"/>
      <point x="512" y="0" type="line"/>
      <point x="660" y="0" type="line" smooth="yes"/>
      <point x="781" y="0"/>
      <point x="861" y="70"/>
      <point x="861" y="200" type="curve" smooth="yes"/>
      <point x="861" y="324"/>
      <point x="783" y="379"/>
      <point x="656" y="379" type="curve" smooth="yes"/>
    </contour>
    <contour>
      <point x="514" y="2" type="line"/>
      <point x="514" y="377" type="line"/>
      <point x="656" y="377" type="line" smooth="yes"/>
      <point x="782" y="377"/>
      <point x="859" y="322"/>
      <point x="859" y="200" type="curve" smooth="yes"/>
      <point x="859" y="72"/>
      <point x="781" y="2"/>
      <point x="660" y="2" type="curve" smooth="yes"/>
    </contour>
    <contour>
      <point x="461" y="680" type="move" name="top"/>
    </contour>
    <contour>
      <point x="461" y="0" type="move" name="bottom"/>
    </contour>
  </outline>
</glyph>
<glyph name="uni040B" format="1">
  <advance width="692"/>
  <unicode hex="040B"/>
  <outline>
    <contour>
      <point x="20" y="680" type="line"/>
      <point x="20" y="678" type="line"/>
      <point x="452" y="678" type="line"/>
      <point x="452" y="680" type="line"/>
    </contour>
    <contour>
      <point x="446" y="410" type="curve" smooth="yes"/>
      <point x="356" y="410"/>
      <point x="292" y="369"/>
      <point x="236" y="295" type="curve"/>
      <point x="236" y="292" type="line"/>
      <point x="294" y="368"/>
      <point x="356" y="408"/>
      <point x="446" y="408" type="curve" smooth="yes"/>
      <point x="564" y="408"/>
      <point x="610" y="336"/>
      <point x="610" y="244" type="curve" smooth="yes"/>
      <point x="610" y="0" type="line"/>
      <point x="612" y="0" type="line"/>
      <point x="612" y="244" type="line" smooth="yes"/>
      <point x="612" y="337"/>
      <point x="565" y="410"/>
    </contour>
    <contour>
      <point x="235" y="680" type="line"/>
      <point x="235" y="0" type="line"/>
      <point x="237" y="0" type="line"/>
      <point x="237" y="680" type="line"/>
    </contour>
    <contour>
      <point x="399" y="680" type="move" name="top"/>
    </contour>
    <contour>
      <point x="399" y="0" type="move" name="bottom"/>
    </contour>
    <contour>
      <point x="622" y="0" type="move" name="bottomright"/>
    </contour>
  </outline>
</glyph>
<glyph name="uni0427" format="1">
  <advance width="566"/>
  <unicode hex="0427"/>
  <outline>
    <contour>
      <point x="434" y="341" type="line"/>
      <point x="388" y="277"/>
      <point x="323" y="241"/>
      <point x="237" y="241" type="curve" smooth="yes"/>
      <point x="135" y="241"/>
      <point x="62" y="304"/>
      <point x="62" y="412" type="curve" smooth="yes"/>
      <point x="62" y="680" type="line"/>
      <point x="60" y="680" type="line"/>
      <point x="60" y="412" type="line" smooth="yes"/>
      <point x="60" y="303"/>
      <point x="133" y="239"/>
      <point x="237" y="239" type="curve" smooth="yes"/>
      <point x="323" y="239"/>
      <point x="389" y="275"/>
      <point x="434" y="339" type="curve"/>
      <point x="434" y="0" type="line"/>
      <point x="436" y="0" type="line"/>
      <point x="436" y="680" type="line"/>
      <point x="434" y="680" type="line"/>
    </contour>
    <contour>
      <point x="248" y="680" type="move" name="top"/>
    </contour>
    <contour>
      <point x="414" y="0" type="move" name="bottomleft"/>
    </contour>
    <contour>
      <point x="446" y="0" type="move" name="bottomright"/>
    </contour>
    <contour>
      <point x="283" y="0" type="move" name="bottom"/>
    </contour>
  </outline>
</glyph>
<glyph name="uni042A" format="1">
  <advance width="577"/>
  <unicode hex="042A"/>
  <outline>
    <contour>
      <point x="160" y="399" type="line"/>
      <point x="160" y="680" type="line"/>
      <point x="0" y="680" type="line"/>
      <point x="0" y="678" type="line"/>
      <point x="158" y="678" type="line"/>
      <point x="158" y="0" type="line"/>
      <point x="308" y="0" type="line" smooth="yes"/>
      <point x="437" y="0"/>
      <point x="517" y="70"/>
      <point x="517" y="210" type="curve" smooth="yes"/>
      <point x="517" y="335"/>
      <point x="440" y="399"/>
      <point x="304" y="399" type="curve" smooth="yes"/>
    </contour>
    <contour>
      <point x="160" y="2" type="line"/>
      <point x="160" y="397" type="line"/>
      <point x="304" y="397" type="line" smooth="yes"/>
      <point x="439" y="397"/>
      <point x="515" y="333"/>
      <point x="515" y="210" type="curve" smooth="yes"/>
      <point x="515" y="72"/>
      <point x="437" y="2"/>
      <point x="308" y="2" type="curve" smooth="yes"/>
    </contour>
    <contour>
      <point x="303" y="680" type="move" name="top"/>
    </contour>
    <contour>
      <point x="303" y="0" type="move" name="bottom"/>
    </contour>
  </outline>
</glyph>
<glyph name="uni042F" format="1">
  <advance width="579"/>
  <unicode hex="042F"/>
  <outline>
    <contour>
      <point x="310" y="680" type="line" smooth="yes"/>
      <point x="140" y="680"/>
      <point x="69" y="607"/>
      <point x="69" y="487" type="curve" smooth="yes"/>
      <point x="69" y="378"/>
      <point x="152" y="314"/>
      <point x="228" y="311" type="curve"/>
      <point x="65" y="0" type="line"/>
      <point x="67" y="0" type="line"/>
      <point x="230" y="311" type="line"/>
      <point x="447" y="311" type="line"/>
      <point x="447" y="0" type="line"/>
      <point x="449" y="0" type="line"/>
      <point x="449" y="680" type="line"/>
    </contour>
    <contour>
      <point x="234" y="313" type="line" smooth="yes"/>
      <point x="156" y="313"/>
      <point x="71" y="378"/>
      <point x="71" y="487" type="curve" smooth="yes"/>
      <point x="71" y="605"/>
      <point x="140" y="678"/>
      <point x="310" y="678" type="curve" smooth="yes"/>
      <point x="447" y="678" type="line"/>
      <point x="447" y="313" type="line"/>
    </contour>
    <contour>
      <point x="290" y="680" type="move" name="top"/>
    </contour>
    <contour>
      <point x="290" y="0" type="move" name="bottom"/>
    </contour>
  </outline>
</glyph>
<glyph name="uni0434" format="1">
  <advance width="538"/>
  <unicode hex="0434"/>
  <outline>
    <contour>
      <point x="44" y="1" type="line"/>
      <point x="97" y="35"/>
      <point x="124" y="88"/>
      <point x="139" y="306" type="curve" smooth="yes"/>
      <point x="153" y="515" type="line"/>
      <point x="411" y="515" type="line"/>
      <point x="411" y="2" type="line"/>
      <point x="42" y="2" type="line"/>
      <point x="42" y="0" type="line"/>
      <point x="413" y="0" type="line"/>
      <point x="413" y="517" type="line"/>
      <point x="151" y="517" type="line"/>
      <point x="137" y="306" type="line" smooth="yes"/>
      <point x="122" y="87"/>
      <point x="94" y="36"/>
      <point x="42" y="2" type="curve"/>
    </contour>
    <contour>
      <point x="403" y="2" type="line"/>
      <point x="403" y="0" type="line"/>
      <point x="456" y="0" type="line"/>
      <point x="456" y="-131" type="line"/>
      <point x="458" y="-131" type="line"/>
      <point x="458" y="2" type="line"/>
    </contour>
    <contour>
      <point x="15" y="-131" type="line"/>
      <point x="17" y="-131" type="line"/>
      <point x="17" y="0" type="line"/>
      <point x="70" y="0" type="line"/>
      <point x="70" y="2" type="line"/>
      <point x="15" y="2" type="line"/>
    </contour>
    <contour>
      <point x="457" y="0" type="move" name="_bottom"/>
    </contour>
    <contour>
      <point x="269" y="-188" type="move" name="bottom"/>
    </contour>
    <contour>
      <point x="269" y="517" type="move" name="top"/>
    </contour>
  </outline>
</glyph>
<glyph name="uni044A" format="1">
  <advance width="527"/>
  <unicode hex="044A"/>
  <outline>
    <contour>
      <point x="161" y="517" type="line"/>
      <point x="10" y="517" type="line"/>
      <point x="10" y="515" type="line"/>
      <point x="160" y="515" type="line"/>
    </contour>
    <contour>
      <point x="161" y="326" type="line"/>
      <point x="292" y="326" type="line" smooth="yes"/>
      <point x="420" y="326"/>
      <point x="470" y="267"/>
      <point x="470" y="171" type="curve" smooth="yes"/>
      <point x="470" y="59"/>
      <point x="407" y="2"/>
      <point x="292" y="2" type="curve" smooth="yes"/>
      <point x="162" y="2" type="line"/>
      <point x="162" y="517" type="line"/>
      <point x="160" y="517" type="line"/>
      <point x="160" y="0" type="line"/>
      <point x="292" y="0" type="line" smooth="yes"/>
      <point x="407" y="0"/>
      <point x="472" y="57"/>
      <point x="472" y="171" type="curve" smooth="yes"/>
      <point x="472" y="269"/>
      <point x="421" y="328"/>
      <point x="292" y="328" type="curve" smooth="yes"/>
      <point x="161" y="328" type="line"/>
    </contour>
    <contour>
      <point x="281" y="517" type="move" name="top"/>
    </contour>
    <contour>
      <point x="281" y="0" type="move" name="bottom"/>
    </contour>
  </outline>
</glyph>
<glyph name="uni0464" format="1">
  <advance width="726"/>
  <unicode hex="0464"/>
  <outline>
    <contour>
      <point x="680" y="52" type="line"/>
      <point x="636" y="18"/>
      <point x="592" y="-7"/>
      <point x="517" y="-7" type="curve" smooth="yes"/>
      <point x="368" y="-7"/>
      <point x="265" y="115"/>
      <point x="265" y="356" type="curve"/>
      <point x="550" y="356" type="line"/>
      <point x="550" y="358" type="line"/>
      <point x="265" y="358" type="line"/>
      <point x="265" y="574"/>
      <point x="371" y="688"/>
      <point x="520" y="688" type="curve" smooth="yes"/>
      <point x="593" y="688"/>
      <point x="636" y="662"/>
      <point x="671" y="631" type="curve"/>
      <point x="672" y="633" type="line"/>
      <point x="637" y="664"/>
      <point x="594" y="690"/>
      <point x="520" y="690" type="curve" smooth="yes"/>
      <point x="369" y="690"/>
      <point x="263" y="577"/>
      <point x="263" y="358" type="curve"/>
      <point x="132" y="358" type="line"/>
      <point x="132" y="680" type="line"/>
      <point x="130" y="680" type="line"/>
      <point x="130" y="0" type="line"/>
      <point x="132" y="0" type="line"/>
      <point x="132" y="356" type="line"/>
      <point x="263" y="356" type="line"/>
      <point x="263" y="114"/>
      <point x="366" y="-9"/>
      <point x="517" y="-9" type="curve" smooth="yes"/>
      <point x="593" y="-9"/>
      <point x="637" y="16"/>
      <point x="681" y="50" type="curve"/>
    </contour>
    <contour>
      <point x="363" y="680" type="move" name="top"/>
    </contour>
    <contour>
      <point x="363" y="0" type="move" name="bottom"/>
    </contour>
  </outline>
</glyph>
<glyph name="uni0465" format="1">
  <advance width="667"/>
  <unicode hex="0465"/>
  <outline>
    <contour>
      <point x="125" y="517" type="line"/>
      <point x="125" y="0" type="line"/>
      <point x="127" y="0" type="line"/>
      <point x="127" y="267" type="line"/>
      <point x="274" y="267" type="line"/>
      <point x="274" y="269" type="line"/>
      <point x="127" y="269" type="line"/>
      <point x="127" y="517" type="line"/>
    </contour>
    <contour>
      <point x="478" y="527" type="curve" smooth="yes"/>
      <point x="355" y="527"/>
      <point x="273" y="426"/>
      <point x="273" y="269" type="curve" smooth="yes"/>
      <point x="273" y="87"/>
      <point x="353" y="-9"/>
      <point x="469" y="-9" type="curve" smooth="yes"/>
      <point x="533" y="-9"/>
      <point x="572" y="13"/>
      <point x="612" y="40" type="curve"/>
      <point x="611" y="42" type="line"/>
      <point x="572" y="15"/>
      <point x="532" y="-7"/>
      <point x="469" y="-7" type="curve" smooth="yes"/>
      <point x="354" y="-7"/>
      <point x="276" y="87"/>
      <point x="275" y="267" type="curve"/>
      <point x="275" y="268" type="line"/>
      <point x="275" y="426"/>
      <point x="357" y="525"/>
      <point x="478" y="525" type="curve" smooth="yes"/>
      <point x="529" y="525"/>
      <point x="566" y="510"/>
      <point x="605" y="477" type="curve"/>
      <point x="606" y="479" type="line"/>
      <point x="568" y="511"/>
      <point x="530" y="527"/>
    </contour>
    <contour>
      <point x="274" y="269" type="line"/>
      <point x="274" y="267" type="line"/>
      <point x="552" y="267" type="line"/>
      <point x="552" y="269" type="line"/>
    </contour>
    <contour>
      <point x="334" y="517" type="move" name="top"/>
    </contour>
    <contour>
      <point x="334" y="0" type="move" name="bottom"/>
    </contour>
  </outline>
</glyph>
<glyph name="uni0466" format="1">
  <advance width="556"/>
  <unicode hex="0466"/>
  <outline>
    <contour>
      <point x="521" y="0" type="line"/>
      <point x="278" y="680" type="line"/>
      <point x="276" y="680" type="line"/>
      <point x="35" y="0" type="line"/>
      <point x="37" y="0" type="line"/>
      <point x="165" y="361" type="line"/>
      <point x="274" y="361" type="line"/>
      <point x="274" y="0" type="line"/>
      <point x="276" y="0" type="line"/>
      <point x="276" y="361" type="line"/>
      <point x="390" y="361" type="line"/>
      <point x="519" y="0" type="line"/>
    </contour>
    <contour>
      <point x="277" y="678" type="line"/>
      <point x="389" y="363" type="line"/>
      <point x="165" y="363" type="line"/>
    </contour>
    <contour>
      <point x="278" y="680" type="move" name="top"/>
    </contour>
    <contour>
      <point x="278" y="0" type="move" name="bottom"/>
    </contour>
  </outline>
</glyph>
<glyph name="uni0492" format="1">
  <advance width="524"/>
  <unicode hex="0492"/>
  <outline>
    <contour>
      <point x="504" y="680" type="line"/>
      <point x="133" y="680" type="line"/>
      <point x="133" y="379" type="line"/>
      <point x="35" y="379" type="line"/>
      <point x="35" y="377" type="line"/>
      <point x="133" y="377" type="line"/>
      <point x="133" y="0" type="line"/>
      <point x="135" y="0" type="line"/>
      <point x="135" y="377" type="line"/>
      <point x="299" y="377" type="line"/>
      <point x="299" y="379" type="line"/>
      <point x="135" y="379" type="line"/>
      <point x="135" y="678" type="line"/>
      <point x="504" y="678" type="line"/>
    </contour>
    <contour>
      <point x="333" y="680" type="move" name="top"/>
    </contour>
    <contour>
      <point x="134" y="0" type="move" name="bottom"/>
    </contour>
    <contour>
      <point x="145" y="0" type="move" name="bottomright"/>
    </contour>
  </outline>
</glyph>
<glyph name="uni0494" format="1">
  <advance width="587"/>
  <unicode hex="0494"/>
  <outline>
    <contour>
      <point x="341" y="410" type="curve" smooth="yes"/>
      <point x="252" y="410"/>
      <point x="188" y="369"/>
      <point x="132" y="296" type="curve"/>
      <point x="132" y="678" type="line"/>
      <point x="428" y="678" type="line"/>
      <point x="428" y="680" type="line"/>
      <point x="130" y="680" type="line"/>
      <point x="130" y="0" type="line"/>
      <point x="132" y="0" type="line"/>
      <point x="132" y="293" type="line"/>
      <point x="190" y="368"/>
      <point x="252" y="408"/>
      <point x="341" y="408" type="curve" smooth="yes"/>
      <point x="459" y="408"/>
      <point x="505" y="336"/>
      <point x="505" y="244" type="curve" smooth="yes"/>
      <point x="505" y="-97" type="line" smooth="yes"/>
      <point x="505" y="-158"/>
      <point x="472" y="-190"/>
      <point x="423" y="-190" type="curve" smooth="yes"/>
      <point x="386" y="-190"/>
      <point x="364" y="-178"/>
      <point x="345" y="-162" type="curve"/>
      <point x="344" y="-164" type="line"/>
      <point x="362" y="-179"/>
      <point x="385" y="-192"/>
      <point x="423" y="-192" type="curve" smooth="yes"/>
      <point x="473" y="-192"/>
      <point x="507" y="-159"/>
      <point x="507" y="-97" type="curve" smooth="yes"/>
      <point x="507" y="244" type="line" smooth="yes"/>
      <point x="507" y="337"/>
      <point x="460" y="410"/>
    </contour>
    <contour>
      <point x="294" y="680" type="move" name="top"/>
    </contour>
    <contour>
      <point x="294" y="-188" type="move" name="bottom"/>
    </contour>
  </outline>
</glyph>
<glyph name="uni0495" format="1">
  <advance width="550"/>
  <unicode hex="0495"/>
  <outline>
    <contour>
      <point x="460" y="0" type="line"/>
      <point x="460" y="178" type="line" smooth="yes"/>
      <point x="460" y="277"/>
      <point x="421" y="337"/>
      <point x="326" y="337" type="curve" smooth="yes"/>
      <point x="238" y="337"/>
      <point x="174" y="285"/>
      <point x="126" y="199" type="curve"/>
      <point x="127" y="197" type="line"/>
      <point x="175" y="283"/>
      <point x="239" y="335"/>
      <point x="326" y="335" type="curve" smooth="yes"/>
      <point x="420" y="335"/>
      <point x="458" y="276"/>
      <point x="458" y="178" type="curve" smooth="yes"/>
      <point x="458" y="0" type="line"/>
    </contour>
    <contour>
      <point x="127" y="0" type="line"/>
      <point x="127" y="517" type="line"/>
      <point x="125" y="517" type="line"/>
      <point x="125" y="0" type="line"/>
    </contour>
    <contour>
      <point x="399" y="515" type="line"/>
      <point x="400" y="517" type="line"/>
      <point x="125" y="517" type="line"/>
      <point x="127" y="515" type="line"/>
    </contour>
    <contour>
      <point x="376" y="-192" type="curve" smooth="yes"/>
      <point x="426" y="-192"/>
      <point x="460" y="-159"/>
      <point x="460" y="-97" type="curve" smooth="yes"/>
      <point x="460" y="1" type="line"/>
      <point x="458" y="1" type="line"/>
      <point x="458" y="-97" type="line" smooth="yes"/>
      <point x="458" y="-158"/>
      <point x="425" y="-190"/>
      <point x="376" y="-190" type="curve" smooth="yes"/>
      <point x="339" y="-190"/>
      <point x="317" y="-178"/>
      <point x="298" y="-162" type="curve"/>
      <point x="297" y="-164" type="line"/>
      <point x="315" y="-179"/>
      <point x="338" y="-192"/>
    </contour>
    <contour>
      <point x="275" y="517" type="move" name="top"/>
    </contour>
    <contour>
      <point x="275" y="-188" type="move" name="bottom"/>
    </contour>
  </outline>
</glyph>
<glyph name="uni049C" format="1">
  <advance width="537"/>
  <unicode hex="049C"/>
  <outline>
    <contour>
      <point x="479" y="680" type="line"/>
      <point x="476" y="680" type="line"/>
      <point x="262" y="361" type="line"/>
      <point x="213" y="361" type="line"/>
      <point x="213" y="551" type="line"/>
      <point x="211" y="551" type="line"/>
      <point x="211" y="361" type="line"/>
      <point x="132" y="361" type="line"/>
      <point x="132" y="680" type="line"/>
      <point x="130" y="680" type="line"/>
      <point x="130" y="1" type="line"/>
      <point x="132" y="1" type="line"/>
      <point x="132" y="359" type="line"/>
      <point x="211" y="359" type="line"/>
      <point x="211" y="169" type="line"/>
      <point x="213" y="169" type="line"/>
      <point x="213" y="359" type="line"/>
      <point x="262" y="359" type="line"/>
      <point x="494" y="0" type="line"/>
      <point x="497" y="0" type="line"/>
      <point x="264" y="360" type="line"/>
    </contour>
    <contour>
      <point x="269" y="680" type="move" name="top"/>
    </contour>
    <contour>
      <point x="269" y="0" type="move" name="bottom"/>
    </contour>
  </outline>
</glyph>
<glyph name="uni049E" format="1">
  <advance width="526"/>
  <unicode hex="049E"/>
  <outline>
    <contour>
      <point x="473" y="680" type="line"/>
      <point x="470" y="680" type="line"/>
      <point x="256" y="361" type="line"/>
      <point x="126" y="361" type="line"/>
      <point x="126" y="572" type="line"/>
      <point x="262" y="572" type="line"/>
      <point x="262" y="574" type="line"/>
      <point x="126" y="574" type="line"/>
      <point x="126" y="680" type="line"/>
      <point x="124" y="680" type="line"/>
      <point x="124" y="574" type="line"/>
      <point x="30" y="574" type="line"/>
      <point x="30" y="572" type="line"/>
      <point x="124" y="572" type="line"/>
      <point x="124" y="1" type="line"/>
      <point x="126" y="1" type="line"/>
      <point x="126" y="359" type="line"/>
      <point x="256" y="359" type="line"/>
      <point x="488" y="0" type="line"/>
      <point x="491" y="0" type="line"/>
      <point x="258" y="360" type="line"/>
    </contour>
    <contour>
      <point x="289" y="680" type="move" name="top"/>
    </contour>
    <contour>
      <point x="260" y="0" type="move" name="bottom"/>
    </contour>
    <contour>
      <point x="498" y="0" type="move" name="bottomright"/>
    </contour>
  </outline>
</glyph>
<glyph name="uni04A1" format="1">
  <advance width="503"/>
  <unicode hex="04A1"/>
  <outline>
    <contour>
      <point x="162" y="517" type="line"/>
      <point x="10" y="517" type="line"/>
      <point x="10" y="515" type="line"/>
      <point x="160" y="515" type="line"/>
    </contour>
    <contour>
      <point x="430" y="517" type="line"/>
      <point x="258" y="279" type="line"/>
      <point x="162" y="279" type="line"/>
      <point x="162" y="517" type="line"/>
      <point x="160" y="517" type="line"/>
      <point x="160" y="0" type="line"/>
      <point x="162" y="0" type="line"/>
      <point x="162" y="277" type="line"/>
      <point x="258" y="277" type="line"/>
      <point x="460" y="0" type="line"/>
      <point x="463" y="0" type="line"/>
      <point x="260" y="278" type="line"/>
      <point x="433" y="517" type="line"/>
    </contour>
    <contour>
      <point x="300" y="517" type="move" name="top"/>
    </contour>
    <contour>
      <point x="269" y="0" type="move" name="bottom"/>
    </contour>
    <contour>
      <point x="470" y="0" type="move" name="bottomright"/>
    </contour>
  </outline>
</glyph>
<glyph name="uni04A6" format="1">
  <advance width="980"/>
  <unicode hex="04A6"/>
  <outline>
    <contour>
      <point x="734" y="410" type="curve" smooth="yes"/>
      <point x="644" y="410"/>
      <point x="580" y="369"/>
      <point x="524" y="295" type="curve"/>
      <point x="524" y="680" type="line"/>
      <point x="130" y="680" type="line"/>
      <point x="130" y="0" type="line"/>
      <point x="132" y="0" type="line"/>
      <point x="132" y="678" type="line"/>
      <point x="522" y="678" type="line"/>
      <point x="522" y="0" type="line"/>
      <point x="524" y="0" type="line"/>
      <point x="524" y="292" type="line"/>
      <point x="582" y="368"/>
      <point x="644" y="408"/>
      <point x="734" y="408" type="curve" smooth="yes"/>
      <point x="852" y="408"/>
      <point x="898" y="336"/>
      <point x="898" y="244" type="curve" smooth="yes"/>
      <point x="898" y="-97" type="line" smooth="yes"/>
      <point x="898" y="-158"/>
      <point x="865" y="-190"/>
      <point x="816" y="-190" type="curve" smooth="yes"/>
      <point x="779" y="-190"/>
      <point x="757" y="-178"/>
      <point x="738" y="-162" type="curve"/>
      <point x="737" y="-164" type="line"/>
      <point x="755" y="-179"/>
      <point x="778" y="-192"/>
      <point x="816" y="-192" type="curve" smooth="yes"/>
      <point x="866" y="-192"/>
      <point x="900" y="-159"/>
      <point x="900" y="-97" type="curve" smooth="yes"/>
      <point x="900" y="244" type="line" smooth="yes"/>
      <point x="900" y="339"/>
      <point x="851" y="410"/>
    </contour>
    <contour>
      <point x="490" y="680" type="move" name="top"/>
    </contour>
    <contour>
      <point x="490" y="-188" type="move" name="bottom"/>
    </contour>
    <contour>
      <point x="534" y="0" type="move" name="bottomright"/>
    </contour>
  </outline>
</glyph>
<glyph name="uni04A7" format="1">
  <advance width="871"/>
  <unicode hex="04A7"/>
  <outline>
    <contour>
      <point x="781" y="0" type="line"/>
      <point x="781" y="178" type="line" smooth="yes"/>
      <point x="781" y="277"/>
      <point x="742" y="337"/>
      <point x="647" y="337" type="curve" smooth="yes"/>
      <point x="559" y="337"/>
      <point x="495" y="285"/>
      <point x="447" y="199" type="curve"/>
      <point x="448" y="197" type="line"/>
      <point x="496" y="283"/>
      <point x="560" y="335"/>
      <point x="647" y="335" type="curve" smooth="yes"/>
      <point x="741" y="335"/>
      <point x="779" y="276"/>
      <point x="779" y="178" type="curve" smooth="yes"/>
      <point x="779" y="0" type="line"/>
    </contour>
    <contour>
      <point x="448" y="0" type="line"/>
      <point x="448" y="517" type="line"/>
      <point x="125" y="517" type="line"/>
      <point x="125" y="0" type="line"/>
      <point x="127" y="0" type="line"/>
      <point x="127" y="515" type="line"/>
      <point x="446" y="515" type="line"/>
      <point x="446" y="0" type="line"/>
    </contour>
    <contour>
      <point x="697" y="-192" type="curve" smooth="yes"/>
      <point x="747" y="-192"/>
      <point x="781" y="-159"/>
      <point x="781" y="-97" type="curve" smooth="yes"/>
      <point x="781" y="1" type="line"/>
      <point x="779" y="1" type="line"/>
      <point x="779" y="-97" type="line" smooth="yes"/>
      <point x="779" y="-158"/>
      <point x="746" y="-190"/>
      <point x="697" y="-190" type="curve" smooth="yes"/>
      <point x="660" y="-190"/>
      <point x="638" y="-178"/>
      <point x="619" y="-162" type="curve"/>
      <point x="618" y="-164" type="line"/>
      <point x="636" y="-179"/>
      <point x="659" y="-192"/>
    </contour>
    <contour>
      <point x="436" y="517" type="move" name="top"/>
    </contour>
    <contour>
      <point x="436" y="-188" type="move" name="bottom"/>
    </contour>
    <contour>
      <point x="458" y="0" type="move" name="bottomright"/>
    </contour>
  </outline>
</glyph>
<glyph name="uni04B0" format="1">
  <advance width="479"/>
  <unicode hex="04B0"/>
  <outline>
    <contour>
      <point x="239" y="272" type="line"/>
      <point x="121" y="272" type="line"/>
      <point x="121" y="270" type="line"/>
      <point x="241" y="270" type="line"/>
      <point x="359" y="270" type="line"/>
      <point x="359" y="272" type="line"/>
    </contour>
    <contour>
      <point x="452" y="680" type="line"/>
      <point x="240" y="273" type="line"/>
      <point x="27" y="680" type="line"/>
      <point x="25" y="680" type="line"/>
      <point x="239" y="271" type="line"/>
      <point x="239" y="0" type="line"/>
      <point x="241" y="0" type="line"/>
      <point x="241" y="271" type="line"/>
      <point x="454" y="680" type="line"/>
    </contour>
    <contour>
      <point x="240" y="680" type="move" name="top"/>
    </contour>
    <contour>
      <point x="240" y="0" type="move" name="bottom"/>
    </contour>
    <contour>
      <point x="15" y="680" type="move" name="topleft"/>
    </contour>
  </outline>
</glyph>
<glyph name="uni04B5" format="1">
  <advance width="646"/>
  <unicode hex="04B5"/>
  <outline>
    <contour>
      <point x="15" y="517" type="line"/>
      <point x="15" y="515" type="line"/>
      <point x="204" y="515" type="line"/>
      <point x="206" y="515" type="line"/>
      <point x="395" y="515" type="line"/>
      <point x="395" y="517" type="line"/>
    </contour>
    <contour>
      <point x="519" y="2" type="line"/>
      <point x="206" y="2" type="line"/>
      <point x="206" y="517" type="line"/>
      <point x="204" y="517" type="line"/>
      <point x="204" y="0" type="line"/>
      <point x="521" y="0" type="line"/>
      <point x="521" y="517" type="line"/>
      <point x="519" y="517" type="line"/>
    </contour>
    <contour>
      <point x="521" y="2" type="line"/>
      <point x="521" y="0" type="line"/>
      <point x="574" y="0" type="line"/>
      <point x="574" y="-131" type="line"/>
      <point x="576" y="-131" type="line"/>
      <point x="576" y="2" type="line"/>
    </contour>
    <contour>
      <point x="323" y="517" type="move" name="top"/>
    </contour>
    <contour>
      <point x="323" y="-188" type="move" name="bottom"/>
    </contour>
    <contour>
      <point x="531" y="0" type="move" name="bottomright"/>
    </contour>
  </outline>
</glyph>
<glyph name="uni04BA" format="1">
  <advance width="587"/>
  <unicode hex="04BA"/>
  <outline>
    <contour>
      <point x="341" y="410" type="curve" smooth="yes"/>
      <point x="252" y="410"/>
      <point x="188" y="369"/>
      <point x="132" y="296" type="curve"/>
      <point x="132" y="680" type="line"/>
      <point x="130" y="680" type="line"/>
      <point x="130" y="0" type="line"/>
      <point x="132" y="0" type="line"/>
      <point x="132" y="293" type="line"/>
      <point x="190" y="368"/>
      <point x="252" y="408"/>
      <point x="341" y="408" type="curve" smooth="yes"/>
      <point x="459" y="408"/>
      <point x="505" y="336"/>
      <point x="505" y="244" type="curve" smooth="yes"/>
      <point x="505" y="0" type="line"/>
      <point x="507" y="0" type="line"/>
      <point x="507" y="244" type="line" smooth="yes"/>
      <point x="507" y="337"/>
      <point x="460" y="410"/>
    </contour>
    <contour>
      <point x="294" y="680" type="move" name="top"/>
    </contour>
    <contour>
      <point x="294" y="0" type="move" name="bottom"/>
    </contour>
    <contour>
      <point x="517" y="0" type="move" name="bottomright"/>
    </contour>
  </outline>
</glyph>
<glyph name="uni04BD" format="1">
  <advance width="588"/>
  <unicode hex="04BD"/>
  <outline>
    <contour>
      <point x="25" y="336" type="curve" smooth="yes"/>
      <point x="25" y="282"/>
      <point x="58" y="252"/>
      <point x="123" y="252" type="curve" smooth="yes"/>
      <point x="141" y="252" type="line"/>
      <point x="141" y="254" type="line"/>
      <point x="123" y="254" type="line" smooth="yes"/>
      <point x="59" y="254"/>
      <point x="27" y="283"/>
      <point x="27" y="336" type="curve" smooth="yes"/>
      <point x="27" y="371"/>
      <point x="39" y="392"/>
      <point x="55" y="414" type="curve"/>
      <point x="53" y="415" type="line"/>
      <point x="38" y="394"/>
      <point x="25" y="372"/>
    </contour>
    <contour>
      <point x="336" y="527" type="curve" smooth="yes"/>
      <point x="216" y="527"/>
      <point x="140" y="426"/>
      <point x="140" y="253" type="curve" smooth="yes"/>
      <point x="140" y="85"/>
      <point x="217" y="-9"/>
      <point x="336" y="-9" type="curve" smooth="yes"/>
      <point x="403" y="-9"/>
      <point x="445" y="13"/>
      <point x="490" y="50" type="curve"/>
      <point x="489" y="52" type="line"/>
      <point x="444" y="14"/>
      <point x="401" y="-7"/>
      <point x="336" y="-7" type="curve" smooth="yes"/>
      <point x="219" y="-7"/>
      <point x="142" y="86"/>
      <point x="142" y="253" type="curve"/>
      <point x="142" y="424"/>
      <point x="217" y="525"/>
      <point x="336" y="525" type="curve" smooth="yes"/>
      <point x="458" y="525"/>
      <point x="511" y="422"/>
      <point x="511" y="288" type="curve" smooth="yes"/>
      <point x="511" y="275"/>
      <point x="511" y="267"/>
      <point x="510" y="254" type="curve"/>
      <point x="141" y="254" type="line"/>
      <point x="141" y="252" type="line"/>
      <point x="512" y="252" type="line"/>
      <point x="513" y="266"/>
      <point x="513" y="274"/>
      <point x="513" y="288" type="curve" smooth="yes"/>
      <point x="513" y="424"/>
      <point x="459" y="527"/>
    </contour>
    <contour>
      <point x="424" y="4" type="move" name="ogonek"/>
    </contour>
    <contour>
      <point x="336" y="0" type="move" name="bottom"/>
    </contour>
    <contour>
      <point x="336" y="517" type="move" name="top"/>
    </contour>
  </outline>
</glyph>
<glyph name="uni04C3" format="1">
  <advance width="577"/>
  <unicode hex="04C3"/>
  <outline>
    <contour>
      <point x="479" y="680" type="line"/>
      <point x="476" y="680" type="line"/>
      <point x="282" y="351" type="line"/>
      <point x="132" y="351" type="line"/>
      <point x="132" y="680" type="line"/>
      <point x="130" y="680" type="line"/>
      <point x="130" y="1" type="line"/>
      <point x="132" y="1" type="line"/>
      <point x="132" y="349" type="line"/>
      <point x="283" y="349" type="line" smooth="yes"/>
      <point x="441" y="349"/>
      <point x="495" y="288"/>
      <point x="495" y="146" type="curve" smooth="yes"/>
      <point x="495" y="-97" type="line" smooth="yes"/>
      <point x="495" y="-158"/>
      <point x="462" y="-190"/>
      <point x="413" y="-190" type="curve" smooth="yes"/>
      <point x="376" y="-190"/>
      <point x="354" y="-178"/>
      <point x="335" y="-162" type="curve"/>
      <point x="334" y="-164" type="line"/>
      <point x="352" y="-179"/>
      <point x="375" y="-192"/>
      <point x="413" y="-192" type="curve" smooth="yes"/>
      <point x="463" y="-192"/>
      <point x="497" y="-159"/>
      <point x="497" y="-97" type="curve" smooth="yes"/>
      <point x="497" y="146" type="line" smooth="yes"/>
      <point x="497" y="289"/>
      <point x="442" y="351"/>
      <point x="285" y="351" type="curve"/>
    </contour>
    <contour>
      <point x="289" y="680" type="move" name="top"/>
    </contour>
    <contour>
      <point x="289" y="-188" type="move" name="bottom"/>
    </contour>
  </outline>
</glyph>
<glyph name="uni04C4" format="1">
  <advance width="484"/>
  <unicode hex="04C4"/>
  <outline>
    <contour>
      <point x="395" y="517" type="line"/>
      <point x="243" y="268" type="line"/>
      <point x="127" y="268" type="line"/>
      <point x="127" y="517" type="line"/>
      <point x="125" y="517" type="line"/>
      <point x="125" y="0" type="line"/>
      <point x="127" y="0" type="line"/>
      <point x="127" y="266" type="line"/>
      <point x="245" y="266" type="line"/>
      <point x="245" y="267" type="line"/>
      <point x="398" y="517" type="line"/>
    </contour>
    <contour>
      <point x="245" y="266" type="line"/>
      <point x="363" y="266"/>
      <point x="402" y="217"/>
      <point x="402" y="118" type="curve" smooth="yes"/>
      <point x="402" y="0" type="line"/>
      <point x="404" y="0" type="line"/>
      <point x="404" y="118" type="line" smooth="yes"/>
      <point x="404" y="218"/>
      <point x="364" y="268"/>
      <point x="245" y="268" type="curve"/>
    </contour>
    <contour>
      <point x="320" y="-192" type="curve" smooth="yes"/>
      <point x="370" y="-192"/>
      <point x="404" y="-159"/>
      <point x="404" y="-97" type="curve" smooth="yes"/>
      <point x="404" y="1" type="line"/>
      <point x="402" y="1" type="line"/>
      <point x="402" y="-97" type="line" smooth="yes"/>
      <point x="402" y="-158"/>
      <point x="369" y="-190"/>
      <point x="320" y="-190" type="curve" smooth="yes"/>
      <point x="283" y="-190"/>
      <point x="261" y="-178"/>
      <point x="242" y="-162" type="curve"/>
      <point x="241" y="-164" type="line"/>
      <point x="259" y="-179"/>
      <point x="282" y="-192"/>
    </contour>
    <contour>
      <point x="242" y="517" type="move" name="top"/>
    </contour>
    <contour>
      <point x="242" y="-188" type="move" name="bottom"/>
    </contour>
  </outline>
</glyph>
<glyph name="uni04CC" format="1">
  <advance width="520"/>
  <unicode hex="04CC"/>
  <outline>
    <contour>
      <point x="394" y="290" type="line"/>
      <point x="357" y="240"/>
      <point x="305" y="192"/>
      <point x="213" y="192" type="curve" smooth="yes"/>
      <point x="128" y="192"/>
      <point x="77" y="239"/>
      <point x="77" y="322" type="curve" smooth="yes"/>
      <point x="77" y="517" type="line"/>
      <point x="75" y="517" type="line"/>
      <point x="75" y="322" type="line" smooth="yes"/>
      <point x="75" y="237"/>
      <point x="128" y="190"/>
      <point x="213" y="190" type="curve" smooth="yes"/>
      <point x="304" y="190"/>
      <point x="356" y="237"/>
      <point x="394" y="286" type="curve"/>
    </contour>
    <contour>
      <point x="393" y="0" type="line"/>
      <point x="395" y="0" type="line"/>
      <point x="395" y="517" type="line"/>
      <point x="393" y="517" type="line"/>
    </contour>
    <contour>
      <point x="340" y="-131" type="line"/>
      <point x="342" y="-131" type="line"/>
      <point x="342" y="0" type="line"/>
      <point x="395" y="0" type="line"/>
      <point x="395" y="2" type="line"/>
      <point x="340" y="2" type="line"/>
    </contour>
    <contour>
      <point x="260" y="517" type="move" name="top"/>
    </contour>
    <contour>
      <point x="260" y="-188" type="move" name="bottom"/>
    </contour>
  </outline>
</glyph>
<glyph name="uni04FA" format="1">
  <advance width="524"/>
  <unicode hex="04FA"/>
  <outline>
    <contour>
      <point x="504" y="680" type="line"/>
      <point x="133" y="680" type="line"/>
      <point x="133" y="379" type="line"/>
      <point x="35" y="379" type="line"/>
      <point x="35" y="377" type="line"/>
      <point x="133" y="377" type="line"/>
      <point x="133" y="0" type="line"/>
      <point x="186" y="0" type="line"/>
      <point x="186" y="-97" type="line" smooth="yes"/>
      <point x="186" y="-158"/>
      <point x="153" y="-190"/>
      <point x="104" y="-190" type="curve" smooth="yes"/>
      <point x="67" y="-190"/>
      <point x="45" y="-178"/>
      <point x="26" y="-162" type="curve"/>
      <point x="25" y="-164" type="line"/>
      <point x="43" y="-179"/>
      <point x="66" y="-192"/>
      <point x="104" y="-192" type="curve" smooth="yes"/>
      <point x="154" y="-192"/>
      <point x="188" y="-159"/>
      <point x="188" y="-97" type="curve" smooth="yes"/>
      <point x="188" y="2" type="line"/>
      <point x="135" y="2" type="line"/>
      <point x="135" y="377" type="line"/>
      <point x="299" y="377" type="line"/>
      <point x="299" y="379" type="line"/>
      <point x="135" y="379" type="line"/>
      <point x="135" y="678" type="line"/>
      <point x="504" y="678" type="line"/>
    </contour>
    <contour>
      <point x="333" y="680" type="move" name="top"/>
    </contour>
    <contour>
      <point x="134" y="0" type="move" name="bottom"/>
    </contour>
    <contour>
      <point x="145" y="0" type="move" name="bottomright"/>
    </contour>
  </outline>
</glyph>
<glyph name="uni04FB" format="1">
  <advance width="415"/>
  <unicode hex="04FB"/>
  <outline>
    <contour>
      <point x="126" y="0" type="line"/>
      <point x="180" y="0" type="line"/>
      <point x="180" y="2" type="line"/>
      <point x="126" y="2" type="line"/>
    </contour>
    <contour>
      <point x="125" y="293" type="line"/>
      <point x="58" y="293" type="line"/>
      <point x="58" y="291" type="line"/>
      <point x="266" y="291" type="line"/>
      <point x="266" y="293" type="line"/>
    </contour>
    <contour>
      <point x="127" y="515" type="line"/>
      <point x="399" y="515" type="line"/>
      <point x="400" y="517" type="line"/>
      <point x="125" y="517" type="line"/>
      <point x="125" y="0" type="line"/>
      <point x="127" y="0" type="line"/>
    </contour>
    <contour>
      <point x="96" y="-192" type="curve" smooth="yes"/>
      <point x="146" y="-192"/>
      <point x="180" y="-159"/>
      <point x="180" y="-97" type="curve" smooth="yes"/>
      <point x="180" y="1" type="line"/>
      <point x="178" y="1" type="line"/>
      <point x="178" y="-97" type="line" smooth="yes"/>
      <point x="178" y="-158"/>
      <point x="145" y="-190"/>
      <point x="96" y="-190" type="curve" smooth="yes"/>
      <point x="59" y="-190"/>
      <point x="37" y="-178"/>
      <point x="18" y="-162" type="curve"/>
      <point x="17" y="-164" type="line"/>
      <point x="35" y="-179"/>
      <point x="58" y="-192"/>
    </contour>
    <contour>
      <point x="208" y="517" type="move" name="top"/>
    </contour>
    <contour>
      <point x="208" y="-188" type="move" name="bottom"/>
    </contour>
    <contour>
      <point x="137" y="0" type="move" name="bottomright"/>
    </contour>
  </outline>
</glyph>
<glyph name="uni04FC" format="1">
  <advance width="494"/>
  <unicode hex="04FC"/>
  <outline>
    <contour>
      <point x="446" y="0" type="line"/>
      <point x="499" y="0" type="line"/>
      <point x="499" y="2" type="line"/>
      <point x="445" y="2" type="line"/>
    </contour>
    <contour>
      <point x="415" y="-192" type="curve" smooth="yes"/>
      <point x="465" y="-192"/>
      <point x="499" y="-159"/>
      <point x="499" y="-97" type="curve" smooth="yes"/>
      <point x="499" y="1" type="line"/>
      <point x="497" y="1" type="line"/>
      <point x="497" y="-97" type="line" smooth="yes"/>
      <point x="497" y="-158"/>
      <point x="464" y="-190"/>
      <point x="415" y="-190" type="curve" smooth="yes"/>
      <point x="378" y="-190"/>
      <point x="356" y="-178"/>
      <point x="337" y="-162" type="curve"/>
      <point x="336" y="-164" type="line"/>
      <point x="354" y="-179"/>
      <point x="377" y="-192"/>
    </contour>
    <contour>
      <point x="51" y="680" type="line"/>
      <point x="231" y="370" type="line"/>
      <point x="233" y="369" type="line"/>
      <point x="445" y="0" type="line"/>
      <point x="447" y="0" type="line"/>
      <point x="235" y="370" type="line"/>
      <point x="233" y="371" type="line"/>
      <point x="53" y="680" type="line"/>
    </contour>
    <contour>
      <point x="414" y="680" type="line"/>
      <point x="233" y="371" type="line"/>
      <point x="231" y="370" type="line"/>
      <point x="20" y="0" type="line"/>
      <point x="22" y="0" type="line"/>
      <point x="233" y="369" type="line"/>
      <point x="235" y="370" type="line"/>
      <point x="416" y="680" type="line"/>
    </contour>
    <contour>
      <point x="234" y="680" type="move" name="top"/>
    </contour>
    <contour>
      <point x="234" y="0" type="move" name="bottom"/>
    </contour>
    <contour>
      <point x="454" y="0" type="move" name="bottomright"/>
    </contour>
  </outline>
</glyph>
<glyph name="uni04FD" format="1">
  <advance width="457"/>
  <unicode hex="04FD"/>
  <outline>
    <contour>
      <point x="397" y="0" type="line"/>
      <point x="452" y="0" type="line"/>
      <point x="452" y="2" type="line"/>
      <point x="397" y="2" type="line"/>
    </contour>
    <contour>
      <point x="368" y="-192" type="curve" smooth="yes"/>
      <point x="418" y="-192"/>
      <point x="452" y="-159"/>
      <point x="452" y="-97" type="curve" smooth="yes"/>
      <point x="452" y="1" type="line"/>
      <point x="450" y="1" type="line"/>
      <point x="450" y="-97" type="line" smooth="yes"/>
      <point x="450" y="-158"/>
      <point x="417" y="-190"/>
      <point x="368" y="-190" type="curve" smooth="yes"/>
      <point x="331" y="-190"/>
      <point x="309" y="-178"/>
      <point x="290" y="-162" type="curve"/>
      <point x="289" y="-164" type="line"/>
      <point x="307" y="-179"/>
      <point x="330" y="-192"/>
    </contour>
    <contour>
      <point x="52" y="517" type="line"/>
      <point x="209" y="278" type="line"/>
      <point x="210" y="277" type="line"/>
      <point x="397" y="0" type="line"/>
      <point x="399" y="0" type="line"/>
      <point x="211" y="278" type="line"/>
      <point x="210" y="279" type="line"/>
      <point x="54" y="517" type="line"/>
    </contour>
    <contour>
      <point x="370" y="517" type="line"/>
      <point x="210" y="279" type="line"/>
      <point x="209" y="278" type="line"/>
      <point x="25" y="0" type="line"/>
      <point x="27" y="0" type="line"/>
      <point x="210" y="277" type="line"/>
      <point x="211" y="278" type="line"/>
      <point x="372" y="517" type="line"/>
    </contour>
    <contour>
      <point x="229" y="517" type="move" name="top"/>
    </contour>
    <contour>
      <point x="229" y="-188" type="move" name="bottom"/>
    </contour>
    <contour>
      <point x="407" y="0" type="move" name="bottomright"/>
    </contour>
  </outline>
</glyph>
<glyph name="uni04FE" format="1">
  <advance width="467"/>
  <unicode hex="04FE"/>
  <outline>
    <contour>
      <point x="51" y="680" type="line"/>
      <point x="231" y="370" type="line"/>
      <point x="233" y="369" type="line"/>
      <point x="445" y="0" type="line"/>
      <point x="447" y="0" type="line"/>
      <point x="235" y="370" type="line"/>
      <point x="233" y="371" type="line"/>
      <point x="53" y="680" type="line"/>
    </contour>
    <contour>
      <point x="414" y="680" type="line"/>
      <point x="233" y="371" type="line"/>
      <point x="231" y="370" type="line"/>
      <point x="20" y="0" type="line"/>
      <point x="22" y="0" type="line"/>
      <point x="233" y="369" type="line"/>
      <point x="235" y="370" type="line"/>
      <point x="416" y="680" type="line"/>
    </contour>
    <contour>
      <point x="406" y="369" type="line"/>
      <point x="406" y="371" type="line"/>
      <point x="61" y="371" type="line"/>
      <point x="61" y="369" type="line"/>
    </contour>
    <contour>
      <point x="234" y="680" type="move" name="top"/>
    </contour>
    <contour>
      <point x="234" y="0" type="move" name="bottom"/>
    </contour>
  </outline>
</glyph>
<glyph name="uni04FF" format="1">
  <advance width="424"/>
  <unicode hex="04FF"/>
  <outline>
    <contour>
      <point x="52" y="517" type="line"/>
      <point x="209" y="278" type="line"/>
      <point x="210" y="277" type="line"/>
      <point x="397" y="0" type="line"/>
      <point x="399" y="0" type="line"/>
      <point x="211" y="278" type="line"/>
      <point x="210" y="279" type="line"/>
      <point x="54" y="517" type="line"/>
    </contour>
    <contour>
      <point x="370" y="517" type="line"/>
      <point x="210" y="279" type="line"/>
      <point x="209" y="278" type="line"/>
      <point x="25" y="0" type="line"/>
      <point x="27" y="0" type="line"/>
      <point x="210" y="277" type="line"/>
      <point x="211" y="278" type="line"/>
      <point x="372" y="517" type="line"/>
    </contour>
    <contour>
      <point x="362" y="277" type="line"/>
      <point x="362" y="279" type="line"/>
      <point x="63" y="279" type="line"/>
      <point x="63" y="277" type="line"/>
    </contour>
    <contour>
      <point x="212" y="517" type="move" name="top"/>
    </contour>
    <contour>
      <point x="212" y="0" type="move" name="bottom"/>
    </contour>
  </outline>
</glyph>
<glyph name="uni0502" format="1">
  <advance width="830"/>
  <unicode hex="0502"/>
  <outline>
    <contour>
      <point x="233" y="-9" type="curve" smooth="yes"/>
      <point x="323" y="-9"/>
      <point x="387" y="41"/>
      <point x="418" y="150" type="curve"/>
      <point x="419" y="153" type="line"/>
      <point x="419" y="680" type="line"/>
      <point x="417" y="680" type="line"/>
      <point x="417" y="155" type="line"/>
      <point x="387" y="43"/>
      <point x="322" y="-7"/>
      <point x="233" y="-7" type="curve" smooth="yes"/>
      <point x="140" y="-7"/>
      <point x="62" y="56"/>
      <point x="62" y="187" type="curve" smooth="yes"/>
      <point x="62" y="326"/>
      <point x="145" y="397"/>
      <point x="280" y="397" type="curve" smooth="yes"/>
      <point x="418" y="397" type="line"/>
      <point x="418" y="399" type="line"/>
      <point x="280" y="399" type="line" smooth="yes"/>
      <point x="144" y="399"/>
      <point x="60" y="327"/>
      <point x="60" y="187" type="curve" smooth="yes"/>
      <point x="60" y="55"/>
      <point x="139" y="-9"/>
    </contour>
    <contour>
      <point x="564" y="-9" type="curve" smooth="yes"/>
      <point x="670" y="-9"/>
      <point x="750" y="71"/>
      <point x="750" y="268" type="curve" smooth="yes"/>
      <point x="750" y="307"/>
      <point x="748" y="344"/>
      <point x="744" y="379" type="curve"/>
      <point x="742" y="379" type="line"/>
      <point x="746" y="344"/>
      <point x="748" y="307"/>
      <point x="748" y="268" type="curve" smooth="yes"/>
      <point x="748" y="72"/>
      <point x="669" y="-7"/>
      <point x="564" y="-7" type="curve" smooth="yes"/>
      <point x="482" y="-7"/>
      <point x="419" y="47"/>
      <point x="419" y="153" type="curve" smooth="yes"/>
      <point x="419" y="517" type="line"/>
      <point x="417" y="517" type="line"/>
      <point x="417" y="153" type="line" smooth="yes"/>
      <point x="417" y="45"/>
      <point x="481" y="-9"/>
    </contour>
    <contour>
      <point x="415" y="680" type="move" name="top"/>
    </contour>
    <contour>
      <point x="415" y="0" type="move" name="bottom"/>
    </contour>
  </outline>
</glyph>
<glyph name="uni0514" format="1">
  <advance width="770"/>
  <unicode hex="0514"/>
  <outline>
    <contour>
      <point x="61" y="-1" type="line"/>
      <point x="130" y="28"/>
      <point x="142" y="54"/>
      <point x="159" y="299" type="curve" smooth="yes"/>
      <point x="185" y="678" type="line"/>
      <point x="183" y="680" type="line"/>
      <point x="157" y="300" type="line" smooth="yes"/>
      <point x="140" y="56"/>
      <point x="128" y="29"/>
      <point x="61" y="1" type="curve"/>
    </contour>
    <contour>
      <point x="356" y="678" type="line"/>
      <point x="356" y="680" type="line"/>
      <point x="183" y="680" type="line"/>
      <point x="184" y="678" type="line"/>
    </contour>
    <contour>
      <point x="354" y="680" type="line"/>
      <point x="534" y="370" type="line"/>
      <point x="536" y="369" type="line"/>
      <point x="748" y="0" type="line"/>
      <point x="750" y="0" type="line"/>
      <point x="538" y="370" type="line"/>
      <point x="536" y="371" type="line"/>
      <point x="356" y="680" type="line"/>
    </contour>
    <contour>
      <point x="717" y="680" type="line"/>
      <point x="536" y="371" type="line"/>
      <point x="534" y="370" type="line"/>
      <point x="323" y="0" type="line"/>
      <point x="325" y="0" type="line"/>
      <point x="536" y="369" type="line"/>
      <point x="538" y="370" type="line"/>
      <point x="719" y="680" type="line"/>
    </contour>
    <contour>
      <point x="385" y="680" type="move" name="top"/>
    </contour>
    <contour>
      <point x="385" y="0" type="move" name="bottom"/>
    </contour>
    <contour>
      <point x="757" y="0" type="move" name="bottomright"/>
    </contour>
  </outline>
</glyph>
<glyph name="uni0515" format="1">
  <advance width="635"/>
  <unicode hex="0515"/>
  <outline>
    <contour>
      <point x="148" y="515" type="line"/>
      <point x="265" y="515" type="line"/>
      <point x="265" y="517" type="line"/>
      <point x="147" y="517" type="line"/>
    </contour>
    <contour>
      <point x="147" y="517" type="line"/>
      <point x="139" y="285" type="line" smooth="yes"/>
      <point x="131" y="67"/>
      <point x="115" y="23"/>
      <point x="53" y="1" type="curve"/>
      <point x="53" y="-1" type="line"/>
      <point x="117" y="22"/>
      <point x="133" y="65"/>
      <point x="141" y="285" type="curve" smooth="yes"/>
      <point x="149" y="515" type="line"/>
    </contour>
    <contour>
      <point x="263" y="517" type="line"/>
      <point x="420" y="278" type="line"/>
      <point x="421" y="277" type="line"/>
      <point x="608" y="0" type="line"/>
      <point x="610" y="0" type="line"/>
      <point x="422" y="278" type="line"/>
      <point x="421" y="279" type="line"/>
      <point x="265" y="517" type="line"/>
    </contour>
    <contour>
      <point x="581" y="517" type="line"/>
      <point x="421" y="279" type="line"/>
      <point x="420" y="278" type="line"/>
      <point x="236" y="0" type="line"/>
      <point x="238" y="0" type="line"/>
      <point x="421" y="277" type="line"/>
      <point x="422" y="278" type="line"/>
      <point x="583" y="517" type="line"/>
    </contour>
    <contour>
      <point x="318" y="517" type="move" name="top"/>
    </contour>
    <contour>
      <point x="318" y="0" type="move" name="bottom"/>
    </contour>
    <contour>
      <point x="618" y="0" type="move" name="bottomright"/>
    </contour>
  </outline>
</glyph>
<glyph name="uni051E" format="1">
  <advance width="532"/>
  <unicode hex="051E"/>
  <outline>
    <contour>
      <point x="498" y="441" type="line"/>
      <point x="500" y="443" type="line"/>
      <point x="250" y="612" type="line"/>
      <point x="248" y="610" type="line"/>
    </contour>
    <contour>
      <point x="476" y="680" type="line"/>
      <point x="262" y="361" type="line"/>
      <point x="132" y="361" type="line"/>
      <point x="132" y="680" type="line"/>
      <point x="130" y="680" type="line"/>
      <point x="130" y="1" type="line"/>
      <point x="132" y="1" type="line"/>
      <point x="132" y="359" type="line"/>
      <point x="262" y="359" type="line"/>
      <point x="494" y="0" type="line"/>
      <point x="497" y="0" type="line"/>
      <point x="264" y="360" type="line"/>
      <point x="479" y="680" type="line"/>
    </contour>
    <contour>
      <point x="295" y="680" type="move" name="top"/>
    </contour>
    <contour>
      <point x="266" y="0" type="move" name="bottom"/>
    </contour>
    <contour>
      <point x="504" y="0" type="move" name="bottomright"/>
    </contour>
  </outline>
</glyph>
<glyph name="uni0520" format="1">
  <advance width="957"/>
  <unicode hex="0520"/>
  <outline>
    <contour>
      <point x="711" y="410" type="curve" smooth="yes"/>
      <point x="621" y="410"/>
      <point x="557" y="369"/>
      <point x="501" y="295" type="curve"/>
      <point x="501" y="292" type="line"/>
      <point x="559" y="368"/>
      <point x="621" y="408"/>
      <point x="711" y="408" type="curve" smooth="yes"/>
      <point x="829" y="408"/>
      <point x="875" y="336"/>
      <point x="875" y="244" type="curve" smooth="yes"/>
      <point x="875" y="0" type="line"/>
      <point x="877" y="0" type="line"/>
      <point x="877" y="244" type="line" smooth="yes"/>
      <point x="877" y="339"/>
      <point x="828" y="410"/>
    </contour>
    <contour>
      <point x="193" y="680" type="line"/>
      <point x="194" y="678" type="line"/>
      <point x="499" y="678" type="line"/>
      <point x="499" y="0" type="line"/>
      <point x="501" y="0" type="line"/>
      <point x="501" y="680" type="line"/>
    </contour>
    <contour>
      <point x="157" y="300" type="line" smooth="yes"/>
      <point x="134" y="57"/>
      <point x="128" y="29"/>
      <point x="61" y="1" type="curve"/>
      <point x="61" y="-1" type="line"/>
      <point x="130" y="28"/>
      <point x="136" y="55"/>
      <point x="159" y="299" type="curve" smooth="yes"/>
      <point x="195" y="678" type="line"/>
      <point x="193" y="680" type="line"/>
    </contour>
    <contour>
      <point x="793" y="-192" type="curve" smooth="yes"/>
      <point x="843" y="-192"/>
      <point x="877" y="-159"/>
      <point x="877" y="-97" type="curve" smooth="yes"/>
      <point x="877" y="1" type="line"/>
      <point x="875" y="1" type="line"/>
      <point x="875" y="-97" type="line" smooth="yes"/>
      <point x="875" y="-158"/>
      <point x="842" y="-190"/>
      <point x="793" y="-190" type="curve" smooth="yes"/>
      <point x="756" y="-190"/>
      <point x="734" y="-178"/>
      <point x="715" y="-162" type="curve"/>
      <point x="714" y="-164" type="line"/>
      <point x="732" y="-179"/>
      <point x="755" y="-192"/>
    </contour>
    <contour>
      <point x="479" y="680" type="move" name="top"/>
    </contour>
    <contour>
      <point x="479" y="-188" type="move" name="bottom"/>
    </contour>
    <contour>
      <point x="511" y="0" type="move" name="bottomright"/>
    </contour>
  </outline>
</glyph>
<glyph name="uni0521" format="1">
  <advance width="853"/>
  <unicode hex="0521"/>
  <outline>
    <contour>
      <point x="763" y="0" type="line"/>
      <point x="763" y="178" type="line" smooth="yes"/>
      <point x="763" y="277"/>
      <point x="724" y="337"/>
      <point x="629" y="337" type="curve" smooth="yes"/>
      <point x="541" y="337"/>
      <point x="477" y="285"/>
      <point x="429" y="199" type="curve"/>
      <point x="430" y="197" type="line"/>
      <point x="478" y="283"/>
      <point x="542" y="335"/>
      <point x="629" y="335" type="curve" smooth="yes"/>
      <point x="723" y="335"/>
      <point x="761" y="276"/>
      <point x="761" y="178" type="curve" smooth="yes"/>
      <point x="761" y="0" type="line"/>
    </contour>
    <contour>
      <point x="157" y="515" type="line"/>
      <point x="428" y="515" type="line"/>
      <point x="428" y="0" type="line"/>
      <point x="430" y="0" type="line"/>
      <point x="430" y="517" type="line"/>
      <point x="156" y="517" type="line"/>
    </contour>
    <contour>
      <point x="156" y="517" type="line"/>
      <point x="139" y="285" type="line" smooth="yes"/>
      <point x="123" y="67"/>
      <point x="115" y="23"/>
      <point x="53" y="1" type="curve"/>
      <point x="53" y="-1" type="line"/>
      <point x="117" y="22"/>
      <point x="125" y="65"/>
      <point x="141" y="285" type="curve" smooth="yes"/>
      <point x="158" y="515" type="line"/>
    </contour>
    <contour>
      <point x="679" y="-192" type="curve" smooth="yes"/>
      <point x="729" y="-192"/>
      <point x="763" y="-159"/>
      <point x="763" y="-97" type="curve" smooth="yes"/>
      <point x="763" y="1" type="line"/>
      <point x="761" y="1" type="line"/>
      <point x="761" y="-97" type="line" smooth="yes"/>
      <point x="761" y="-158"/>
      <point x="728" y="-190"/>
      <point x="679" y="-190" type="curve" smooth="yes"/>
      <point x="642" y="-190"/>
      <point x="620" y="-178"/>
      <point x="601" y="-162" type="curve"/>
      <point x="600" y="-164" type="line"/>
      <point x="618" y="-179"/>
      <point x="641" y="-192"/>
    </contour>
    <contour>
      <point x="427" y="517" type="move" name="top"/>
    </contour>
    <contour>
      <point x="427" y="-188" type="move" name="bottom"/>
    </contour>
    <contour>
      <point x="440" y="0" type="move" name="bottomright"/>
    </contour>
  </outline>
</glyph>
<glyph name="uni0522" format="1">
  <advance width="980"/>
  <unicode hex="0522"/>
  <outline>
    <contour>
      <point x="734" y="410" type="curve" smooth="yes"/>
      <point x="644" y="410"/>
      <point x="580" y="369"/>
      <point x="524" y="295" type="curve"/>
      <point x="524" y="292" type="line"/>
      <point x="582" y="368"/>
      <point x="644" y="408"/>
      <point x="734" y="408" type="curve" smooth="yes"/>
      <point x="852" y="408"/>
      <point x="898" y="336"/>
      <point x="898" y="244" type="curve" smooth="yes"/>
      <point x="898" y="0" type="line"/>
      <point x="900" y="0" type="line"/>
      <point x="900" y="244" type="line" smooth="yes"/>
      <point x="900" y="339"/>
      <point x="851" y="410"/>
    </contour>
    <contour>
      <point x="524" y="0" type="line"/>
      <point x="524" y="680" type="line"/>
      <point x="522" y="680" type="line"/>
      <point x="522" y="362" type="line"/>
      <point x="132" y="362" type="line"/>
      <point x="132" y="680" type="line"/>
      <point x="130" y="680" type="line"/>
      <point x="130" y="0" type="line"/>
      <point x="132" y="0" type="line"/>
      <point x="132" y="360" type="line"/>
      <point x="522" y="360" type="line"/>
      <point x="522" y="0" type="line"/>
    </contour>
    <contour>
      <point x="816" y="-192" type="curve" smooth="yes"/>
      <point x="866" y="-192"/>
      <point x="900" y="-159"/>
      <point x="900" y="-97" type="curve" smooth="yes"/>
      <point x="900" y="1" type="line"/>
      <point x="898" y="1" type="line"/>
      <point x="898" y="-97" type="line" smooth="yes"/>
      <point x="898" y="-158"/>
      <point x="865" y="-190"/>
      <point x="816" y="-190" type="curve" smooth="yes"/>
      <point x="779" y="-190"/>
      <point x="757" y="-178"/>
      <point x="738" y="-162" type="curve"/>
      <point x="737" y="-164" type="line"/>
      <point x="755" y="-179"/>
      <point x="778" y="-192"/>
    </contour>
    <contour>
      <point x="490" y="-188" type="move" name="bottom"/>
    </contour>
    <contour>
      <point x="490" y="680" type="move" name="top"/>
    </contour>
    <contour>
      <point x="80" y="680" type="move" name="topleft"/>
    </contour>
    <contour>
      <point x="534" y="0" type="move" name="bottomright"/>
    </contour>
    <contour>
      <point x="326" y="340" type="move" name="center"/>
    </contour>
  </outline>
</glyph>
<glyph name="uni0523" format="1">
  <advance width="876"/>
  <unicode hex="0523"/>
  <outline>
    <contour>
      <point x="786" y="0" type="line"/>
      <point x="786" y="178" type="line" smooth="yes"/>
      <point x="786" y="277"/>
      <point x="747" y="337"/>
      <point x="652" y="337" type="curve" smooth="yes"/>
      <point x="564" y="337"/>
      <point x="500" y="285"/>
      <point x="452" y="199" type="curve"/>
      <point x="453" y="197" type="line"/>
      <point x="501" y="283"/>
      <point x="565" y="335"/>
      <point x="652" y="335" type="curve" smooth="yes"/>
      <point x="746" y="335"/>
      <point x="784" y="276"/>
      <point x="784" y="178" type="curve" smooth="yes"/>
      <point x="784" y="0" type="line"/>
    </contour>
    <contour>
      <point x="453" y="0" type="line"/>
      <point x="453" y="517" type="line"/>
      <point x="451" y="517" type="line"/>
      <point x="451" y="273" type="line"/>
      <point x="127" y="273" type="line"/>
      <point x="127" y="517" type="line"/>
      <point x="125" y="517" type="line"/>
      <point x="125" y="0" type="line"/>
      <point x="127" y="0" type="line"/>
      <point x="127" y="271" type="line"/>
      <point x="451" y="271" type="line"/>
      <point x="451" y="0" type="line"/>
    </contour>
    <contour>
      <point x="702" y="-192" type="curve" smooth="yes"/>
      <point x="752" y="-192"/>
      <point x="786" y="-159"/>
      <point x="786" y="-97" type="curve" smooth="yes"/>
      <point x="786" y="1" type="line"/>
      <point x="784" y="1" type="line"/>
      <point x="784" y="-97" type="line" smooth="yes"/>
      <point x="784" y="-158"/>
      <point x="751" y="-190"/>
      <point x="702" y="-190" type="curve" smooth="yes"/>
      <point x="665" y="-190"/>
      <point x="643" y="-178"/>
      <point x="624" y="-162" type="curve"/>
      <point x="623" y="-164" type="line"/>
      <point x="641" y="-179"/>
      <point x="664" y="-192"/>
    </contour>
    <contour>
      <point x="438" y="517" type="move" name="top"/>
    </contour>
    <contour>
      <point x="438" y="-188" type="move" name="bottom"/>
    </contour>
    <contour>
      <point x="463" y="0" type="move" name="bottomright"/>
    </contour>
  </outline>
</glyph>
<glyph name="uni052A" format="1">
  <advance width="827"/>
  <unicode hex="052A"/>
  <outline>
    <contour>
      <point x="2" y="-131" type="line"/>
      <point x="2" y="0" type="line"/>
      <point x="408" y="0" type="line"/>
      <point x="408" y="-131" type="line"/>
      <point x="410" y="-131" type="line"/>
      <point x="410" y="0" type="line"/>
      <point x="495" y="0" type="line"/>
      <point x="495" y="359" type="line"/>
      <point x="587" y="359" type="line"/>
      <point x="789" y="0" type="line"/>
      <point x="792" y="0" type="line"/>
      <point x="589" y="360" type="line"/>
      <point x="774" y="680" type="line"/>
      <point x="771" y="680" type="line"/>
      <point x="587" y="361" type="line"/>
      <point x="495" y="361" type="line"/>
      <point x="495" y="680" type="line"/>
      <point x="493" y="680" type="line"/>
      <point x="493" y="361" type="line"/>
      <point x="378" y="361" type="line"/>
      <point x="378" y="680" type="line"/>
      <point x="185" y="680" type="line"/>
      <point x="144" y="351" type="line" smooth="yes"/>
      <point x="112" y="95"/>
      <point x="89" y="43"/>
      <point x="32" y="2" type="curve"/>
      <point x="0" y="2" type="line"/>
      <point x="0" y="-131" type="line"/>
    </contour>
    <contour>
      <point x="35" y="2" type="line"/>
      <point x="91" y="43"/>
      <point x="114" y="96"/>
      <point x="146" y="351" type="curve" smooth="yes"/>
      <point x="187" y="678" type="line"/>
      <point x="376" y="678" type="line"/>
      <point x="376" y="2" type="line"/>
    </contour>
    <contour>
      <point x="378" y="359" type="line"/>
      <point x="493" y="359" type="line"/>
      <point x="493" y="2" type="line"/>
      <point x="378" y="2" type="line"/>
    </contour>
    <contour>
      <point x="1" y="0" type="move" name="_bottom"/>
    </contour>
    <contour>
      <point x="414" y="-188" type="move" name="bottom"/>
    </contour>
    <contour>
      <point x="414" y="680" type="move" name="top"/>
    </contour>
  </outline>
</glyph>
<glyph name="uni052B" format="1">
  <advance width="722"/>
  <unicode hex="052B"/>
  <outline>
    <contour>
      <point x="322" y="0" type="line"/>
      <point x="322" y="517" type="line"/>
      <point x="151" y="517" type="line"/>
      <point x="137" y="306" type="line" smooth="yes"/>
      <point x="122" y="87"/>
      <point x="94" y="36"/>
      <point x="42" y="2" type="curve"/>
      <point x="44" y="1" type="line"/>
      <point x="97" y="35"/>
      <point x="124" y="88"/>
      <point x="139" y="306" type="curve" smooth="yes"/>
      <point x="153" y="515" type="line"/>
      <point x="320" y="515" type="line"/>
      <point x="320" y="2" type="line"/>
      <point x="42" y="2" type="line"/>
      <point x="42" y="0" type="line"/>
    </contour>
    <contour>
      <point x="489" y="277" type="line"/>
      <point x="489" y="279" type="line"/>
      <point x="320" y="279" type="line"/>
      <point x="320" y="277" type="line"/>
    </contour>
    <contour>
      <point x="422" y="0" type="line"/>
      <point x="422" y="277" type="line"/>
      <point x="487" y="277" type="line"/>
      <point x="679" y="0" type="line"/>
      <point x="682" y="0" type="line"/>
      <point x="489" y="278" type="line"/>
      <point x="652" y="517" type="line"/>
      <point x="649" y="517" type="line"/>
      <point x="487" y="279" type="line"/>
      <point x="422" y="279" type="line"/>
      <point x="422" y="517" type="line"/>
      <point x="420" y="517" type="line"/>
      <point x="420" y="0" type="line"/>
    </contour>
    <contour>
      <point x="421" y="0" type="line"/>
      <point x="421" y="2" type="line"/>
      <point x="336" y="2" type="line"/>
      <point x="336" y="0" type="line"/>
    </contour>
    <contour>
      <point x="289" y="2" type="line"/>
      <point x="289" y="0" type="line"/>
      <point x="342" y="0" type="line"/>
      <point x="342" y="-131" type="line"/>
      <point x="344" y="-131" type="line"/>
      <point x="344" y="2" type="line"/>
    </contour>
    <contour>
      <point x="15" y="-131" type="line"/>
      <point x="17" y="-131" type="line"/>
      <point x="17" y="0" type="line"/>
      <point x="70" y="0" type="line"/>
      <point x="70" y="2" type="line"/>
      <point x="15" y="2" type="line"/>
    </contour>
    <contour>
      <point x="343" y="0" type="move" name="_bottom"/>
    </contour>
    <contour>
      <point x="361" y="-188" type="move" name="bottom"/>
    </contour>
    <contour>
      <point x="361" y="517" type="move" name="top"/>
    </contour>
  </outline>
</glyph>
<glyph name="uni1D6C" format="1">
  <advance width="635"/>
  <unicode hex="1D6C"/>
  <outline>
    <contour>
      <point x="269" y="604" type="curve"/>
      <point x="304" y="604"/>
      <point x="328" y="627"/>
      <point x="339" y="649" type="curve"/>
      <point x="337" y="649" type="line"/>
      <point x="324" y="626"/>
      <point x="303" y="606"/>
      <point x="269" y="606" type="curve"/>
      <point x="222" y="606"/>
      <point x="175" y="661"/>
      <point x="127" y="661" type="curve"/>
      <point x="93" y="661"/>
      <point x="69" y="638"/>
      <point x="55" y="616" type="curve"/>
      <point x="57" y="616" type="line"/>
      <point x="73" y="639"/>
      <point x="94" y="659"/>
      <point x="127" y="659" type="curve"/>
      <point x="175" y="659"/>
      <point x="222" y="604"/>
    </contour>
    <contour>
      <point x="377" y="527" type="curve" smooth="yes"/>
      <point x="294" y="527"/>
      <point x="242" y="481"/>
      <point x="199" y="420" type="curve"/>
      <point x="199" y="417" type="line"/>
      <point x="245" y="482"/>
      <point x="296" y="525"/>
      <point x="377" y="525" type="curve" smooth="yes"/>
      <point x="493" y="525"/>
      <point x="553" y="429"/>
      <point x="553" y="264" type="curve" smooth="yes"/>
      <point x="553" y="97"/>
      <point x="492" y="-7"/>
      <point x="373" y="-7" type="curve" smooth="yes"/>
      <point x="294" y="-7"/>
      <point x="241" y="37"/>
      <point x="199" y="103" type="curve"/>
      <point x="199" y="100" type="line"/>
      <point x="239" y="36"/>
      <point x="293" y="-9"/>
      <point x="373" y="-9" type="curve" smooth="yes"/>
      <point x="493" y="-9"/>
      <point x="555" y="95"/>
      <point x="555" y="264" type="curve" smooth="yes"/>
      <point x="555" y="431"/>
      <point x="493" y="527"/>
    </contour>
    <contour>
      <point x="198" y="730" type="line"/>
      <point x="198" y="0" type="line"/>
      <point x="200" y="0" type="line"/>
      <point x="200" y="101" type="line"/>
      <point x="200" y="730" type="line"/>
    </contour>
    <contour>
      <point x="362" y="727" type="move" name="top"/>
    </contour>
    <contour>
      <point x="357" y="0" type="move" name="bottom"/>
    </contour>
  </outline>
</glyph>
<glyph name="uni1D6D" format="1">
  <advance width="632"/>
  <unicode hex="1D6D"/>
  <outline>
    <contour>
      <point x="507" y="604" type="curve"/>
      <point x="542" y="604"/>
      <point x="566" y="627"/>
      <point x="577" y="649" type="curve"/>
      <point x="575" y="649" type="line"/>
      <point x="562" y="626"/>
      <point x="541" y="606"/>
      <point x="507" y="606" type="curve"/>
      <point x="460" y="606"/>
      <point x="413" y="661"/>
      <point x="365" y="661" type="curve"/>
      <point x="331" y="661"/>
      <point x="307" y="638"/>
      <point x="293" y="616" type="curve"/>
      <point x="295" y="616" type="line"/>
      <point x="311" y="639"/>
      <point x="332" y="659"/>
      <point x="365" y="659" type="curve"/>
      <point x="413" y="659"/>
      <point x="460" y="604"/>
    </contour>
    <contour>
      <point x="276" y="527" type="curve" smooth="yes"/>
      <point x="151" y="527"/>
      <point x="80" y="417"/>
      <point x="80" y="257" type="curve" smooth="yes"/>
      <point x="80" y="87"/>
      <point x="154" y="-9"/>
      <point x="268" y="-9" type="curve" smooth="yes"/>
      <point x="359" y="-9"/>
      <point x="407" y="40"/>
      <point x="441" y="102" type="curve"/>
      <point x="441" y="106" type="line"/>
      <point x="406" y="42"/>
      <point x="359" y="-7"/>
      <point x="268" y="-7" type="curve" smooth="yes"/>
      <point x="155" y="-7"/>
      <point x="82" y="89"/>
      <point x="82" y="257" type="curve" smooth="yes"/>
      <point x="82" y="415"/>
      <point x="153" y="525"/>
      <point x="276" y="525" type="curve" smooth="yes"/>
      <point x="362" y="525"/>
      <point x="415" y="471"/>
      <point x="441" y="419" type="curve"/>
      <point x="441" y="422" type="line"/>
      <point x="417" y="472"/>
      <point x="363" y="527"/>
    </contour>
    <contour>
      <point x="440" y="104" type="line"/>
      <point x="440" y="102" type="line"/>
      <point x="440" y="0" type="line"/>
      <point x="442" y="0" type="line"/>
      <point x="442" y="730" type="line"/>
      <point x="440" y="730" type="line"/>
    </contour>
    <contour>
      <point x="283" y="0" type="move" name="bottom"/>
    </contour>
    <contour>
      <point x="275" y="727" type="move" name="top"/>
    </contour>
    <contour>
      <point x="492" y="727" type="move" name="topright"/>
    </contour>
    <contour>
      <point x="284" y="259" type="move" name="center"/>
    </contour>
  </outline>
</glyph>
<glyph name="uni1D6F" format="1">
  <advance width="788"/>
  <unicode hex="1D6F"/>
  <outline>
    <contour>
      <point x="692" y="250" type="line"/>
      <point x="605" y="252"/>
      <point x="169" y="306"/>
      <point x="95" y="306" type="curve"/>
      <point x="95" y="304" type="line"/>
      <point x="169" y="304"/>
      <point x="605" y="250"/>
      <point x="692" y="248" type="curve"/>
    </contour>
    <contour>
      <point x="27" y="261" type="line"/>
      <point x="40" y="284"/>
      <point x="61" y="304"/>
      <point x="95" y="304" type="curve"/>
      <point x="95" y="306" type="line"/>
      <point x="59" y="306"/>
      <point x="36" y="283"/>
      <point x="25" y="261" type="curve"/>
    </contour>
    <contour>
      <point x="693" y="248" type="line"/>
      <point x="729" y="248"/>
      <point x="752" y="271"/>
      <point x="763" y="293" type="curve"/>
      <point x="761" y="293" type="line"/>
      <point x="748" y="270"/>
      <point x="727" y="250"/>
      <point x="693" y="250" type="curve"/>
    </contour>
    <contour>
      <point x="270" y="527" type="curve" smooth="yes"/>
      <point x="192" y="527"/>
      <point x="137" y="475"/>
      <point x="95" y="389" type="curve"/>
      <point x="96" y="387" type="line"/>
      <point x="138" y="473"/>
      <point x="193" y="525"/>
      <point x="270" y="525" type="curve" smooth="yes"/>
      <point x="354" y="525"/>
      <point x="393" y="464"/>
      <point x="393" y="378" type="curve" smooth="yes"/>
      <point x="393" y="0" type="line"/>
      <point x="395" y="0" type="line"/>
      <point x="395" y="388" type="line"/>
      <point x="395" y="389" type="line"/>
      <point x="392" y="473"/>
      <point x="349" y="527"/>
    </contour>
    <contour>
      <point x="94" y="517" type="line"/>
      <point x="94" y="0" type="line"/>
      <point x="96" y="0" type="line"/>
      <point x="96" y="389" type="line"/>
      <point x="96" y="517" type="line"/>
    </contour>
    <contour>
      <point x="569" y="527" type="curve" smooth="yes"/>
      <point x="491" y="527"/>
      <point x="436" y="475"/>
      <point x="394" y="389" type="curve"/>
      <point x="395" y="387" type="line"/>
      <point x="437" y="473"/>
      <point x="492" y="525"/>
      <point x="569" y="525" type="curve" smooth="yes"/>
      <point x="653" y="525"/>
      <point x="692" y="464"/>
      <point x="692" y="368" type="curve" smooth="yes"/>
      <point x="692" y="0" type="line"/>
      <point x="694" y="0" type="line"/>
      <point x="694" y="368" type="line" smooth="yes"/>
      <point x="694" y="465"/>
      <point x="654" y="527"/>
    </contour>
    <contour>
      <point x="392" y="517" type="move" name="top"/>
    </contour>
    <contour>
      <point x="392" y="0" type="move" name="bottom"/>
    </contour>
  </outline>
</glyph>
<glyph name="uni1D70" format="1">
  <advance width="523"/>
  <unicode hex="1D70"/>
  <outline>
    <contour>
      <point x="27" y="261" type="line"/>
      <point x="40" y="284"/>
      <point x="61" y="304"/>
      <point x="95" y="304" type="curve"/>
      <point x="95" y="306" type="line"/>
      <point x="59" y="306"/>
      <point x="36" y="283"/>
      <point x="25" y="261" type="curve"/>
    </contour>
    <contour>
      <point x="427" y="250" type="line"/>
      <point x="360" y="252"/>
      <point x="149" y="306"/>
      <point x="95" y="306" type="curve"/>
      <point x="95" y="304" type="line"/>
      <point x="149" y="304"/>
      <point x="360" y="250"/>
      <point x="427" y="248" type="curve"/>
    </contour>
    <contour>
      <point x="428" y="248" type="line"/>
      <point x="464" y="248"/>
      <point x="487" y="271"/>
      <point x="498" y="293" type="curve"/>
      <point x="496" y="293" type="line"/>
      <point x="483" y="270"/>
      <point x="462" y="250"/>
      <point x="428" y="250" type="curve"/>
    </contour>
    <contour>
      <point x="295" y="527" type="curve" smooth="yes"/>
      <point x="207" y="527"/>
      <point x="143" y="475"/>
      <point x="95" y="389" type="curve"/>
      <point x="96" y="387" type="line"/>
      <point x="144" y="473"/>
      <point x="208" y="525"/>
      <point x="295" y="525" type="curve" smooth="yes"/>
      <point x="389" y="525"/>
      <point x="427" y="466"/>
      <point x="427" y="368" type="curve" smooth="yes"/>
      <point x="427" y="0" type="line"/>
      <point x="429" y="0" type="line"/>
      <point x="429" y="368" type="line" smooth="yes"/>
      <point x="429" y="467"/>
      <point x="390" y="527"/>
    </contour>
    <contour>
      <point x="94" y="517" type="line"/>
      <point x="94" y="0" type="line"/>
      <point x="96" y="0" type="line"/>
      <point x="96" y="389" type="line"/>
      <point x="96" y="517" type="line"/>
    </contour>
    <contour>
      <point x="264" y="517" type="move" name="top"/>
    </contour>
    <contour>
      <point x="256" y="0" type="move" name="bottom"/>
    </contour>
    <contour>
      <point x="84" y="517" type="move" name="topleft"/>
    </contour>
  </outline>
</glyph>
<glyph name="uni1D71" format="1">
  <advance width="562"/>
  <unicode hex="1D71"/>
  <outline>
    <contour>
      <point x="204" y="-116" type="curve"/>
      <point x="239" y="-116"/>
      <point x="263" y="-93"/>
      <point x="274" y="-71" type="curve"/>
      <point x="272" y="-71" type="line"/>
      <point x="259" y="-94"/>
      <point x="238" y="-114"/>
      <point x="204" y="-114" type="curve"/>
      <point x="157" y="-114"/>
      <point x="110" y="-59"/>
      <point x="62" y="-59" type="curve"/>
      <point x="28" y="-59"/>
      <point x="4" y="-82"/>
      <point x="-10" y="-104" type="curve"/>
      <point x="-8" y="-104" type="line"/>
      <point x="8" y="-81"/>
      <point x="29" y="-61"/>
      <point x="62" y="-61" type="curve"/>
      <point x="110" y="-61"/>
      <point x="157" y="-116"/>
    </contour>
    <contour>
      <point x="306" y="527" type="curve" smooth="yes"/>
      <point x="222" y="527"/>
      <point x="169" y="481"/>
      <point x="126" y="420" type="curve"/>
      <point x="126" y="417" type="line"/>
      <point x="172" y="482"/>
      <point x="224" y="525"/>
      <point x="306" y="525" type="curve" smooth="yes"/>
      <point x="420" y="525"/>
      <point x="480" y="429"/>
      <point x="480" y="264" type="curve" smooth="yes"/>
      <point x="480" y="97"/>
      <point x="419" y="-7"/>
      <point x="302" y="-7" type="curve" smooth="yes"/>
      <point x="223" y="-7"/>
      <point x="168" y="37"/>
      <point x="126" y="103" type="curve"/>
      <point x="126" y="100" type="line"/>
      <point x="166" y="36"/>
      <point x="222" y="-9"/>
      <point x="302" y="-9" type="curve" smooth="yes"/>
      <point x="420" y="-9"/>
      <point x="482" y="95"/>
      <point x="482" y="264" type="curve" smooth="yes"/>
      <point x="482" y="431"/>
      <point x="420" y="527"/>
    </contour>
    <contour>
      <point x="125" y="517" type="line"/>
      <point x="125" y="-190" type="line"/>
      <point x="127" y="-190" type="line"/>
      <point x="127" y="419" type="line"/>
      <point x="127" y="421" type="line"/>
      <point x="127" y="517" type="line"/>
    </contour>
    <contour>
      <point x="284" y="517" type="move" name="top"/>
    </contour>
    <contour>
      <point x="284" y="-188" type="move" name="bottom"/>
    </contour>
  </outline>
</glyph>
